G04 #@! TF.FileFunction,Soldermask,Bot*
%FSLAX46Y46*%
G04 Gerber Fmt 4.6, Leading zero omitted, Abs format (unit mm)*
G04 Created by KiCad (PCBNEW 4.0.2-stable) date 2019-10-29 5:42:38 PM*
%MOMM*%
G01*
G04 APERTURE LIST*
%ADD10C,0.100000*%
%ADD11C,3.225000*%
%ADD12C,6.050000*%
%ADD13R,0.850000X0.950000*%
%ADD14C,2.050000*%
%ADD15O,2.000000X2.000000*%
%ADD16R,3.049740X1.650200*%
%ADD17R,1.550000X1.550000*%
%ADD18R,0.950000X0.850000*%
%ADD19C,2.336000*%
%ADD20C,4.037800*%
%ADD21C,1.751800*%
%ADD22C,2.590000*%
%ADD23R,0.659600X0.812000*%
%ADD24R,1.800000X1.400000*%
%ADD25O,1.800000X1.400000*%
%ADD26R,1.250000X1.250000*%
%ADD27C,1.250000*%
%ADD28R,1.193000X1.447000*%
%ADD29R,1.500000X0.500000*%
%ADD30R,0.500000X1.500000*%
%ADD31R,1.550000X0.650000*%
%ADD32R,2.050000X1.550000*%
%ADD33O,2.050000X1.550000*%
%ADD34R,0.751040X1.050760*%
%ADD35R,1.050760X0.751040*%
%ADD36R,0.812000X0.659600*%
%ADD37R,1.650000X2.850000*%
%ADD38R,2.850000X1.650000*%
%ADD39R,2.447760X2.447760*%
%ADD40O,2.250000X1.450000*%
%ADD41O,2.300000X1.450000*%
%ADD42O,1.450000X2.250000*%
%ADD43O,1.450000X2.300000*%
%ADD44R,1.650000X1.550000*%
%ADD45O,1.550000X2.050000*%
%ADD46R,1.650200X3.049740*%
%ADD47R,2.650960X1.650200*%
%ADD48R,1.650200X2.650960*%
%ADD49R,1.350480X0.450000*%
%ADD50R,0.450000X1.350480*%
%ADD51R,1.550000X0.450000*%
%ADD52R,0.450000X1.550000*%
%ADD53C,1.550000*%
%ADD54R,0.650000X1.950000*%
%ADD55R,2.150000X2.850000*%
%ADD56O,2.850000X3.550000*%
%ADD57C,1.800000*%
%ADD58R,2.082000X1.777200*%
%ADD59O,2.082000X1.777200*%
%ADD60R,1.750000X1.750000*%
%ADD61O,1.750000X1.750000*%
%ADD62C,2.550000*%
%ADD63R,2.550000X3.550000*%
%ADD64O,4.650000X1.500000*%
%ADD65O,4.350000X1.150000*%
%ADD66O,1.150000X4.350000*%
%ADD67C,1.150000*%
%ADD68O,2.050000X1.800000*%
%ADD69R,2.050000X1.800000*%
%ADD70R,1.550000X2.050000*%
%ADD71C,1.850000*%
%ADD72R,1.050000X1.650000*%
%ADD73O,4.050000X2.550000*%
%ADD74O,2.550000X2.050000*%
%ADD75O,1.550000X3.550000*%
%ADD76O,2.050000X3.050000*%
%ADD77R,0.500000X1.550000*%
%ADD78R,1.550000X0.500000*%
%ADD79C,3.150000*%
%ADD80R,1.650000X1.050000*%
%ADD81R,0.550000X0.425000*%
%ADD82R,0.700000X0.350000*%
%ADD83R,0.425000X0.550000*%
%ADD84R,0.350000X0.700000*%
G04 APERTURE END LIST*
D10*
D11*
X203500000Y-135000000D03*
D12*
X163000000Y-162500000D03*
D11*
X330900000Y-136850000D03*
X72800000Y-151650000D03*
X200000000Y-58450000D03*
X92400000Y-66650000D03*
X356000000Y-65550000D03*
D13*
X121650000Y-63550000D03*
X121650000Y-65250000D03*
X106200000Y-60200000D03*
X106200000Y-61900000D03*
D11*
X281000000Y-135000000D03*
D12*
X240500000Y-162500000D03*
D11*
X100500000Y-147000000D03*
D14*
X71400000Y-47900000D03*
X71400000Y-186400000D03*
X364650000Y-186650000D03*
X364650000Y-48150000D03*
D15*
X77150000Y-186400000D03*
X358900000Y-48150000D03*
D11*
X269000000Y-153000000D03*
X165000000Y-153000000D03*
D16*
X132199640Y-79500000D03*
X127800360Y-79500000D03*
D17*
X99130000Y-66328000D03*
X101670000Y-66328000D03*
X104210000Y-66328000D03*
X96590000Y-66328000D03*
X96590000Y-75472000D03*
X99130000Y-75472000D03*
X101670000Y-75472000D03*
X104210000Y-75472000D03*
D18*
X241850000Y-128750000D03*
X240150000Y-128750000D03*
D11*
X236000000Y-108250000D03*
X146000000Y-54350000D03*
X137000000Y-95000000D03*
D18*
X358500000Y-145650000D03*
X358500000Y-147350000D03*
D19*
X331190000Y-144460000D03*
D20*
X335000000Y-147000000D03*
D21*
X340080000Y-147000000D03*
X329920000Y-147000000D03*
D22*
X337540000Y-141920000D03*
D11*
X321000000Y-132500000D03*
X322500000Y-152500000D03*
X217000000Y-153000000D03*
X218000000Y-135000000D03*
X112500000Y-132500000D03*
X111500000Y-152500000D03*
D18*
X363000000Y-130900000D03*
X363000000Y-132600000D03*
X292650000Y-106500000D03*
X294350000Y-106500000D03*
X289650000Y-104500000D03*
X291350000Y-104500000D03*
D23*
X267994600Y-99000000D03*
X265505400Y-99000000D03*
D18*
X243800000Y-103150000D03*
X243800000Y-104850000D03*
D10*
G36*
X113219402Y-111603464D02*
X113643666Y-111179200D01*
X114810392Y-112345926D01*
X114386128Y-112770190D01*
X113219402Y-111603464D01*
X113219402Y-111603464D01*
G37*
G36*
X113785088Y-111037779D02*
X114209352Y-110613515D01*
X115376078Y-111780241D01*
X114951814Y-112204505D01*
X113785088Y-111037779D01*
X113785088Y-111037779D01*
G37*
G36*
X114350773Y-110472093D02*
X114775037Y-110047829D01*
X115941763Y-111214555D01*
X115517499Y-111638819D01*
X114350773Y-110472093D01*
X114350773Y-110472093D01*
G37*
G36*
X114916458Y-109906408D02*
X115340722Y-109482144D01*
X116507448Y-110648870D01*
X116083184Y-111073134D01*
X114916458Y-109906408D01*
X114916458Y-109906408D01*
G37*
G36*
X115482144Y-109340722D02*
X115906408Y-108916458D01*
X117073134Y-110083184D01*
X116648870Y-110507448D01*
X115482144Y-109340722D01*
X115482144Y-109340722D01*
G37*
G36*
X116047829Y-108775037D02*
X116472093Y-108350773D01*
X117638819Y-109517499D01*
X117214555Y-109941763D01*
X116047829Y-108775037D01*
X116047829Y-108775037D01*
G37*
G36*
X116613515Y-108209352D02*
X117037779Y-107785088D01*
X118204505Y-108951814D01*
X117780241Y-109376078D01*
X116613515Y-108209352D01*
X116613515Y-108209352D01*
G37*
G36*
X117179200Y-107643666D02*
X117603464Y-107219402D01*
X118770190Y-108386128D01*
X118345926Y-108810392D01*
X117179200Y-107643666D01*
X117179200Y-107643666D01*
G37*
G36*
X120396536Y-107219402D02*
X120820800Y-107643666D01*
X119654074Y-108810392D01*
X119229810Y-108386128D01*
X120396536Y-107219402D01*
X120396536Y-107219402D01*
G37*
G36*
X120962221Y-107785088D02*
X121386485Y-108209352D01*
X120219759Y-109376078D01*
X119795495Y-108951814D01*
X120962221Y-107785088D01*
X120962221Y-107785088D01*
G37*
G36*
X121527907Y-108350773D02*
X121952171Y-108775037D01*
X120785445Y-109941763D01*
X120361181Y-109517499D01*
X121527907Y-108350773D01*
X121527907Y-108350773D01*
G37*
G36*
X122093592Y-108916458D02*
X122517856Y-109340722D01*
X121351130Y-110507448D01*
X120926866Y-110083184D01*
X122093592Y-108916458D01*
X122093592Y-108916458D01*
G37*
G36*
X122659278Y-109482144D02*
X123083542Y-109906408D01*
X121916816Y-111073134D01*
X121492552Y-110648870D01*
X122659278Y-109482144D01*
X122659278Y-109482144D01*
G37*
G36*
X123224963Y-110047829D02*
X123649227Y-110472093D01*
X122482501Y-111638819D01*
X122058237Y-111214555D01*
X123224963Y-110047829D01*
X123224963Y-110047829D01*
G37*
G36*
X123790648Y-110613515D02*
X124214912Y-111037779D01*
X123048186Y-112204505D01*
X122623922Y-111780241D01*
X123790648Y-110613515D01*
X123790648Y-110613515D01*
G37*
G36*
X124356334Y-111179200D02*
X124780598Y-111603464D01*
X123613872Y-112770190D01*
X123189608Y-112345926D01*
X124356334Y-111179200D01*
X124356334Y-111179200D01*
G37*
G36*
X123189608Y-113654074D02*
X123613872Y-113229810D01*
X124780598Y-114396536D01*
X124356334Y-114820800D01*
X123189608Y-113654074D01*
X123189608Y-113654074D01*
G37*
G36*
X122623922Y-114219759D02*
X123048186Y-113795495D01*
X124214912Y-114962221D01*
X123790648Y-115386485D01*
X122623922Y-114219759D01*
X122623922Y-114219759D01*
G37*
G36*
X122058237Y-114785445D02*
X122482501Y-114361181D01*
X123649227Y-115527907D01*
X123224963Y-115952171D01*
X122058237Y-114785445D01*
X122058237Y-114785445D01*
G37*
G36*
X121492552Y-115351130D02*
X121916816Y-114926866D01*
X123083542Y-116093592D01*
X122659278Y-116517856D01*
X121492552Y-115351130D01*
X121492552Y-115351130D01*
G37*
G36*
X120926866Y-115916816D02*
X121351130Y-115492552D01*
X122517856Y-116659278D01*
X122093592Y-117083542D01*
X120926866Y-115916816D01*
X120926866Y-115916816D01*
G37*
G36*
X120361181Y-116482501D02*
X120785445Y-116058237D01*
X121952171Y-117224963D01*
X121527907Y-117649227D01*
X120361181Y-116482501D01*
X120361181Y-116482501D01*
G37*
G36*
X119795495Y-117048186D02*
X120219759Y-116623922D01*
X121386485Y-117790648D01*
X120962221Y-118214912D01*
X119795495Y-117048186D01*
X119795495Y-117048186D01*
G37*
G36*
X119229810Y-117613872D02*
X119654074Y-117189608D01*
X120820800Y-118356334D01*
X120396536Y-118780598D01*
X119229810Y-117613872D01*
X119229810Y-117613872D01*
G37*
G36*
X118345926Y-117189608D02*
X118770190Y-117613872D01*
X117603464Y-118780598D01*
X117179200Y-118356334D01*
X118345926Y-117189608D01*
X118345926Y-117189608D01*
G37*
G36*
X117780241Y-116623922D02*
X118204505Y-117048186D01*
X117037779Y-118214912D01*
X116613515Y-117790648D01*
X117780241Y-116623922D01*
X117780241Y-116623922D01*
G37*
G36*
X117214555Y-116058237D02*
X117638819Y-116482501D01*
X116472093Y-117649227D01*
X116047829Y-117224963D01*
X117214555Y-116058237D01*
X117214555Y-116058237D01*
G37*
G36*
X116648870Y-115492552D02*
X117073134Y-115916816D01*
X115906408Y-117083542D01*
X115482144Y-116659278D01*
X116648870Y-115492552D01*
X116648870Y-115492552D01*
G37*
G36*
X116083184Y-114926866D02*
X116507448Y-115351130D01*
X115340722Y-116517856D01*
X114916458Y-116093592D01*
X116083184Y-114926866D01*
X116083184Y-114926866D01*
G37*
G36*
X115517499Y-114361181D02*
X115941763Y-114785445D01*
X114775037Y-115952171D01*
X114350773Y-115527907D01*
X115517499Y-114361181D01*
X115517499Y-114361181D01*
G37*
G36*
X114951814Y-113795495D02*
X115376078Y-114219759D01*
X114209352Y-115386485D01*
X113785088Y-114962221D01*
X114951814Y-113795495D01*
X114951814Y-113795495D01*
G37*
G36*
X114386128Y-113229810D02*
X114810392Y-113654074D01*
X113643666Y-114820800D01*
X113219402Y-114396536D01*
X114386128Y-113229810D01*
X114386128Y-113229810D01*
G37*
D24*
X115000000Y-68400000D03*
D25*
X115000000Y-70400000D03*
X115000000Y-72400000D03*
D26*
X115070000Y-85570000D03*
D27*
X115070000Y-83030000D03*
D19*
X80690000Y-144460000D03*
D20*
X84500000Y-147000000D03*
D21*
X89580000Y-147000000D03*
X79420000Y-147000000D03*
D22*
X87040000Y-141920000D03*
D28*
X126170500Y-115250000D03*
X128329500Y-115250000D03*
D29*
X288450000Y-121300000D03*
X288450000Y-121950000D03*
X288450000Y-122600000D03*
X288450000Y-123250000D03*
X288450000Y-123900000D03*
X288450000Y-124550000D03*
X288450000Y-125200000D03*
X282550000Y-125200000D03*
X282550000Y-124550000D03*
X282550000Y-123900000D03*
X282550000Y-123250000D03*
X282550000Y-122600000D03*
X282550000Y-121950000D03*
X282550000Y-121300000D03*
D30*
X126050000Y-60550000D03*
X126700000Y-60550000D03*
X127350000Y-60550000D03*
X128000000Y-60550000D03*
X128650000Y-60550000D03*
X129300000Y-60550000D03*
X129950000Y-60550000D03*
X129950000Y-66450000D03*
X129300000Y-66450000D03*
X128650000Y-66450000D03*
X128000000Y-66450000D03*
X127350000Y-66450000D03*
X126700000Y-66450000D03*
X126050000Y-66450000D03*
D31*
X270300000Y-82310000D03*
X270300000Y-81040000D03*
X270300000Y-79770000D03*
X270300000Y-78500000D03*
X270300000Y-77230000D03*
X270300000Y-75960000D03*
X270300000Y-74690000D03*
X275700000Y-74690000D03*
X275700000Y-75960000D03*
X275700000Y-77230000D03*
X275700000Y-78500000D03*
X275700000Y-79770000D03*
X275700000Y-81040000D03*
X275700000Y-82310000D03*
D10*
G36*
X114176776Y-102898959D02*
X113505025Y-102227208D01*
X114530330Y-101201903D01*
X115202081Y-101873654D01*
X114176776Y-102898959D01*
X114176776Y-102898959D01*
G37*
G36*
X112373654Y-104702081D02*
X111701903Y-104030330D01*
X112727208Y-103005025D01*
X113398959Y-103676776D01*
X112373654Y-104702081D01*
X112373654Y-104702081D01*
G37*
G36*
X113469670Y-105798097D02*
X112797919Y-105126346D01*
X113823224Y-104101041D01*
X114494975Y-104772792D01*
X113469670Y-105798097D01*
X113469670Y-105798097D01*
G37*
G36*
X115272792Y-103994975D02*
X114601041Y-103323224D01*
X115626346Y-102297919D01*
X116298097Y-102969670D01*
X115272792Y-103994975D01*
X115272792Y-103994975D01*
G37*
D32*
X72500000Y-105500000D03*
D33*
X75040000Y-105500000D03*
X72500000Y-102960000D03*
X75040000Y-102960000D03*
X72500000Y-100420000D03*
X75040000Y-100420000D03*
X72500000Y-97880000D03*
X75040000Y-97880000D03*
X72500000Y-95340000D03*
X75040000Y-95340000D03*
D34*
X243750000Y-61730000D03*
X242797500Y-64270000D03*
X244702500Y-64270000D03*
D35*
X263730000Y-84250000D03*
X266270000Y-85202500D03*
X266270000Y-83297500D03*
X260270000Y-98250000D03*
X257730000Y-97297500D03*
X257730000Y-99202500D03*
D34*
X270100000Y-97830000D03*
X269147500Y-100370000D03*
X271052500Y-100370000D03*
D35*
X270020000Y-71750000D03*
X267480000Y-70797500D03*
X267480000Y-72702500D03*
D34*
X276250000Y-90770000D03*
X277202500Y-88230000D03*
X275297500Y-88230000D03*
X276000000Y-97020000D03*
X276952500Y-94480000D03*
X275047500Y-94480000D03*
D35*
X279770000Y-99250000D03*
X277230000Y-98297500D03*
X277230000Y-100202500D03*
X252020000Y-84250000D03*
X249480000Y-83297500D03*
X249480000Y-85202500D03*
X244320000Y-84200000D03*
X241780000Y-83247500D03*
X241780000Y-85152500D03*
X234020000Y-90250000D03*
X231480000Y-89297500D03*
X231480000Y-91202500D03*
D34*
X229000000Y-96230000D03*
X228047500Y-98770000D03*
X229952500Y-98770000D03*
X232250000Y-102230000D03*
X231297500Y-104770000D03*
X233202500Y-104770000D03*
D35*
X224270000Y-93500000D03*
X221730000Y-92547500D03*
X221730000Y-94452500D03*
D34*
X215000000Y-96230000D03*
X214047500Y-98770000D03*
X215952500Y-98770000D03*
X221000000Y-99980000D03*
X220047500Y-102520000D03*
X221952500Y-102520000D03*
D35*
X210520000Y-93500000D03*
X207980000Y-92547500D03*
X207980000Y-94452500D03*
D34*
X201000000Y-96230000D03*
X200047500Y-98770000D03*
X201952500Y-98770000D03*
X207000000Y-99980000D03*
X206047500Y-102520000D03*
X207952500Y-102520000D03*
D35*
X196520000Y-93500000D03*
X193980000Y-92547500D03*
X193980000Y-94452500D03*
D34*
X187000000Y-95980000D03*
X186047500Y-98520000D03*
X187952500Y-98520000D03*
X193000000Y-99980000D03*
X192047500Y-102520000D03*
X193952500Y-102520000D03*
D35*
X174770000Y-73750000D03*
X172230000Y-72797500D03*
X172230000Y-74702500D03*
X183770000Y-108500000D03*
X181230000Y-107547500D03*
X181230000Y-109452500D03*
D34*
X175750000Y-100270000D03*
X176702500Y-97730000D03*
X174797500Y-97730000D03*
D35*
X166520000Y-97500000D03*
X163980000Y-96547500D03*
X163980000Y-98452500D03*
D34*
X164500000Y-99980000D03*
X163547500Y-102520000D03*
X165452500Y-102520000D03*
X155250000Y-77230000D03*
X154297500Y-79770000D03*
X156202500Y-79770000D03*
X140500000Y-89230000D03*
X139547500Y-91770000D03*
X141452500Y-91770000D03*
X147000000Y-100770000D03*
X147952500Y-98230000D03*
X146047500Y-98230000D03*
D35*
X144770000Y-96000000D03*
X142230000Y-95047500D03*
X142230000Y-96952500D03*
D34*
X135750000Y-98980000D03*
X134797500Y-101520000D03*
X136702500Y-101520000D03*
X141750000Y-99980000D03*
X140797500Y-102520000D03*
X142702500Y-102520000D03*
X203500000Y-125270000D03*
X204452500Y-122730000D03*
X202547500Y-122730000D03*
X137000000Y-61730000D03*
X136047500Y-64270000D03*
X137952500Y-64270000D03*
X144400000Y-62780000D03*
X143447500Y-65320000D03*
X145352500Y-65320000D03*
D35*
X133380000Y-73550000D03*
X135920000Y-74502500D03*
X135920000Y-72597500D03*
D34*
X324250000Y-76230000D03*
X323297500Y-78770000D03*
X325202500Y-78770000D03*
D35*
X137370000Y-69250000D03*
X134830000Y-68297500D03*
X134830000Y-70202500D03*
D34*
X331000000Y-79730000D03*
X330047500Y-82270000D03*
X331952500Y-82270000D03*
X336000000Y-97270000D03*
X336952500Y-94730000D03*
X335047500Y-94730000D03*
X254000000Y-107480000D03*
X253047500Y-110020000D03*
X254952500Y-110020000D03*
D35*
X322520000Y-91000000D03*
X319980000Y-90047500D03*
X319980000Y-91952500D03*
D34*
X250750000Y-110980000D03*
X249797500Y-113520000D03*
X251702500Y-113520000D03*
X135750000Y-60270000D03*
X136702500Y-57730000D03*
X134797500Y-57730000D03*
X336750000Y-86520000D03*
X337702500Y-83980000D03*
X335797500Y-83980000D03*
X334750000Y-72980000D03*
X333797500Y-75520000D03*
X335702500Y-75520000D03*
X302750000Y-89020000D03*
X303702500Y-86480000D03*
X301797500Y-86480000D03*
D35*
X334020000Y-97500000D03*
X331480000Y-96547500D03*
X331480000Y-98452500D03*
X327020000Y-99900000D03*
X324480000Y-98947500D03*
X324480000Y-100852500D03*
D34*
X321500000Y-102730000D03*
X320547500Y-105270000D03*
X322452500Y-105270000D03*
X305000000Y-97730000D03*
X304047500Y-100270000D03*
X305952500Y-100270000D03*
D35*
X324770000Y-110500000D03*
X322230000Y-109547500D03*
X322230000Y-111452500D03*
D34*
X304500000Y-116480000D03*
X303547500Y-119020000D03*
X305452500Y-119020000D03*
X311750000Y-122480000D03*
X310797500Y-125020000D03*
X312702500Y-125020000D03*
X312000000Y-88980000D03*
X311047500Y-91520000D03*
X312952500Y-91520000D03*
X290500000Y-90480000D03*
X289547500Y-93020000D03*
X291452500Y-93020000D03*
X295750000Y-88980000D03*
X294797500Y-91520000D03*
X296702500Y-91520000D03*
X361000000Y-148520000D03*
X361952500Y-145980000D03*
X360047500Y-145980000D03*
X353750000Y-145730000D03*
X352797500Y-148270000D03*
X354702500Y-148270000D03*
D35*
X359270000Y-149500000D03*
X356730000Y-148547500D03*
X356730000Y-150452500D03*
X358230000Y-152750000D03*
X360770000Y-153702500D03*
X360770000Y-151797500D03*
D34*
X276100000Y-117230000D03*
X275147500Y-119770000D03*
X277052500Y-119770000D03*
D35*
X316980000Y-88000000D03*
X319520000Y-88952500D03*
X319520000Y-87047500D03*
X330020000Y-102500000D03*
X327480000Y-101547500D03*
X327480000Y-103452500D03*
D34*
X322250000Y-115730000D03*
X321297500Y-118270000D03*
X323202500Y-118270000D03*
X282500000Y-99480000D03*
X281547500Y-102020000D03*
X283452500Y-102020000D03*
X318750000Y-85770000D03*
X319702500Y-83230000D03*
X317797500Y-83230000D03*
D35*
X327530000Y-105550000D03*
X330070000Y-106502500D03*
X330070000Y-104597500D03*
D34*
X321750000Y-121730000D03*
X320797500Y-124270000D03*
X322702500Y-124270000D03*
X287000000Y-106980000D03*
X286047500Y-109520000D03*
X287952500Y-109520000D03*
D23*
X267994600Y-74250000D03*
X265505400Y-74250000D03*
X265955400Y-86600000D03*
X268444600Y-86600000D03*
D36*
X268750000Y-102255400D03*
X268750000Y-104744600D03*
X270000000Y-93994600D03*
X270000000Y-91505400D03*
X278500000Y-91505400D03*
X278500000Y-93994600D03*
X280250000Y-97494600D03*
X280250000Y-95005400D03*
X227750000Y-91494600D03*
X227750000Y-89005400D03*
D23*
X237955400Y-83200000D03*
X240444600Y-83200000D03*
D36*
X234400000Y-100355400D03*
X234400000Y-102844600D03*
X233000000Y-94994600D03*
X233000000Y-92505400D03*
D23*
X214755400Y-91200000D03*
X217244600Y-91200000D03*
D36*
X219750000Y-98244600D03*
X219750000Y-95755400D03*
X203750000Y-88755400D03*
X203750000Y-91244600D03*
X205750000Y-98244600D03*
X205750000Y-95755400D03*
X189750000Y-88755400D03*
X189750000Y-91244600D03*
X191750000Y-98244600D03*
X191750000Y-95755400D03*
X185250000Y-106005400D03*
X185250000Y-108494600D03*
X148000000Y-85755400D03*
X148000000Y-88244600D03*
D23*
X148744600Y-107750000D03*
X146255400Y-107750000D03*
D36*
X106500000Y-65905400D03*
X106500000Y-68394600D03*
X328750000Y-82244600D03*
X328750000Y-79755400D03*
X336750000Y-90494600D03*
X336750000Y-88005400D03*
X296250000Y-106505400D03*
X296250000Y-108994600D03*
X311250000Y-116505400D03*
X311250000Y-118994600D03*
D23*
X355255400Y-126850000D03*
X357744600Y-126850000D03*
X357744600Y-128750000D03*
X355255400Y-128750000D03*
D36*
X306250000Y-108744600D03*
X306250000Y-106255400D03*
D23*
X307755400Y-108750000D03*
X310244600Y-108750000D03*
D36*
X321000000Y-109494600D03*
X321000000Y-107005400D03*
X307500000Y-92744600D03*
X307500000Y-90255400D03*
D23*
X292005400Y-88750000D03*
X294494600Y-88750000D03*
X284505400Y-84500000D03*
X286994600Y-84500000D03*
D36*
X287000000Y-96994600D03*
X287000000Y-94505400D03*
D23*
X283005400Y-79750000D03*
X285494600Y-79750000D03*
D37*
X79650000Y-123400000D03*
D38*
X236000000Y-116000000D03*
X314500000Y-139750000D03*
D37*
X225750000Y-124250000D03*
D38*
X212250000Y-126250000D03*
X277500000Y-125750000D03*
D26*
X102340000Y-92060000D03*
D27*
X102340000Y-89520000D03*
D26*
X76080000Y-73635000D03*
D27*
X78620000Y-73635000D03*
D26*
X80655000Y-71305000D03*
D27*
X83195000Y-71305000D03*
D26*
X85800000Y-71305000D03*
D27*
X88340000Y-71305000D03*
D26*
X90375000Y-73635000D03*
D27*
X92915000Y-73635000D03*
D26*
X93395000Y-77790000D03*
D27*
X95935000Y-77790000D03*
D26*
X105360000Y-87905000D03*
D27*
X105360000Y-85365000D03*
D26*
X109935000Y-85570000D03*
D27*
X109935000Y-83030000D03*
D26*
X119645000Y-87905000D03*
D27*
X119645000Y-85365000D03*
D26*
X122665000Y-92060000D03*
D27*
X122665000Y-89520000D03*
D26*
X105230000Y-142000000D03*
D27*
X107770000Y-142000000D03*
D26*
X105230000Y-152000000D03*
D27*
X107770000Y-152000000D03*
D26*
X261730000Y-87000000D03*
D27*
X264270000Y-87000000D03*
D26*
X279730000Y-107250000D03*
D27*
X282270000Y-107250000D03*
D26*
X297730000Y-107250000D03*
D27*
X300270000Y-107250000D03*
D26*
X315730000Y-107250000D03*
D27*
X318270000Y-107250000D03*
D26*
X333730000Y-107250000D03*
D27*
X336270000Y-107250000D03*
D26*
X327230000Y-129000000D03*
D27*
X329770000Y-129000000D03*
D26*
X340230000Y-129000000D03*
D27*
X342770000Y-129000000D03*
D26*
X73070000Y-77790000D03*
D27*
X75610000Y-77790000D03*
D26*
X105230000Y-133700000D03*
D27*
X107770000Y-133700000D03*
D26*
X105230000Y-128900000D03*
D27*
X107770000Y-128900000D03*
D26*
X105230000Y-124100000D03*
D27*
X107770000Y-124100000D03*
D26*
X105230000Y-119300000D03*
D27*
X107770000Y-119300000D03*
D26*
X153730000Y-107250000D03*
D27*
X156270000Y-107250000D03*
D26*
X171730000Y-107250000D03*
D27*
X174270000Y-107250000D03*
D26*
X189730000Y-107250000D03*
D27*
X192270000Y-107250000D03*
D26*
X189730000Y-87000000D03*
D27*
X192270000Y-87000000D03*
D26*
X207730000Y-107250000D03*
D27*
X210270000Y-107250000D03*
D26*
X207730000Y-87000000D03*
D27*
X210270000Y-87000000D03*
D26*
X225730000Y-107250000D03*
D27*
X228270000Y-107250000D03*
D26*
X225730000Y-87000000D03*
D27*
X228270000Y-87000000D03*
D26*
X243730000Y-107250000D03*
D27*
X246270000Y-107250000D03*
D26*
X243730000Y-87000000D03*
D27*
X246270000Y-87000000D03*
D26*
X261730000Y-107250000D03*
D27*
X264270000Y-107250000D03*
D26*
X135730000Y-107250000D03*
D27*
X138270000Y-107250000D03*
D26*
X91000000Y-130270000D03*
D27*
X91000000Y-127730000D03*
D26*
X78000000Y-130270000D03*
D27*
X78000000Y-127730000D03*
D18*
X80000000Y-132400000D03*
X80000000Y-134100000D03*
X92500000Y-132150000D03*
X92500000Y-133850000D03*
X327500000Y-146350000D03*
X327500000Y-144650000D03*
X80750000Y-140400000D03*
X80750000Y-142100000D03*
X241800000Y-106150000D03*
X241800000Y-107850000D03*
X224350000Y-87000000D03*
X222650000Y-87000000D03*
X226100000Y-109150000D03*
X227800000Y-109150000D03*
X189750000Y-105400000D03*
X188050000Y-105400000D03*
X134350000Y-105250000D03*
X132650000Y-105250000D03*
X105400000Y-121250000D03*
X107100000Y-121250000D03*
X105400000Y-126000000D03*
X107100000Y-126000000D03*
X105400000Y-131000000D03*
X107100000Y-131000000D03*
X105400000Y-136250000D03*
X107100000Y-136250000D03*
X85850000Y-87750000D03*
X84150000Y-87750000D03*
X114000000Y-123900000D03*
X114000000Y-125600000D03*
X338850000Y-133250000D03*
X337150000Y-133250000D03*
X327250000Y-130650000D03*
X327250000Y-132350000D03*
X105650000Y-149500000D03*
X107350000Y-149500000D03*
X105650000Y-144500000D03*
X107350000Y-144500000D03*
X122600000Y-93450000D03*
X122600000Y-95150000D03*
X121400000Y-87550000D03*
X121400000Y-85850000D03*
X115100000Y-87050000D03*
X115100000Y-88750000D03*
X110000000Y-87050000D03*
X110000000Y-88750000D03*
X103400000Y-87850000D03*
X103400000Y-86150000D03*
X100800000Y-87850000D03*
X100800000Y-86150000D03*
X93350000Y-79750000D03*
X91650000Y-79750000D03*
X88850000Y-75500000D03*
X87150000Y-75500000D03*
X85850000Y-73750000D03*
X84150000Y-73750000D03*
X80900000Y-73750000D03*
X82600000Y-73750000D03*
X79650000Y-75750000D03*
X81350000Y-75750000D03*
X73150000Y-79750000D03*
X74850000Y-79750000D03*
X114000000Y-122850000D03*
X114000000Y-121150000D03*
X315350000Y-113500000D03*
X313650000Y-113500000D03*
X297350000Y-118000000D03*
X295650000Y-118000000D03*
X281900000Y-113500000D03*
X283600000Y-113500000D03*
X258150000Y-117750000D03*
X259850000Y-117750000D03*
X240350000Y-117800000D03*
X242050000Y-117800000D03*
X231850000Y-117800000D03*
X230150000Y-117800000D03*
X213350000Y-113500000D03*
X211650000Y-113500000D03*
X192550000Y-117900000D03*
X194250000Y-117900000D03*
X101750000Y-77650000D03*
X100050000Y-77650000D03*
X333350000Y-129650000D03*
X331650000Y-129650000D03*
X338500000Y-152150000D03*
X338500000Y-153850000D03*
X336650000Y-113750000D03*
X338350000Y-113750000D03*
X180100000Y-116000000D03*
X178400000Y-116000000D03*
X147650000Y-116000000D03*
X149350000Y-116000000D03*
X144350000Y-116000000D03*
X142650000Y-116000000D03*
X90250000Y-93650000D03*
X90250000Y-95350000D03*
X103750000Y-98400000D03*
X103750000Y-100100000D03*
X93200000Y-85550000D03*
X93200000Y-87250000D03*
X90100000Y-132250000D03*
X88400000Y-132250000D03*
X106300000Y-69900000D03*
X108000000Y-69900000D03*
X256225000Y-77875000D03*
X257925000Y-77875000D03*
X252500000Y-97400000D03*
X252500000Y-99100000D03*
X254750000Y-81100000D03*
X254750000Y-79400000D03*
X263650000Y-72500000D03*
X265350000Y-72500000D03*
X263650000Y-69000000D03*
X265350000Y-69000000D03*
X262000000Y-92850000D03*
X262000000Y-91150000D03*
X257150000Y-62500000D03*
X258850000Y-62500000D03*
X255750000Y-89350000D03*
X255750000Y-87650000D03*
X257250000Y-64400000D03*
X258950000Y-64400000D03*
X258250000Y-87650000D03*
X258250000Y-89350000D03*
X266000000Y-109600000D03*
X266000000Y-107900000D03*
X257750000Y-95850000D03*
X257750000Y-94150000D03*
X261250000Y-85350000D03*
X261250000Y-83650000D03*
X262650000Y-77000000D03*
X264350000Y-77000000D03*
X252600000Y-92000000D03*
X250900000Y-92000000D03*
X269350000Y-109500000D03*
X267650000Y-109500000D03*
X260250000Y-94150000D03*
X260250000Y-95850000D03*
X268000000Y-107850000D03*
X268000000Y-106150000D03*
X278250000Y-75100000D03*
X278250000Y-73400000D03*
X270600000Y-95750000D03*
X268900000Y-95750000D03*
X266250000Y-82100000D03*
X266250000Y-80400000D03*
X268000000Y-82100000D03*
X268000000Y-80400000D03*
X268000000Y-83400000D03*
X268000000Y-85100000D03*
X268100000Y-77750000D03*
X266400000Y-77750000D03*
X271750000Y-84150000D03*
X271750000Y-85850000D03*
X273500000Y-85850000D03*
X273500000Y-84150000D03*
X275750000Y-72600000D03*
X275750000Y-70900000D03*
X277750000Y-78100000D03*
X277750000Y-76400000D03*
X278250000Y-70650000D03*
X278250000Y-72350000D03*
X276000000Y-85850000D03*
X276000000Y-84150000D03*
X260650000Y-100500000D03*
X262350000Y-100500000D03*
X264000000Y-100600000D03*
X264000000Y-98900000D03*
X269250000Y-67100000D03*
X269250000Y-65400000D03*
X257750000Y-100400000D03*
X257750000Y-102100000D03*
X271750000Y-88400000D03*
X271750000Y-90100000D03*
X273500000Y-88400000D03*
X273500000Y-90100000D03*
X273500000Y-91650000D03*
X273500000Y-93350000D03*
X256000000Y-102100000D03*
X256000000Y-100400000D03*
X275000000Y-91650000D03*
X275000000Y-93350000D03*
X271750000Y-72600000D03*
X271750000Y-70900000D03*
X271100000Y-69000000D03*
X269400000Y-69000000D03*
X274750000Y-67100000D03*
X274750000Y-65400000D03*
X278750000Y-90100000D03*
X278750000Y-88400000D03*
X279000000Y-103350000D03*
X279000000Y-101650000D03*
X277250000Y-104400000D03*
X277250000Y-106100000D03*
X249500000Y-106900000D03*
X249500000Y-108600000D03*
X256250000Y-103650000D03*
X256250000Y-105350000D03*
X251500000Y-62900000D03*
X251500000Y-64600000D03*
X249500000Y-65900000D03*
X249500000Y-67600000D03*
X246250000Y-64100000D03*
X246250000Y-62400000D03*
X253900000Y-69500000D03*
X255600000Y-69500000D03*
X250000000Y-89100000D03*
X250000000Y-87400000D03*
X251600000Y-81250000D03*
X249900000Y-81250000D03*
X251600000Y-79500000D03*
X249900000Y-79500000D03*
X247800000Y-83350000D03*
X247800000Y-85050000D03*
X240350000Y-93500000D03*
X238650000Y-93500000D03*
X251750000Y-87400000D03*
X251750000Y-89100000D03*
X251999100Y-76000000D03*
X250299100Y-76000000D03*
X246900000Y-93000000D03*
X248600000Y-93000000D03*
X248600000Y-91250000D03*
X246900000Y-91250000D03*
X329650000Y-90200000D03*
X329650000Y-88500000D03*
X245500000Y-104850000D03*
X245500000Y-103150000D03*
X246600000Y-81250000D03*
X244900000Y-81250000D03*
X246100000Y-76000000D03*
X244400000Y-76000000D03*
X250400000Y-73500000D03*
X252100000Y-73500000D03*
X235650900Y-83500000D03*
X233950900Y-83500000D03*
X233950000Y-85300000D03*
X235650000Y-85300000D03*
X247150000Y-76000000D03*
X248850000Y-76000000D03*
X239750000Y-77400000D03*
X239750000Y-79100000D03*
X233500000Y-96900000D03*
X233500000Y-98600000D03*
X226000000Y-89400000D03*
X226000000Y-91100000D03*
X232600000Y-87250000D03*
X230900000Y-87250000D03*
X229500000Y-89400000D03*
X229500000Y-91100000D03*
X235900000Y-104000000D03*
X237600000Y-104000000D03*
X237750000Y-102100000D03*
X237750000Y-100400000D03*
X236000000Y-100400000D03*
X236000000Y-102100000D03*
X231250000Y-94600000D03*
X231250000Y-92900000D03*
X228150000Y-100500000D03*
X229850000Y-100500000D03*
X231150000Y-100500000D03*
X232850000Y-100500000D03*
X228150000Y-102600000D03*
X229850000Y-102600000D03*
X264600000Y-56250000D03*
X262900000Y-56250000D03*
X308500000Y-87100000D03*
X308500000Y-85400000D03*
X242250000Y-55150000D03*
X242250000Y-56850000D03*
X328250000Y-110350000D03*
X328250000Y-108650000D03*
X299250000Y-80400000D03*
X299250000Y-82100000D03*
X236750000Y-60350000D03*
X236750000Y-58650000D03*
X227900000Y-60250000D03*
X229600000Y-60250000D03*
X234250000Y-55150000D03*
X234250000Y-56850000D03*
X238000000Y-56850000D03*
X238000000Y-55150000D03*
X227000000Y-80650000D03*
X227000000Y-82350000D03*
X232200000Y-69750000D03*
X232200000Y-68050000D03*
X227600000Y-69500000D03*
X225900000Y-69500000D03*
X228850000Y-74800000D03*
X227150000Y-74800000D03*
X230600000Y-69500000D03*
X228900000Y-69500000D03*
X225750000Y-74800000D03*
X224050000Y-74800000D03*
X225200000Y-76450000D03*
X225200000Y-78150000D03*
X223500000Y-73150000D03*
X223500000Y-71450000D03*
X225250000Y-97850000D03*
X225250000Y-96150000D03*
X220500000Y-89400000D03*
X220500000Y-91100000D03*
X218750000Y-91100000D03*
X218750000Y-89400000D03*
X221750000Y-97850000D03*
X221750000Y-96150000D03*
X223500000Y-97850000D03*
X223500000Y-96150000D03*
X217750000Y-96150000D03*
X217750000Y-97850000D03*
X225100000Y-103000000D03*
X223400000Y-103000000D03*
X225100000Y-101250000D03*
X223400000Y-101250000D03*
X216900000Y-102750000D03*
X218600000Y-102750000D03*
X215000000Y-94350000D03*
X215000000Y-92650000D03*
X214150000Y-100500000D03*
X215850000Y-100500000D03*
X216900000Y-100500000D03*
X218600000Y-100500000D03*
X214150000Y-102750000D03*
X215850000Y-102750000D03*
X226100000Y-56500000D03*
X224400000Y-56500000D03*
X309600000Y-122500000D03*
X307900000Y-122500000D03*
X224400000Y-60250000D03*
X226100000Y-60250000D03*
X212250000Y-62150000D03*
X212250000Y-63850000D03*
X218600000Y-60750000D03*
X216900000Y-60750000D03*
X208750000Y-80650000D03*
X208750000Y-82350000D03*
X213650000Y-69000000D03*
X215350000Y-69000000D03*
X209850000Y-69000000D03*
X208150000Y-69000000D03*
X210850000Y-74250000D03*
X209150000Y-74250000D03*
X212600000Y-69000000D03*
X210900000Y-69000000D03*
X207600000Y-74250000D03*
X205900000Y-74250000D03*
X207250000Y-76150000D03*
X207250000Y-77850000D03*
X206250000Y-72350000D03*
X206250000Y-70650000D03*
X211250000Y-97850000D03*
X211250000Y-96150000D03*
X201350000Y-94400000D03*
X201350000Y-92700000D03*
X207750000Y-89400000D03*
X207750000Y-91100000D03*
X205750000Y-91100000D03*
X205750000Y-89400000D03*
X209500000Y-97850000D03*
X209500000Y-96150000D03*
X207750000Y-97850000D03*
X207750000Y-96150000D03*
X211100000Y-101500000D03*
X209400000Y-101500000D03*
X211100000Y-103000000D03*
X209400000Y-103000000D03*
X203750000Y-96150000D03*
X203750000Y-97850000D03*
X200150000Y-100500000D03*
X201850000Y-100500000D03*
X202900000Y-100500000D03*
X204600000Y-100500000D03*
X202900000Y-102750000D03*
X204600000Y-102750000D03*
X200150000Y-102750000D03*
X201850000Y-102750000D03*
X229600000Y-56500000D03*
X227900000Y-56500000D03*
X181500000Y-62650000D03*
X181500000Y-64350000D03*
X142250000Y-64550000D03*
X140550000Y-64550000D03*
X246250000Y-57900000D03*
X246250000Y-59600000D03*
X185750000Y-67100000D03*
X185750000Y-65400000D03*
X183500000Y-62650000D03*
X183500000Y-64350000D03*
X191400000Y-64000000D03*
X193100000Y-64000000D03*
X194100000Y-61750000D03*
X192400000Y-61750000D03*
X193000000Y-79250000D03*
X193000000Y-80950000D03*
X196150000Y-69000000D03*
X197850000Y-69000000D03*
X192350000Y-69000000D03*
X190650000Y-69000000D03*
X192850000Y-74250000D03*
X191150000Y-74250000D03*
X195100000Y-69000000D03*
X193400000Y-69000000D03*
X189600000Y-74250000D03*
X187900000Y-74250000D03*
X189000000Y-76150000D03*
X189000000Y-77850000D03*
X188750000Y-72350000D03*
X188750000Y-70650000D03*
X191750000Y-90850000D03*
X191750000Y-89150000D03*
X193500000Y-89150000D03*
X193500000Y-90850000D03*
X197500000Y-97850000D03*
X197500000Y-96150000D03*
X195500000Y-97850000D03*
X195500000Y-96150000D03*
X189750000Y-96150000D03*
X189750000Y-97850000D03*
X193750000Y-97850000D03*
X193750000Y-96150000D03*
X197100000Y-101750000D03*
X195400000Y-101750000D03*
X195400000Y-103250000D03*
X197100000Y-103250000D03*
X187000000Y-94350000D03*
X187000000Y-92650000D03*
X186150000Y-100250000D03*
X187850000Y-100250000D03*
X188900000Y-100250000D03*
X190600000Y-100250000D03*
X188900000Y-102500000D03*
X190600000Y-102500000D03*
X186150000Y-102500000D03*
X187850000Y-102500000D03*
X172250000Y-71100000D03*
X172250000Y-69400000D03*
X179250000Y-62650000D03*
X179250000Y-64350000D03*
X176500000Y-64350000D03*
X176500000Y-62650000D03*
X169250000Y-71100000D03*
X169250000Y-69400000D03*
X167500000Y-69400000D03*
X167500000Y-71100000D03*
X181400000Y-80000000D03*
X183100000Y-80000000D03*
X172250000Y-77850000D03*
X172250000Y-76150000D03*
X183100000Y-81750000D03*
X181400000Y-81750000D03*
X168250000Y-85850000D03*
X168250000Y-84150000D03*
X170500000Y-100600000D03*
X170500000Y-98900000D03*
X166750000Y-86900000D03*
X166750000Y-88600000D03*
X176250000Y-86900000D03*
X176250000Y-88600000D03*
X179600000Y-90500000D03*
X177900000Y-90500000D03*
X163400000Y-90500000D03*
X165100000Y-90500000D03*
X179600000Y-109500000D03*
X177900000Y-109500000D03*
X178500000Y-103600000D03*
X178500000Y-101900000D03*
X168350000Y-91500000D03*
X166650000Y-91500000D03*
X170500000Y-93100000D03*
X170500000Y-91400000D03*
X175750000Y-91400000D03*
X175750000Y-93100000D03*
X174000000Y-91400000D03*
X174000000Y-93100000D03*
X179600000Y-107500000D03*
X177900000Y-107500000D03*
X178500000Y-98900000D03*
X178500000Y-100600000D03*
X173000000Y-98900000D03*
X173000000Y-100600000D03*
X183100000Y-87000000D03*
X181400000Y-87000000D03*
X181400000Y-90500000D03*
X183100000Y-90500000D03*
X162000000Y-102350000D03*
X162000000Y-100650000D03*
X168350000Y-100750000D03*
X166650000Y-100750000D03*
X166650000Y-102500000D03*
X168350000Y-102500000D03*
X165500000Y-106100000D03*
X165500000Y-104400000D03*
X156300000Y-75600000D03*
X156300000Y-73900000D03*
X158000000Y-81600000D03*
X158000000Y-79900000D03*
X155250000Y-64100000D03*
X155250000Y-62400000D03*
X153500000Y-62400000D03*
X153500000Y-64100000D03*
X322600000Y-98000000D03*
X320900000Y-98000000D03*
X152700000Y-81500000D03*
X152700000Y-79800000D03*
X336150000Y-70000000D03*
X337850000Y-70000000D03*
X160000000Y-84600000D03*
X160000000Y-82900000D03*
X160000000Y-87350000D03*
X160000000Y-85650000D03*
X154400000Y-91250000D03*
X156100000Y-91250000D03*
X312350000Y-62750000D03*
X310650000Y-62750000D03*
X153350000Y-91250000D03*
X151650000Y-91250000D03*
X157500000Y-87900000D03*
X157500000Y-89600000D03*
X146500000Y-89900000D03*
X146500000Y-91600000D03*
X289150000Y-60250000D03*
X290850000Y-60250000D03*
X140800000Y-87200000D03*
X140800000Y-85500000D03*
X149850000Y-91250000D03*
X148150000Y-91250000D03*
X287250000Y-61650000D03*
X287250000Y-63350000D03*
X142750000Y-88100000D03*
X142750000Y-86400000D03*
X327400000Y-72000000D03*
X329100000Y-72000000D03*
X146250000Y-88100000D03*
X146250000Y-86400000D03*
X331750000Y-68400000D03*
X331750000Y-70100000D03*
X149650000Y-106000000D03*
X151350000Y-106000000D03*
X324600000Y-72000000D03*
X322900000Y-72000000D03*
X148600000Y-104250000D03*
X146900000Y-104250000D03*
X320750000Y-68400000D03*
X320750000Y-70100000D03*
X148600000Y-102500000D03*
X146900000Y-102500000D03*
X322250000Y-66850000D03*
X322250000Y-65150000D03*
X144500000Y-102350000D03*
X144500000Y-100650000D03*
X330000000Y-66850000D03*
X330000000Y-65150000D03*
X142600000Y-98500000D03*
X140900000Y-98500000D03*
X334000000Y-76900000D03*
X334000000Y-78600000D03*
X146150000Y-96000000D03*
X147850000Y-96000000D03*
X327000000Y-78600000D03*
X327000000Y-76900000D03*
X134900000Y-103250000D03*
X136600000Y-103250000D03*
X321750000Y-78850000D03*
X321750000Y-77150000D03*
X139250000Y-102350000D03*
X139250000Y-100650000D03*
X323500000Y-81850000D03*
X323500000Y-80150000D03*
X141350000Y-104250000D03*
X139650000Y-104250000D03*
X330500000Y-83900000D03*
X330500000Y-85600000D03*
X144350000Y-104250000D03*
X142650000Y-104250000D03*
X334000000Y-81850000D03*
X334000000Y-80150000D03*
X334000000Y-82900000D03*
X334000000Y-84600000D03*
X335000000Y-88850000D03*
X335000000Y-87150000D03*
X335000000Y-91600000D03*
X335000000Y-89900000D03*
X335750000Y-78600000D03*
X335750000Y-76900000D03*
X339250000Y-76900000D03*
X339250000Y-78600000D03*
X336000000Y-81850000D03*
X336000000Y-80150000D03*
X338750000Y-93600000D03*
X338750000Y-91900000D03*
X338750000Y-94650000D03*
X338750000Y-96350000D03*
X318250000Y-90150000D03*
X318250000Y-91850000D03*
X331650000Y-95000000D03*
X333350000Y-95000000D03*
X332350000Y-93000000D03*
X330650000Y-93000000D03*
X337250000Y-98850000D03*
X338950000Y-98850000D03*
X334750000Y-100600000D03*
X334750000Y-98900000D03*
X333350000Y-102250000D03*
X331650000Y-102250000D03*
X330100000Y-96500000D03*
X328400000Y-96500000D03*
X320900000Y-100500000D03*
X322600000Y-100500000D03*
X216600000Y-124250000D03*
X214900000Y-124250000D03*
X316150000Y-100500000D03*
X317850000Y-100500000D03*
X220350000Y-124250000D03*
X218650000Y-124250000D03*
X328400000Y-100000000D03*
X330100000Y-100000000D03*
X208750000Y-122650000D03*
X208750000Y-124350000D03*
X328400000Y-98250000D03*
X330100000Y-98250000D03*
X211250000Y-124350000D03*
X211250000Y-122650000D03*
X299250000Y-69400000D03*
X299250000Y-71100000D03*
X290850000Y-63750000D03*
X289150000Y-63750000D03*
X206250000Y-122650000D03*
X206250000Y-124350000D03*
X295150000Y-86750000D03*
X296850000Y-86750000D03*
X299250000Y-72150000D03*
X299250000Y-73850000D03*
X301000000Y-82100000D03*
X301000000Y-80400000D03*
X213250000Y-119600000D03*
X213250000Y-117900000D03*
X299250000Y-76600000D03*
X299250000Y-74900000D03*
X142250000Y-62750000D03*
X140550000Y-62750000D03*
X287100000Y-98750000D03*
X285400000Y-98750000D03*
X301000000Y-73850000D03*
X301000000Y-72150000D03*
X133700000Y-77750000D03*
X133700000Y-76050000D03*
X302750000Y-72150000D03*
X302750000Y-73850000D03*
X137900000Y-72700000D03*
X137900000Y-71000000D03*
X297500000Y-69400000D03*
X297500000Y-71100000D03*
X143350000Y-68750000D03*
X145050000Y-68750000D03*
X293000000Y-62400000D03*
X293000000Y-64100000D03*
X145050000Y-67050000D03*
X143350000Y-67050000D03*
X281000000Y-60850000D03*
X281000000Y-59150000D03*
X133000000Y-70100000D03*
X133000000Y-68400000D03*
X284350000Y-64250000D03*
X282650000Y-64250000D03*
X309350000Y-75000000D03*
X307650000Y-75000000D03*
X307650000Y-77000000D03*
X309350000Y-77000000D03*
X140600000Y-69000000D03*
X138900000Y-69000000D03*
X308500000Y-82400000D03*
X308500000Y-84100000D03*
X135700000Y-76000000D03*
X135700000Y-77700000D03*
X314250000Y-73150000D03*
X314250000Y-74850000D03*
X132000000Y-66850000D03*
X132000000Y-65150000D03*
X309350000Y-73000000D03*
X307650000Y-73000000D03*
X312350000Y-75000000D03*
X310650000Y-75000000D03*
X312000000Y-82400000D03*
X312000000Y-84100000D03*
X314250000Y-78650000D03*
X314250000Y-80350000D03*
X238300000Y-84800000D03*
X240000000Y-84800000D03*
X305000000Y-82400000D03*
X305000000Y-84100000D03*
X236100000Y-92500000D03*
X234400000Y-92500000D03*
X253750000Y-113600000D03*
X253750000Y-111900000D03*
X300600000Y-105000000D03*
X298900000Y-105000000D03*
X256100000Y-115500000D03*
X254400000Y-115500000D03*
X297600000Y-105000000D03*
X295900000Y-105000000D03*
X250750000Y-115400000D03*
X250750000Y-117100000D03*
X309600000Y-117250000D03*
X307900000Y-117250000D03*
X252500000Y-117100000D03*
X252500000Y-115400000D03*
X308350000Y-115500000D03*
X306650000Y-115500000D03*
X125750000Y-68400000D03*
X125750000Y-70100000D03*
X302100000Y-118750000D03*
X300400000Y-118750000D03*
X127750000Y-68400000D03*
X127750000Y-70100000D03*
X132000000Y-61900000D03*
X132000000Y-63600000D03*
X317850000Y-127000000D03*
X316150000Y-127000000D03*
X315100000Y-127000000D03*
X313400000Y-127000000D03*
X310900000Y-120750000D03*
X312600000Y-120750000D03*
X315850000Y-91250000D03*
X314150000Y-91250000D03*
X138500000Y-58400000D03*
X138500000Y-60100000D03*
X315850000Y-89500000D03*
X314150000Y-89500000D03*
X309500000Y-90900000D03*
X309500000Y-92600000D03*
X309350000Y-96000000D03*
X307650000Y-96000000D03*
X302500000Y-98400000D03*
X302500000Y-100100000D03*
X134900000Y-56000000D03*
X136600000Y-56000000D03*
X302250000Y-104900000D03*
X302250000Y-106600000D03*
X133600000Y-56000000D03*
X131900000Y-56000000D03*
X304500000Y-108350000D03*
X304500000Y-106650000D03*
X310750000Y-115350000D03*
X310750000Y-113650000D03*
X302350000Y-109000000D03*
X300650000Y-109000000D03*
X311500000Y-112100000D03*
X311500000Y-110400000D03*
X311750000Y-103400000D03*
X311750000Y-105100000D03*
X326500000Y-108650000D03*
X326500000Y-110350000D03*
X322250000Y-112650000D03*
X322250000Y-114350000D03*
X317650000Y-113500000D03*
X319350000Y-113500000D03*
X286650000Y-92750000D03*
X288350000Y-92750000D03*
X355400000Y-133750000D03*
X357100000Y-133750000D03*
X347750000Y-130900000D03*
X347750000Y-132600000D03*
X364750000Y-135600000D03*
X364750000Y-133900000D03*
X349750000Y-148850000D03*
X349750000Y-147150000D03*
X352900000Y-150000000D03*
X354600000Y-150000000D03*
X354100000Y-152000000D03*
X352400000Y-152000000D03*
X356500000Y-147350000D03*
X356500000Y-145650000D03*
X356500000Y-151900000D03*
X356500000Y-153600000D03*
X360900000Y-150250000D03*
X362600000Y-150250000D03*
X365600000Y-150250000D03*
X363900000Y-150250000D03*
X294350000Y-108500000D03*
X292650000Y-108500000D03*
X291100000Y-106500000D03*
X289400000Y-106500000D03*
X278750000Y-119850000D03*
X278750000Y-118150000D03*
X280500000Y-118150000D03*
X280500000Y-119850000D03*
X309600000Y-125250000D03*
X307900000Y-125250000D03*
X300100000Y-127250000D03*
X298400000Y-127250000D03*
X300100000Y-122000000D03*
X298400000Y-122000000D03*
X301150000Y-125500000D03*
X302850000Y-125500000D03*
X295150000Y-127250000D03*
X296850000Y-127250000D03*
X301150000Y-123750000D03*
X302850000Y-123750000D03*
X276350000Y-122250000D03*
X276350000Y-123950000D03*
X241800000Y-102850000D03*
X241800000Y-101150000D03*
X277500000Y-127400000D03*
X277500000Y-129100000D03*
X252500000Y-100400000D03*
X252500000Y-102100000D03*
X283000000Y-127400000D03*
X283000000Y-129100000D03*
X274000000Y-129100000D03*
X274000000Y-127400000D03*
X289400000Y-108500000D03*
X291100000Y-108500000D03*
X281000000Y-127400000D03*
X281000000Y-129100000D03*
X294100000Y-122000000D03*
X292400000Y-122000000D03*
X286750000Y-129100000D03*
X286750000Y-127400000D03*
X290250000Y-129100000D03*
X290250000Y-127400000D03*
X292400000Y-123750000D03*
X294100000Y-123750000D03*
X254250000Y-97400000D03*
X254250000Y-99100000D03*
X292400000Y-125500000D03*
X294100000Y-125500000D03*
X273000000Y-100100000D03*
X273000000Y-98400000D03*
X288500000Y-127400000D03*
X288500000Y-129100000D03*
X275500000Y-98400000D03*
X275500000Y-100100000D03*
X298500000Y-89650000D03*
X298500000Y-91350000D03*
X298350000Y-93250000D03*
X296650000Y-93250000D03*
X289000000Y-94650000D03*
X289000000Y-96350000D03*
X289000000Y-97900000D03*
X289000000Y-99600000D03*
X293000000Y-92100000D03*
X293000000Y-90400000D03*
X288350000Y-91000000D03*
X286650000Y-91000000D03*
X288650000Y-88750000D03*
X290350000Y-88750000D03*
X281500000Y-81150000D03*
X281500000Y-82850000D03*
X287250000Y-71850000D03*
X287250000Y-70150000D03*
X285000000Y-81150000D03*
X285000000Y-82850000D03*
X287250000Y-73400000D03*
X287250000Y-75100000D03*
X285500000Y-73400000D03*
X285500000Y-75100000D03*
X283250000Y-73400000D03*
X283250000Y-75100000D03*
X283250000Y-76650000D03*
X283250000Y-78350000D03*
X281500000Y-75150000D03*
X281500000Y-76850000D03*
X281500000Y-77900000D03*
X281500000Y-79600000D03*
X324000000Y-102650000D03*
X324000000Y-104350000D03*
X321250000Y-88850000D03*
X321250000Y-87150000D03*
X321400000Y-120250000D03*
X323100000Y-120250000D03*
X281650000Y-103750000D03*
X283350000Y-103750000D03*
X360150000Y-124000000D03*
X361850000Y-124000000D03*
X316250000Y-85150000D03*
X316250000Y-86850000D03*
X360150000Y-122250000D03*
X361850000Y-122250000D03*
X325750000Y-104400000D03*
X325750000Y-106100000D03*
X360250000Y-118900000D03*
X360250000Y-120600000D03*
X321250000Y-85850000D03*
X321250000Y-84150000D03*
X355750000Y-121400000D03*
X355750000Y-123100000D03*
X324750000Y-118650000D03*
X324750000Y-120350000D03*
X360150000Y-116600900D03*
X360150000Y-114900900D03*
X284000000Y-106150000D03*
X284000000Y-107850000D03*
X354800000Y-116600000D03*
X354800000Y-114900000D03*
X332000000Y-104650000D03*
X332000000Y-106350000D03*
X358400000Y-116600000D03*
X358400000Y-114900000D03*
X316250000Y-82400000D03*
X316250000Y-84100000D03*
X344950000Y-119900000D03*
X344950000Y-118200000D03*
X317850000Y-125000000D03*
X316150000Y-125000000D03*
X356600000Y-116600000D03*
X356600000Y-114900000D03*
X288250000Y-110900000D03*
X288250000Y-112600000D03*
X353000000Y-116600000D03*
X353000000Y-114900000D03*
X286500000Y-112600000D03*
X286500000Y-110900000D03*
X354100000Y-121350000D03*
X354100000Y-119650000D03*
X321000000Y-127350000D03*
X321000000Y-125650000D03*
X346600000Y-119900000D03*
X346600000Y-118200000D03*
X319600000Y-81500000D03*
X317900000Y-81500000D03*
X352500000Y-121350000D03*
X352500000Y-119650000D03*
X335350000Y-104750000D03*
X333650000Y-104750000D03*
X357400000Y-121350000D03*
X357400000Y-119650000D03*
X143000000Y-91600000D03*
X143000000Y-89900000D03*
X218600000Y-58850000D03*
X216900000Y-58850000D03*
X213000000Y-124350000D03*
X213000000Y-122650000D03*
X131250000Y-68400000D03*
X131250000Y-70100000D03*
X133650000Y-136750000D03*
X135350000Y-136750000D03*
X137900000Y-76750000D03*
X139600000Y-76750000D03*
X112200000Y-121000000D03*
X112200000Y-119300000D03*
X98750000Y-79400000D03*
X97050000Y-79400000D03*
X303400000Y-130500000D03*
X305100000Y-130500000D03*
X160650000Y-115250000D03*
X162350000Y-115250000D03*
X126150000Y-117250000D03*
X127850000Y-117250000D03*
X127150000Y-113250000D03*
X128850000Y-113250000D03*
X100050000Y-79400000D03*
X101750000Y-79400000D03*
X311400000Y-146000000D03*
X313100000Y-146000000D03*
X108000000Y-71650000D03*
X106300000Y-71650000D03*
X78150000Y-118250000D03*
X78150000Y-116550000D03*
X80050000Y-92550000D03*
X81750000Y-92550000D03*
X249500000Y-62900000D03*
X249500000Y-64600000D03*
X262000000Y-95850000D03*
X262000000Y-94150000D03*
X266650000Y-69000000D03*
X268350000Y-69000000D03*
X263650000Y-70750000D03*
X265350000Y-70750000D03*
X260750000Y-56150000D03*
X260750000Y-57850000D03*
X262000000Y-96900000D03*
X262000000Y-98600000D03*
X264750000Y-80350000D03*
X264750000Y-78650000D03*
X270000000Y-84150000D03*
X270000000Y-85850000D03*
X277750000Y-82350000D03*
X277750000Y-80650000D03*
X265350000Y-97250000D03*
X263650000Y-97250000D03*
X265650000Y-100750000D03*
X267350000Y-100750000D03*
X256000000Y-99100000D03*
X256000000Y-97400000D03*
X254250000Y-100400000D03*
X254250000Y-102100000D03*
X270000000Y-90100000D03*
X270000000Y-88400000D03*
X278500000Y-95150000D03*
X278500000Y-96850000D03*
X273500000Y-72600000D03*
X273500000Y-70900000D03*
X271250000Y-67100000D03*
X271250000Y-65400000D03*
X273000000Y-65400000D03*
X273000000Y-67100000D03*
X277250000Y-101650000D03*
X277250000Y-103350000D03*
X251250000Y-105350000D03*
X251250000Y-103650000D03*
X249500000Y-103650000D03*
X249500000Y-105350000D03*
X254250000Y-103650000D03*
X254250000Y-105350000D03*
X252850000Y-69500000D03*
X251150000Y-69500000D03*
X248250000Y-87400000D03*
X248250000Y-89100000D03*
X245950000Y-85050000D03*
X245950000Y-83350000D03*
X241100000Y-81250000D03*
X239400000Y-81250000D03*
X239750000Y-76350000D03*
X239750000Y-74650000D03*
X243850000Y-81250000D03*
X242150000Y-81250000D03*
X239800000Y-104650000D03*
X239800000Y-102950000D03*
X227750000Y-94600000D03*
X227750000Y-92900000D03*
X235650900Y-87250000D03*
X233950900Y-87250000D03*
X229500000Y-92900000D03*
X229500000Y-94600000D03*
X231500000Y-98600000D03*
X231500000Y-96900000D03*
X235000000Y-60350000D03*
X235000000Y-58650000D03*
X236000000Y-56850000D03*
X236000000Y-55150000D03*
X228700000Y-76450000D03*
X228700000Y-78150000D03*
X229800000Y-82350000D03*
X229800000Y-80650000D03*
X226950000Y-78150000D03*
X226950000Y-76450000D03*
X220450000Y-87700000D03*
X218750000Y-87700000D03*
X222250000Y-91100000D03*
X222250000Y-89400000D03*
X219750000Y-94350000D03*
X219750000Y-92650000D03*
X217750000Y-92650000D03*
X217750000Y-94350000D03*
X223400000Y-99500000D03*
X225100000Y-99500000D03*
X226100000Y-58250000D03*
X224400000Y-58250000D03*
X211000000Y-76150000D03*
X211000000Y-77850000D03*
X216150000Y-74100000D03*
X214450000Y-74100000D03*
X303000000Y-62400000D03*
X303000000Y-64100000D03*
X209250000Y-77850000D03*
X209250000Y-76150000D03*
X212550000Y-82100000D03*
X210850000Y-82100000D03*
X209750000Y-91100000D03*
X209750000Y-89400000D03*
X203750000Y-92650000D03*
X203750000Y-94350000D03*
X205750000Y-94350000D03*
X205750000Y-92650000D03*
X209400000Y-99750000D03*
X211100000Y-99750000D03*
X185400000Y-68750000D03*
X187100000Y-68750000D03*
X333500000Y-70100000D03*
X333500000Y-68400000D03*
X185750000Y-64350000D03*
X185750000Y-62650000D03*
X322900000Y-74250000D03*
X324600000Y-74250000D03*
X319250000Y-70100000D03*
X319250000Y-68400000D03*
X193000000Y-76150000D03*
X193000000Y-77850000D03*
X289150000Y-62000000D03*
X290850000Y-62000000D03*
X198850000Y-74250000D03*
X197150000Y-74250000D03*
X281000000Y-62650000D03*
X281000000Y-64350000D03*
X191250000Y-77850000D03*
X191250000Y-76150000D03*
X195500000Y-87350000D03*
X195500000Y-85650000D03*
X329100000Y-74250000D03*
X327400000Y-74250000D03*
X195500000Y-90850000D03*
X195500000Y-89150000D03*
X325250000Y-80150000D03*
X325250000Y-81850000D03*
X189750000Y-92650000D03*
X189750000Y-94350000D03*
X323500000Y-83150000D03*
X323500000Y-84850000D03*
X191750000Y-94350000D03*
X191750000Y-92650000D03*
X331500000Y-87150000D03*
X331500000Y-88850000D03*
X195400000Y-100000000D03*
X197100000Y-100000000D03*
X327000000Y-80150000D03*
X327000000Y-81850000D03*
X174000000Y-71100000D03*
X174000000Y-69400000D03*
X323500000Y-85900000D03*
X323500000Y-87600000D03*
X168900000Y-72750000D03*
X170600000Y-72750000D03*
X337500000Y-76900000D03*
X337500000Y-78600000D03*
X333250000Y-87150000D03*
X333250000Y-88850000D03*
X174000000Y-76150000D03*
X174000000Y-77850000D03*
X339250000Y-82900000D03*
X339250000Y-84600000D03*
X181400000Y-83500000D03*
X183100000Y-83500000D03*
X338750000Y-86900000D03*
X338750000Y-88600000D03*
X168250000Y-83100000D03*
X168250000Y-81400000D03*
X339250000Y-81600000D03*
X339250000Y-79900000D03*
X177900000Y-85250000D03*
X179600000Y-85250000D03*
X165100000Y-87000000D03*
X163400000Y-87000000D03*
X163400000Y-88750000D03*
X165100000Y-88750000D03*
X298500000Y-86400000D03*
X298500000Y-88100000D03*
X177900000Y-87000000D03*
X179600000Y-87000000D03*
X299250000Y-77650000D03*
X299250000Y-79350000D03*
X179600000Y-88750000D03*
X177900000Y-88750000D03*
X301000000Y-74900000D03*
X301000000Y-76600000D03*
X172250000Y-91400000D03*
X172250000Y-93100000D03*
X304500000Y-73850000D03*
X304500000Y-72150000D03*
X183100000Y-112750000D03*
X181400000Y-112750000D03*
X314250000Y-75900000D03*
X314250000Y-77600000D03*
X313750000Y-82400000D03*
X313750000Y-84100000D03*
X183100000Y-111000000D03*
X181400000Y-111000000D03*
X313750000Y-85150000D03*
X313750000Y-86850000D03*
X183100000Y-85250000D03*
X181400000Y-85250000D03*
X306750000Y-82400000D03*
X306750000Y-84100000D03*
X181400000Y-88750000D03*
X183100000Y-88750000D03*
X304750000Y-89650000D03*
X304750000Y-91350000D03*
X303850000Y-114000000D03*
X302150000Y-114000000D03*
X306750000Y-87150000D03*
X306750000Y-88850000D03*
X300500000Y-88150000D03*
X300500000Y-89850000D03*
X154000000Y-75600000D03*
X154000000Y-73900000D03*
X307650000Y-94250000D03*
X309350000Y-94250000D03*
X307900000Y-119000000D03*
X309600000Y-119000000D03*
X160000000Y-81600000D03*
X160000000Y-79900000D03*
X312350000Y-127000000D03*
X310650000Y-127000000D03*
X314250000Y-122900000D03*
X314250000Y-124600000D03*
X322400000Y-107500000D03*
X324100000Y-107500000D03*
X158850000Y-91250000D03*
X157150000Y-91250000D03*
X144750000Y-91600000D03*
X144750000Y-89900000D03*
X144500000Y-88100000D03*
X144500000Y-86400000D03*
X148600000Y-106000000D03*
X146900000Y-106000000D03*
X146150000Y-94250000D03*
X147850000Y-94250000D03*
X312000000Y-87600000D03*
X312000000Y-85900000D03*
X220900000Y-119050000D03*
X220900000Y-117350000D03*
X223850000Y-124250000D03*
X222150000Y-124250000D03*
X288750000Y-84400000D03*
X288750000Y-86100000D03*
X283250000Y-82850000D03*
X283250000Y-81150000D03*
X286750000Y-81150000D03*
X286750000Y-82850000D03*
X288750000Y-81150000D03*
X288750000Y-82850000D03*
X129500000Y-70100000D03*
X129500000Y-68400000D03*
X134000000Y-63600000D03*
X134000000Y-61900000D03*
X364750000Y-132600000D03*
X364750000Y-130900000D03*
X363150000Y-148500000D03*
X364850000Y-148500000D03*
X346000000Y-132600000D03*
X346000000Y-130900000D03*
X309600000Y-127000000D03*
X307900000Y-127000000D03*
X301150000Y-127250000D03*
X302850000Y-127250000D03*
X309600000Y-120750000D03*
X307900000Y-120750000D03*
X301150000Y-122000000D03*
X302850000Y-122000000D03*
X296850000Y-125500000D03*
X295150000Y-125500000D03*
X296850000Y-123750000D03*
X295150000Y-123750000D03*
X284850000Y-119250000D03*
X283150000Y-119250000D03*
X266900000Y-126050000D03*
X266900000Y-127750000D03*
X279250000Y-127400000D03*
X279250000Y-129100000D03*
X295150000Y-122000000D03*
X296850000Y-122000000D03*
X285000000Y-127400000D03*
X285000000Y-129100000D03*
X292000000Y-127400000D03*
X292000000Y-129100000D03*
D39*
X70700360Y-89400000D03*
X75099640Y-89400000D03*
X75099640Y-111400000D03*
X70700360Y-111400000D03*
D35*
X188730000Y-80100000D03*
X191270000Y-81052500D03*
X191270000Y-79147500D03*
X204530000Y-81500000D03*
X207070000Y-82452500D03*
X207070000Y-80547500D03*
X222730000Y-81500000D03*
X225270000Y-82452500D03*
X225270000Y-80547500D03*
X327020000Y-96750000D03*
X324480000Y-95797500D03*
X324480000Y-97702500D03*
X272980000Y-102500000D03*
X275520000Y-103452500D03*
X275520000Y-101547500D03*
D34*
X270750000Y-105230000D03*
X269797500Y-107770000D03*
X271702500Y-107770000D03*
D35*
X97480000Y-57500000D03*
X100020000Y-58452500D03*
X100020000Y-56547500D03*
D34*
X255250000Y-92980000D03*
X254297500Y-95520000D03*
X256202500Y-95520000D03*
D35*
X250480000Y-94750000D03*
X253020000Y-95702500D03*
X253020000Y-93797500D03*
D18*
X254875000Y-76275000D03*
X254875000Y-74575000D03*
X259250000Y-92850000D03*
X259250000Y-91150000D03*
X258900000Y-69000000D03*
X260600000Y-69000000D03*
X273250000Y-108600000D03*
X273250000Y-106900000D03*
X274850000Y-105000000D03*
X273150000Y-105000000D03*
X188250000Y-82400000D03*
X189950000Y-82400000D03*
X266400000Y-75750000D03*
X268100000Y-75750000D03*
X204000000Y-83150000D03*
X204000000Y-84850000D03*
X222400000Y-83050000D03*
X222400000Y-84750000D03*
X106250000Y-58350000D03*
X106250000Y-56650000D03*
X101750000Y-56650000D03*
X101750000Y-58350000D03*
X92800000Y-69900000D03*
X94500000Y-69900000D03*
X69900000Y-125000000D03*
X69900000Y-123300000D03*
X71900000Y-122500000D03*
X71900000Y-120800000D03*
X113000000Y-75000000D03*
X113000000Y-73300000D03*
D40*
X133750000Y-111250000D03*
X133750000Y-115750000D03*
D41*
X140250000Y-111250000D03*
X140250000Y-115750000D03*
D40*
X313750000Y-111250000D03*
X313750000Y-115750000D03*
D41*
X320250000Y-111250000D03*
X320250000Y-115750000D03*
D40*
X295750000Y-111250000D03*
X295750000Y-115750000D03*
D41*
X302250000Y-111250000D03*
X302250000Y-115750000D03*
D40*
X277750000Y-111250000D03*
X277750000Y-115750000D03*
D41*
X284250000Y-111250000D03*
X284250000Y-115750000D03*
D40*
X259750000Y-111250000D03*
X259750000Y-115750000D03*
D41*
X266250000Y-111250000D03*
X266250000Y-115750000D03*
D40*
X241750000Y-111250000D03*
X241750000Y-115750000D03*
D41*
X248250000Y-111250000D03*
X248250000Y-115750000D03*
D40*
X223750000Y-111250000D03*
X223750000Y-115750000D03*
D41*
X230250000Y-111250000D03*
X230250000Y-115750000D03*
D40*
X205750000Y-111250000D03*
X205750000Y-115750000D03*
D41*
X212250000Y-111250000D03*
X212250000Y-115750000D03*
D40*
X187750000Y-111250000D03*
X187750000Y-115750000D03*
D41*
X194250000Y-111250000D03*
X194250000Y-115750000D03*
D40*
X331750000Y-111250000D03*
X331750000Y-115750000D03*
D41*
X338250000Y-111250000D03*
X338250000Y-115750000D03*
D40*
X169750000Y-111250000D03*
X169750000Y-115750000D03*
D41*
X176250000Y-111250000D03*
X176250000Y-115750000D03*
D40*
X151750000Y-111250000D03*
X151750000Y-115750000D03*
D41*
X158250000Y-111250000D03*
X158250000Y-115750000D03*
D42*
X82250000Y-132250000D03*
X86750000Y-132250000D03*
D43*
X82250000Y-125750000D03*
X86750000Y-125750000D03*
D40*
X81250000Y-90750000D03*
X81250000Y-95250000D03*
D41*
X87750000Y-90750000D03*
X87750000Y-95250000D03*
D40*
X331750000Y-126750000D03*
X331750000Y-131250000D03*
D41*
X338250000Y-126750000D03*
X338250000Y-131250000D03*
D44*
X289000000Y-114550000D03*
D26*
X290000000Y-117800000D03*
X288000000Y-117800000D03*
D44*
X263000000Y-110050000D03*
D26*
X264000000Y-113300000D03*
X262000000Y-113300000D03*
D44*
X218000000Y-117450000D03*
D26*
X217000000Y-114200000D03*
X219000000Y-114200000D03*
D44*
X269900000Y-129350000D03*
D26*
X268900000Y-126100000D03*
X270900000Y-126100000D03*
D45*
X349750000Y-144250000D03*
X363000000Y-144250000D03*
X349750000Y-153750000D03*
X363000000Y-153750000D03*
X77750000Y-77250000D03*
X91000000Y-77250000D03*
X77750000Y-86750000D03*
X91000000Y-86750000D03*
X105750000Y-90250000D03*
X119000000Y-90250000D03*
X105750000Y-99750000D03*
X119000000Y-99750000D03*
D46*
X263000000Y-59050360D03*
X263000000Y-63449640D03*
X208500000Y-59200360D03*
X208500000Y-63599640D03*
D16*
X328449640Y-62500000D03*
X324050360Y-62500000D03*
X178400360Y-71700000D03*
X182799640Y-71700000D03*
D46*
X173000000Y-56800360D03*
X173000000Y-61199640D03*
X155000000Y-99599640D03*
X155000000Y-95200360D03*
D16*
X365449640Y-140000000D03*
X361050360Y-140000000D03*
X315050360Y-62000000D03*
X319449640Y-62000000D03*
D46*
X344750000Y-107199640D03*
X344750000Y-102800360D03*
X318000000Y-77099640D03*
X318000000Y-72700360D03*
D16*
X339300360Y-138250000D03*
X343699640Y-138250000D03*
D46*
X266000000Y-94449640D03*
X266000000Y-90050360D03*
X307000000Y-63050360D03*
X307000000Y-67449640D03*
X292500000Y-85449640D03*
X292500000Y-81050360D03*
X291750000Y-74199640D03*
X291750000Y-69800360D03*
D16*
X240599640Y-97100000D03*
X236200360Y-97100000D03*
D46*
X235900000Y-73599640D03*
X235900000Y-69200360D03*
X216200000Y-86199640D03*
X216200000Y-81800360D03*
X202500000Y-73773640D03*
X202500000Y-69374360D03*
X200000000Y-85400360D03*
X200000000Y-89799640D03*
X164012000Y-76313640D03*
X164012000Y-71914360D03*
X164012000Y-80042360D03*
X164012000Y-84441640D03*
D16*
X128800360Y-86250000D03*
X133199640Y-86250000D03*
D46*
X339000000Y-101450360D03*
X339000000Y-105849640D03*
X182250000Y-100050360D03*
X182250000Y-104449640D03*
D16*
X325300360Y-113750000D03*
X329699640Y-113750000D03*
D46*
X201800000Y-115900360D03*
X201800000Y-120299640D03*
X131250000Y-95949640D03*
X131250000Y-91550360D03*
D16*
X130849640Y-73650000D03*
X126450360Y-73650000D03*
D46*
X299000000Y-63449640D03*
X299000000Y-59050360D03*
X219700000Y-70000360D03*
X219700000Y-74399640D03*
D47*
X347050860Y-152250000D03*
X343449140Y-152250000D03*
X347050860Y-147500000D03*
X343449140Y-147500000D03*
D48*
X283500000Y-97050860D03*
X283500000Y-93449140D03*
X348500000Y-125650860D03*
X348500000Y-122049140D03*
X355650000Y-139800860D03*
X355650000Y-136199140D03*
X238800000Y-87299140D03*
X238800000Y-90900860D03*
X209000000Y-116499140D03*
X209000000Y-120100860D03*
X286500000Y-101199140D03*
X286500000Y-104800860D03*
X292500000Y-98449140D03*
X292500000Y-102050860D03*
X282750000Y-90050860D03*
X282750000Y-86449140D03*
D47*
X309949140Y-99500000D03*
X313550860Y-99500000D03*
X309300860Y-103250000D03*
X305699140Y-103250000D03*
X314949140Y-118750000D03*
X318550860Y-118750000D03*
X309050860Y-112000000D03*
X305449140Y-112000000D03*
X300050860Y-98000000D03*
X296449140Y-98000000D03*
D48*
X299000000Y-111199140D03*
X299000000Y-114800860D03*
X161472000Y-65963140D03*
X161472000Y-69564860D03*
D47*
X157100860Y-70250000D03*
X153499140Y-70250000D03*
D48*
X149300000Y-67449140D03*
X149300000Y-71050860D03*
X182000000Y-96700860D03*
X182000000Y-93099140D03*
X317500000Y-97800860D03*
X317500000Y-94199140D03*
D47*
X328550860Y-92750000D03*
X324949140Y-92750000D03*
D48*
X327000000Y-87600860D03*
X327000000Y-83999140D03*
D47*
X281199140Y-70250000D03*
X284800860Y-70250000D03*
D48*
X243700000Y-89799140D03*
X243700000Y-93400860D03*
D47*
X265750860Y-104025000D03*
X262149140Y-104025000D03*
X269699140Y-62000000D03*
X273300860Y-62000000D03*
D48*
X217000000Y-111700860D03*
X217000000Y-108099140D03*
X347750000Y-139800860D03*
X347750000Y-136199140D03*
D49*
X215306000Y-122455400D03*
X215306000Y-121820400D03*
X215306000Y-121160000D03*
X215306000Y-120525000D03*
X220894000Y-120525000D03*
X220894000Y-121172700D03*
X220894000Y-121820400D03*
X220894000Y-122468100D03*
X244056000Y-100705400D03*
X244056000Y-100070400D03*
X244056000Y-99410000D03*
X244056000Y-98775000D03*
X249644000Y-98775000D03*
X249644000Y-99422700D03*
X249644000Y-100070400D03*
X249644000Y-100718100D03*
X242056000Y-79705400D03*
X242056000Y-79070400D03*
X242056000Y-78410000D03*
X242056000Y-77775000D03*
X247644000Y-77775000D03*
X247644000Y-78422700D03*
X247644000Y-79070400D03*
X247644000Y-79718100D03*
X251556000Y-67705400D03*
X251556000Y-67070400D03*
X251556000Y-66410000D03*
X251556000Y-65775000D03*
X257144000Y-65775000D03*
X257144000Y-66422700D03*
X257144000Y-67070400D03*
X257144000Y-67718100D03*
X230944000Y-71044600D03*
X230944000Y-71679600D03*
X230944000Y-72340000D03*
X230944000Y-72975000D03*
X225356000Y-72975000D03*
X225356000Y-72327300D03*
X225356000Y-71679600D03*
X225356000Y-71031900D03*
X213944000Y-70794600D03*
X213944000Y-71429600D03*
X213944000Y-72090000D03*
X213944000Y-72725000D03*
X208356000Y-72725000D03*
X208356000Y-72077300D03*
X208356000Y-71429600D03*
X208356000Y-70781900D03*
X224306000Y-63705400D03*
X224306000Y-63070400D03*
X224306000Y-62410000D03*
X224306000Y-61775000D03*
X229894000Y-61775000D03*
X229894000Y-62422700D03*
X229894000Y-63070400D03*
X229894000Y-63718100D03*
X196444000Y-70544600D03*
X196444000Y-71179600D03*
X196444000Y-71840000D03*
X196444000Y-72475000D03*
X190856000Y-72475000D03*
X190856000Y-71827300D03*
X190856000Y-71179600D03*
X190856000Y-70531900D03*
X174444000Y-88044600D03*
X174444000Y-88679600D03*
X174444000Y-89340000D03*
X174444000Y-89975000D03*
X168856000Y-89975000D03*
X168856000Y-89327300D03*
X168856000Y-88679600D03*
X168856000Y-88031900D03*
X177806000Y-68205400D03*
X177806000Y-67570400D03*
X177806000Y-66910000D03*
X177806000Y-66275000D03*
X183394000Y-66275000D03*
X183394000Y-66922700D03*
X183394000Y-67570400D03*
X183394000Y-68218100D03*
X149806000Y-89455400D03*
X149806000Y-88820400D03*
X149806000Y-88160000D03*
X149806000Y-87525000D03*
X155394000Y-87525000D03*
X155394000Y-88172700D03*
X155394000Y-88820400D03*
X155394000Y-89468100D03*
X323056000Y-69955400D03*
X323056000Y-69320400D03*
X323056000Y-68660000D03*
X323056000Y-68025000D03*
X328644000Y-68025000D03*
X328644000Y-68672700D03*
X328644000Y-69320400D03*
X328644000Y-69968100D03*
X287056000Y-67455400D03*
X287056000Y-66820400D03*
X287056000Y-66160000D03*
X287056000Y-65525000D03*
X292644000Y-65525000D03*
X292644000Y-66172700D03*
X292644000Y-66820400D03*
X292644000Y-67468100D03*
X311944000Y-78794600D03*
X311944000Y-79429600D03*
X311944000Y-80090000D03*
X311944000Y-80725000D03*
X306356000Y-80725000D03*
X306356000Y-80077300D03*
X306356000Y-79429600D03*
X306356000Y-78781900D03*
D50*
X304294600Y-121556000D03*
X304929600Y-121556000D03*
X305590000Y-121556000D03*
X306225000Y-121556000D03*
X306225000Y-127144000D03*
X305577300Y-127144000D03*
X304929600Y-127144000D03*
X304281900Y-127144000D03*
D49*
X285556000Y-78455400D03*
X285556000Y-77820400D03*
X285556000Y-77160000D03*
X285556000Y-76525000D03*
X291144000Y-76525000D03*
X291144000Y-77172700D03*
X291144000Y-77820400D03*
X291144000Y-78468100D03*
X121694000Y-121294600D03*
X121694000Y-121929600D03*
X121694000Y-122590000D03*
X121694000Y-123225000D03*
X116106000Y-123225000D03*
X116106000Y-122577300D03*
X116106000Y-121929600D03*
X116106000Y-121281900D03*
X353556000Y-132205400D03*
X353556000Y-131570400D03*
X353556000Y-130910000D03*
X353556000Y-130275000D03*
X359144000Y-130275000D03*
X359144000Y-130922700D03*
X359144000Y-131570400D03*
X359144000Y-132218100D03*
D51*
X127800000Y-134775000D03*
X127800000Y-134125000D03*
X127800000Y-133475000D03*
X127800000Y-132825000D03*
X127800000Y-132175000D03*
X127800000Y-131525000D03*
X127800000Y-130875000D03*
X127800000Y-130225000D03*
X133700000Y-130225000D03*
X133700000Y-130875000D03*
X133700000Y-131525000D03*
X133700000Y-132175000D03*
X133700000Y-132825000D03*
X133700000Y-133475000D03*
X133700000Y-134125000D03*
X133700000Y-134775000D03*
X145700000Y-77975000D03*
X145700000Y-78625000D03*
X145700000Y-79275000D03*
X145700000Y-79925000D03*
X145700000Y-80575000D03*
X145700000Y-81225000D03*
X145700000Y-81875000D03*
X145700000Y-82525000D03*
X139800000Y-82525000D03*
X139800000Y-81875000D03*
X139800000Y-81225000D03*
X139800000Y-80575000D03*
X139800000Y-79925000D03*
X139800000Y-79275000D03*
X139800000Y-78625000D03*
X139800000Y-77975000D03*
D52*
X243475000Y-122800000D03*
X244125000Y-122800000D03*
X244775000Y-122800000D03*
X245425000Y-122800000D03*
X246075000Y-122800000D03*
X246725000Y-122800000D03*
X247375000Y-122800000D03*
X248025000Y-122800000D03*
X248025000Y-128700000D03*
X247375000Y-128700000D03*
X246725000Y-128700000D03*
X246075000Y-128700000D03*
X245425000Y-128700000D03*
X244775000Y-128700000D03*
X244125000Y-128700000D03*
X243475000Y-128700000D03*
X124225000Y-99550000D03*
X124875000Y-99550000D03*
X125525000Y-99550000D03*
X126175000Y-99550000D03*
X126825000Y-99550000D03*
X127475000Y-99550000D03*
X128125000Y-99550000D03*
X128775000Y-99550000D03*
X128775000Y-105450000D03*
X128125000Y-105450000D03*
X127475000Y-105450000D03*
X126825000Y-105450000D03*
X126175000Y-105450000D03*
X125525000Y-105450000D03*
X124875000Y-105450000D03*
X124225000Y-105450000D03*
X81975000Y-79050000D03*
X82625000Y-79050000D03*
X83275000Y-79050000D03*
X83925000Y-79050000D03*
X84575000Y-79050000D03*
X85225000Y-79050000D03*
X85875000Y-79050000D03*
X86525000Y-79050000D03*
X86525000Y-84950000D03*
X85875000Y-84950000D03*
X85225000Y-84950000D03*
X84575000Y-84950000D03*
X83925000Y-84950000D03*
X83275000Y-84950000D03*
X82625000Y-84950000D03*
X81975000Y-84950000D03*
D51*
X309450000Y-131975000D03*
X309450000Y-132625000D03*
X309450000Y-133275000D03*
X309450000Y-133925000D03*
X309450000Y-134575000D03*
X309450000Y-135225000D03*
X309450000Y-135875000D03*
X309450000Y-136525000D03*
X303550000Y-136525000D03*
X303550000Y-135875000D03*
X303550000Y-135225000D03*
X303550000Y-134575000D03*
X303550000Y-133925000D03*
X303550000Y-133275000D03*
X303550000Y-132625000D03*
X303550000Y-131975000D03*
X166700000Y-118975000D03*
X166700000Y-119625000D03*
X166700000Y-120275000D03*
X166700000Y-120925000D03*
X166700000Y-121575000D03*
X166700000Y-122225000D03*
X166700000Y-122875000D03*
X166700000Y-123525000D03*
X160800000Y-123525000D03*
X160800000Y-122875000D03*
X160800000Y-122225000D03*
X160800000Y-121575000D03*
X160800000Y-120925000D03*
X160800000Y-120275000D03*
X160800000Y-119625000D03*
X160800000Y-118975000D03*
X248700000Y-131225000D03*
X248700000Y-131875000D03*
X248700000Y-132525000D03*
X248700000Y-133175000D03*
X248700000Y-133825000D03*
X248700000Y-134475000D03*
X248700000Y-135125000D03*
X248700000Y-135775000D03*
X242800000Y-135775000D03*
X242800000Y-135125000D03*
X242800000Y-134475000D03*
X242800000Y-133825000D03*
X242800000Y-133175000D03*
X242800000Y-132525000D03*
X242800000Y-131875000D03*
X242800000Y-131225000D03*
X305550000Y-144525000D03*
X305550000Y-143875000D03*
X305550000Y-143225000D03*
X305550000Y-142575000D03*
X305550000Y-141925000D03*
X305550000Y-141275000D03*
X305550000Y-140625000D03*
X305550000Y-139975000D03*
X311450000Y-139975000D03*
X311450000Y-140625000D03*
X311450000Y-141275000D03*
X311450000Y-141925000D03*
X311450000Y-142575000D03*
X311450000Y-143225000D03*
X311450000Y-143875000D03*
X311450000Y-144525000D03*
X133850000Y-121925000D03*
X133850000Y-122575000D03*
X133850000Y-123225000D03*
X133850000Y-123875000D03*
X133850000Y-124525000D03*
X133850000Y-125175000D03*
X133850000Y-125825000D03*
X133850000Y-126475000D03*
X127950000Y-126475000D03*
X127950000Y-125825000D03*
X127950000Y-125175000D03*
X127950000Y-124525000D03*
X127950000Y-123875000D03*
X127950000Y-123225000D03*
X127950000Y-122575000D03*
X127950000Y-121925000D03*
X233050000Y-66775000D03*
X233050000Y-66125000D03*
X233050000Y-65475000D03*
X233050000Y-64825000D03*
X233050000Y-64175000D03*
X233050000Y-63525000D03*
X233050000Y-62875000D03*
X233050000Y-62225000D03*
X238950000Y-62225000D03*
X238950000Y-62875000D03*
X238950000Y-63525000D03*
X238950000Y-64175000D03*
X238950000Y-64825000D03*
X238950000Y-65475000D03*
X238950000Y-66125000D03*
X238950000Y-66775000D03*
X215050000Y-66775000D03*
X215050000Y-66125000D03*
X215050000Y-65475000D03*
X215050000Y-64825000D03*
X215050000Y-64175000D03*
X215050000Y-63525000D03*
X215050000Y-62875000D03*
X215050000Y-62225000D03*
X220950000Y-62225000D03*
X220950000Y-62875000D03*
X220950000Y-63525000D03*
X220950000Y-64175000D03*
X220950000Y-64825000D03*
X220950000Y-65475000D03*
X220950000Y-66125000D03*
X220950000Y-66775000D03*
X242300000Y-74025000D03*
X242300000Y-73375000D03*
X242300000Y-72725000D03*
X242300000Y-72075000D03*
X242300000Y-71425000D03*
X242300000Y-70775000D03*
X242300000Y-70125000D03*
X242300000Y-69475000D03*
X248200000Y-69475000D03*
X248200000Y-70125000D03*
X248200000Y-70775000D03*
X248200000Y-71425000D03*
X248200000Y-72075000D03*
X248200000Y-72725000D03*
X248200000Y-73375000D03*
X248200000Y-74025000D03*
X196800000Y-66775000D03*
X196800000Y-66125000D03*
X196800000Y-65475000D03*
X196800000Y-64825000D03*
X196800000Y-64175000D03*
X196800000Y-63525000D03*
X196800000Y-62875000D03*
X196800000Y-62225000D03*
X202700000Y-62225000D03*
X202700000Y-62875000D03*
X202700000Y-63525000D03*
X202700000Y-64175000D03*
X202700000Y-64825000D03*
X202700000Y-65475000D03*
X202700000Y-66125000D03*
X202700000Y-66775000D03*
D53*
X116900000Y-101700000D03*
D54*
X121000000Y-145150000D03*
X122000000Y-145150000D03*
X123000000Y-145150000D03*
X124000000Y-145150000D03*
X125000000Y-145150000D03*
X126000000Y-145150000D03*
X127000000Y-145150000D03*
X128000000Y-145150000D03*
D55*
X117850000Y-147500000D03*
X131150000Y-147500000D03*
D56*
X89300000Y-111500000D03*
X79700000Y-111500000D03*
D57*
X87000000Y-119000000D03*
X84500000Y-119000000D03*
X82000000Y-119000000D03*
D58*
X110150000Y-69400000D03*
D59*
X110150000Y-71940000D03*
X110150000Y-74480000D03*
D18*
X331350000Y-100000000D03*
X333050000Y-100000000D03*
X112900000Y-70250000D03*
X112900000Y-68550000D03*
X119150000Y-67000000D03*
X119150000Y-65300000D03*
D16*
X140600360Y-72950000D03*
X144999640Y-72950000D03*
X134200360Y-140450000D03*
X138599640Y-140450000D03*
D14*
X267100000Y-97350000D03*
X271200000Y-57350000D03*
D32*
X119180000Y-75940000D03*
D33*
X121720000Y-75940000D03*
X119180000Y-73400000D03*
X121720000Y-73400000D03*
X119180000Y-70860000D03*
X121720000Y-70860000D03*
D34*
X71600000Y-70020000D03*
X72552500Y-67480000D03*
X70647500Y-67480000D03*
X77650000Y-69130000D03*
X76697500Y-71670000D03*
X78602500Y-71670000D03*
D18*
X75450000Y-64050000D03*
X77150000Y-64050000D03*
X77150000Y-62350000D03*
X75450000Y-62350000D03*
X73250000Y-71750000D03*
X71550000Y-71750000D03*
X71550000Y-73550000D03*
X73250000Y-73550000D03*
D60*
X82150000Y-66650000D03*
D61*
X79610000Y-66650000D03*
X77070000Y-66650000D03*
D53*
X135900000Y-145250000D03*
X138400000Y-145250000D03*
D62*
X109500000Y-59000000D03*
X120500000Y-59000000D03*
X115000000Y-64500000D03*
D63*
X115000000Y-54500000D03*
D62*
X111110000Y-62890000D03*
X118890000Y-62890000D03*
D64*
X115000000Y-54500000D03*
D65*
X110900000Y-59000000D03*
X119100000Y-59000000D03*
D66*
X115000000Y-63100000D03*
D67*
X110968629Y-63031371D02*
X113231371Y-60768629D01*
X116768629Y-60768629D02*
X119031371Y-63031371D01*
D16*
X269349640Y-121450000D03*
X264950360Y-121450000D03*
D18*
X73750000Y-69150000D03*
X75450000Y-69150000D03*
D28*
X78479500Y-92550000D03*
X76320500Y-92550000D03*
X78370500Y-107600000D03*
X80529500Y-107600000D03*
D46*
X254000000Y-61199640D03*
X254000000Y-56800360D03*
D68*
X89000000Y-102550000D03*
D69*
X89000000Y-100010000D03*
D68*
X89000000Y-105090000D03*
D53*
X162000000Y-105600000D03*
X163500000Y-94350000D03*
X148500000Y-83850000D03*
X138900000Y-88650000D03*
X153000000Y-104550000D03*
D45*
X191290000Y-136600000D03*
X191290000Y-133560000D03*
X188750000Y-133560000D03*
X188750000Y-136600000D03*
X186210000Y-136600000D03*
X186210000Y-133560000D03*
X183670000Y-133560000D03*
X183670000Y-136600000D03*
X181130000Y-136600000D03*
X181130000Y-133560000D03*
X178590000Y-133560000D03*
X178590000Y-136600000D03*
X176050000Y-136600000D03*
X176050000Y-133560000D03*
D70*
X168430000Y-133560000D03*
D45*
X168430000Y-136600000D03*
X170970000Y-133560000D03*
X170970000Y-136600000D03*
X173510000Y-133560000D03*
X173510000Y-136600000D03*
D32*
X72080000Y-141790000D03*
D33*
X75120000Y-141790000D03*
X72080000Y-139250000D03*
X75120000Y-139250000D03*
X72080000Y-136710000D03*
X75120000Y-136710000D03*
D71*
X292400000Y-113400000D03*
D62*
X90250000Y-119000000D03*
D16*
X339349640Y-121650000D03*
X334950360Y-121650000D03*
X75099640Y-84150000D03*
X70700360Y-84150000D03*
X70700360Y-116650000D03*
X75099640Y-116650000D03*
D72*
X92400000Y-99950000D03*
X95400000Y-99950000D03*
X92400000Y-105150000D03*
X95400000Y-105150000D03*
D28*
X78320500Y-99900000D03*
X80479500Y-99900000D03*
X78320500Y-101900000D03*
X80479500Y-101900000D03*
D18*
X358750000Y-133600000D03*
X358750000Y-135300000D03*
X352300000Y-126850000D03*
X354000000Y-126850000D03*
D28*
X74579500Y-92550000D03*
X72420500Y-92550000D03*
X80529500Y-105600000D03*
X78370500Y-105600000D03*
D18*
X81650000Y-69250000D03*
X79950000Y-69250000D03*
D34*
X272800000Y-117180000D03*
X271847500Y-119720000D03*
X273752500Y-119720000D03*
D18*
X274550000Y-114150000D03*
X274550000Y-115850000D03*
D73*
X350000000Y-63700000D03*
D74*
X350000000Y-54300000D03*
D75*
X345100000Y-59000000D03*
X353300000Y-59000000D03*
D73*
X86000000Y-54300000D03*
D74*
X86000000Y-63700000D03*
D75*
X90900000Y-59000000D03*
X82700000Y-59000000D03*
D73*
X73000000Y-54300000D03*
D74*
X73000000Y-63700000D03*
D75*
X77900000Y-59000000D03*
X69700000Y-59000000D03*
D73*
X99000000Y-54300000D03*
D74*
X99000000Y-63700000D03*
D75*
X103900000Y-59000000D03*
X95700000Y-59000000D03*
D73*
X363000000Y-128700000D03*
D74*
X363000000Y-119300000D03*
D75*
X358100000Y-124000000D03*
X366300000Y-124000000D03*
D73*
X363000000Y-102700000D03*
D74*
X363000000Y-93300000D03*
D75*
X358100000Y-98000000D03*
X366300000Y-98000000D03*
D73*
X350000000Y-128700000D03*
D74*
X350000000Y-119300000D03*
D75*
X345100000Y-124000000D03*
X353300000Y-124000000D03*
D73*
X363000000Y-115700000D03*
D74*
X363000000Y-106300000D03*
D75*
X358100000Y-111000000D03*
X366300000Y-111000000D03*
D73*
X350000000Y-102700000D03*
D74*
X350000000Y-93300000D03*
D75*
X345100000Y-98000000D03*
X353300000Y-98000000D03*
D73*
X363000000Y-89700000D03*
D74*
X363000000Y-80300000D03*
D75*
X358100000Y-85000000D03*
X366300000Y-85000000D03*
D73*
X350000000Y-89700000D03*
D74*
X350000000Y-80300000D03*
D75*
X345100000Y-85000000D03*
X353300000Y-85000000D03*
D73*
X363000000Y-76700000D03*
D74*
X363000000Y-67300000D03*
D75*
X358100000Y-72000000D03*
X366300000Y-72000000D03*
D73*
X363000000Y-63700000D03*
D74*
X363000000Y-54300000D03*
D75*
X358100000Y-59000000D03*
X366300000Y-59000000D03*
D73*
X350000000Y-115700000D03*
D74*
X350000000Y-106300000D03*
D75*
X345100000Y-111000000D03*
X353300000Y-111000000D03*
D73*
X350000000Y-76700000D03*
D74*
X350000000Y-67300000D03*
D75*
X345100000Y-72000000D03*
X353300000Y-72000000D03*
D76*
X107500000Y-180750000D03*
X107500000Y-168250000D03*
X102500000Y-180750000D03*
X102500000Y-168250000D03*
D71*
X100500000Y-174500000D03*
X109500000Y-174500000D03*
D11*
X124500000Y-180500000D03*
X228500000Y-180500000D03*
D77*
X115725000Y-171550000D03*
X116375000Y-171550000D03*
X117025000Y-171550000D03*
X117675000Y-171550000D03*
X118325000Y-171550000D03*
X118975000Y-171550000D03*
X119625000Y-171550000D03*
X120275000Y-171550000D03*
X120275000Y-177450000D03*
X119625000Y-177450000D03*
X118975000Y-177450000D03*
X118325000Y-177450000D03*
X117675000Y-177450000D03*
X117025000Y-177450000D03*
X116375000Y-177450000D03*
X115725000Y-177450000D03*
X219725000Y-171550000D03*
X220375000Y-171550000D03*
X221025000Y-171550000D03*
X221675000Y-171550000D03*
X222325000Y-171550000D03*
X222975000Y-171550000D03*
X223625000Y-171550000D03*
X224275000Y-171550000D03*
X224275000Y-177450000D03*
X223625000Y-177450000D03*
X222975000Y-177450000D03*
X222325000Y-177450000D03*
X221675000Y-177450000D03*
X221025000Y-177450000D03*
X220375000Y-177450000D03*
X219725000Y-177450000D03*
D78*
X127450000Y-157225000D03*
X127450000Y-157875000D03*
X127450000Y-158525000D03*
X127450000Y-159175000D03*
X127450000Y-159825000D03*
X127450000Y-160475000D03*
X127450000Y-161125000D03*
X127450000Y-161775000D03*
X121550000Y-161775000D03*
X121550000Y-161125000D03*
X121550000Y-160475000D03*
X121550000Y-159825000D03*
X121550000Y-159175000D03*
X121550000Y-158525000D03*
X121550000Y-157875000D03*
X121550000Y-157225000D03*
X231450000Y-157225000D03*
X231450000Y-157875000D03*
X231450000Y-158525000D03*
X231450000Y-159175000D03*
X231450000Y-159825000D03*
X231450000Y-160475000D03*
X231450000Y-161125000D03*
X231450000Y-161775000D03*
X225550000Y-161775000D03*
X225550000Y-161125000D03*
X225550000Y-160475000D03*
X225550000Y-159825000D03*
X225550000Y-159175000D03*
X225550000Y-158525000D03*
X225550000Y-157875000D03*
X225550000Y-157225000D03*
D26*
X92000000Y-164730000D03*
D27*
X92000000Y-167270000D03*
D26*
X105000000Y-164730000D03*
D27*
X105000000Y-167270000D03*
D26*
X118000000Y-164730000D03*
D27*
X118000000Y-167270000D03*
D26*
X131000000Y-164730000D03*
D27*
X131000000Y-167270000D03*
D26*
X144000000Y-164730000D03*
D27*
X144000000Y-167270000D03*
D26*
X157000000Y-164730000D03*
D27*
X157000000Y-167270000D03*
D26*
X170000000Y-164730000D03*
D27*
X170000000Y-167270000D03*
D26*
X196000000Y-164730000D03*
D27*
X196000000Y-167270000D03*
D26*
X209000000Y-164730000D03*
D27*
X209000000Y-167270000D03*
D26*
X222000000Y-164730000D03*
D27*
X222000000Y-167270000D03*
D26*
X235000000Y-164730000D03*
D27*
X235000000Y-167270000D03*
D26*
X248000000Y-164730000D03*
D27*
X248000000Y-167270000D03*
D26*
X261000000Y-164730000D03*
D27*
X261000000Y-167270000D03*
D26*
X274000000Y-164730000D03*
D27*
X274000000Y-167270000D03*
D26*
X79000000Y-164730000D03*
D27*
X79000000Y-167270000D03*
D26*
X183000000Y-164730000D03*
D27*
X183000000Y-167270000D03*
D18*
X271600000Y-164750000D03*
X269900000Y-164750000D03*
X258600000Y-164750000D03*
X256900000Y-164750000D03*
D13*
X247900000Y-162000000D03*
X247900000Y-160300000D03*
D18*
X232600000Y-164750000D03*
X230900000Y-164750000D03*
X224400000Y-164750000D03*
X226100000Y-164750000D03*
X211400000Y-164750000D03*
X213100000Y-164750000D03*
X198400000Y-164750000D03*
X200100000Y-164750000D03*
X185400000Y-164750000D03*
X187100000Y-164750000D03*
X168250000Y-164750000D03*
X166550000Y-164750000D03*
X154600000Y-164750000D03*
X152900000Y-164750000D03*
X141600000Y-164750000D03*
X139900000Y-164750000D03*
X128600000Y-164750000D03*
X126900000Y-164750000D03*
X120400000Y-164750000D03*
X122100000Y-164750000D03*
X107400000Y-164500000D03*
X109100000Y-164500000D03*
X94400000Y-164750000D03*
X96100000Y-164750000D03*
X80400000Y-162750000D03*
X82100000Y-162750000D03*
X189250000Y-169100000D03*
X189250000Y-167400000D03*
X279000000Y-179400000D03*
X279000000Y-181100000D03*
X266000000Y-179400000D03*
X266000000Y-181100000D03*
X253000000Y-179400000D03*
X253000000Y-181100000D03*
X240000000Y-179400000D03*
X240000000Y-181100000D03*
X227000000Y-169850000D03*
X227000000Y-168150000D03*
X214000000Y-179400000D03*
X214000000Y-181100000D03*
X201000000Y-179400000D03*
X201000000Y-181100000D03*
X188000000Y-179150000D03*
X188000000Y-180850000D03*
X170000000Y-179150000D03*
X170000000Y-180850000D03*
X162000000Y-179150000D03*
X162000000Y-180850000D03*
X149000000Y-179150000D03*
X149000000Y-180850000D03*
X136000000Y-179150000D03*
X136000000Y-180850000D03*
X118000000Y-181600000D03*
X118000000Y-179900000D03*
X105650000Y-178250000D03*
X107350000Y-178250000D03*
X97000000Y-179150000D03*
X97000000Y-180850000D03*
X84000000Y-179150000D03*
X84000000Y-180850000D03*
X84400000Y-160350000D03*
X84400000Y-158650000D03*
X190250000Y-158150000D03*
X190250000Y-159850000D03*
X217000000Y-181100000D03*
X217000000Y-179400000D03*
X113250000Y-168400000D03*
X113250000Y-170100000D03*
D76*
X276500000Y-180750000D03*
X276500000Y-168250000D03*
X271500000Y-180750000D03*
X271500000Y-168250000D03*
D71*
X269500000Y-174500000D03*
X278500000Y-174500000D03*
D76*
X263500000Y-180750000D03*
X263500000Y-168250000D03*
X258500000Y-180750000D03*
X258500000Y-168250000D03*
D71*
X256500000Y-174500000D03*
X265500000Y-174500000D03*
D76*
X250500000Y-180750000D03*
X250500000Y-168250000D03*
X245500000Y-180750000D03*
X245500000Y-168250000D03*
D71*
X243500000Y-174500000D03*
X252500000Y-174500000D03*
D76*
X237500000Y-180750000D03*
X237500000Y-168250000D03*
X232500000Y-180750000D03*
X232500000Y-168250000D03*
D71*
X230500000Y-174500000D03*
X239500000Y-174500000D03*
D76*
X224500000Y-180750000D03*
X224500000Y-168250000D03*
X219500000Y-180750000D03*
X219500000Y-168250000D03*
D71*
X217500000Y-174500000D03*
X226500000Y-174500000D03*
D76*
X211500000Y-180750000D03*
X211500000Y-168250000D03*
X206500000Y-180750000D03*
X206500000Y-168250000D03*
D71*
X204500000Y-174500000D03*
X213500000Y-174500000D03*
D76*
X198500000Y-180750000D03*
X198500000Y-168250000D03*
X193500000Y-180750000D03*
X193500000Y-168250000D03*
D71*
X191500000Y-174500000D03*
X200500000Y-174500000D03*
D76*
X185500000Y-180750000D03*
X185500000Y-168250000D03*
X180500000Y-180750000D03*
X180500000Y-168250000D03*
D71*
X178500000Y-174500000D03*
X187500000Y-174500000D03*
D76*
X172500000Y-180750000D03*
X172500000Y-168250000D03*
X167500000Y-180750000D03*
X167500000Y-168250000D03*
D71*
X165500000Y-174500000D03*
X174500000Y-174500000D03*
D76*
X159500000Y-180750000D03*
X159500000Y-168250000D03*
X154500000Y-180750000D03*
X154500000Y-168250000D03*
D71*
X152500000Y-174500000D03*
X161500000Y-174500000D03*
D76*
X146500000Y-180750000D03*
X146500000Y-168250000D03*
X141500000Y-180750000D03*
X141500000Y-168250000D03*
D71*
X139500000Y-174500000D03*
X148500000Y-174500000D03*
D76*
X133500000Y-180750000D03*
X133500000Y-168250000D03*
X128500000Y-180750000D03*
X128500000Y-168250000D03*
D71*
X126500000Y-174500000D03*
X135500000Y-174500000D03*
D76*
X120500000Y-180750000D03*
X120500000Y-168250000D03*
X115500000Y-180750000D03*
X115500000Y-168250000D03*
D71*
X113500000Y-174500000D03*
X122500000Y-174500000D03*
D76*
X94500000Y-180750000D03*
X94500000Y-168250000D03*
X89500000Y-180750000D03*
X89500000Y-168250000D03*
D71*
X87500000Y-174500000D03*
X96500000Y-174500000D03*
D76*
X81500000Y-180750000D03*
X81500000Y-168250000D03*
X76500000Y-180750000D03*
X76500000Y-168250000D03*
D71*
X74500000Y-174500000D03*
X83500000Y-174500000D03*
D79*
X72000000Y-160000000D03*
X280500000Y-160000000D03*
X177500000Y-162500000D03*
D11*
X176500000Y-180500000D03*
X282000000Y-180000000D03*
X71000000Y-180000000D03*
D53*
X74000000Y-165000000D03*
D80*
X187800000Y-158200000D03*
X187800000Y-161200000D03*
X82400000Y-160300000D03*
X82400000Y-157300000D03*
D10*
G36*
X115562563Y-104363604D02*
X116163604Y-103762563D01*
X116835355Y-104434314D01*
X116234314Y-105035355D01*
X115562563Y-104363604D01*
X115562563Y-104363604D01*
G37*
G36*
X116764645Y-105565686D02*
X117365686Y-104964645D01*
X118037437Y-105636396D01*
X117436396Y-106237437D01*
X116764645Y-105565686D01*
X116764645Y-105565686D01*
G37*
G36*
X114262563Y-105613604D02*
X114863604Y-105012563D01*
X115535355Y-105684314D01*
X114934314Y-106285355D01*
X114262563Y-105613604D01*
X114262563Y-105613604D01*
G37*
G36*
X115464645Y-106815686D02*
X116065686Y-106214645D01*
X116737437Y-106886396D01*
X116136396Y-107487437D01*
X115464645Y-106815686D01*
X115464645Y-106815686D01*
G37*
G36*
X114737437Y-108886396D02*
X114136396Y-109487437D01*
X113464645Y-108815686D01*
X114065686Y-108214645D01*
X114737437Y-108886396D01*
X114737437Y-108886396D01*
G37*
G36*
X113535355Y-107684314D02*
X112934314Y-108285355D01*
X112262563Y-107613604D01*
X112863604Y-107012563D01*
X113535355Y-107684314D01*
X113535355Y-107684314D01*
G37*
D56*
X141800000Y-59000000D03*
X132200000Y-59000000D03*
D57*
X139500000Y-66500000D03*
X137000000Y-66500000D03*
X134500000Y-66500000D03*
D56*
X321800000Y-59000000D03*
X312200000Y-59000000D03*
D57*
X319500000Y-66500000D03*
X317000000Y-66500000D03*
X314500000Y-66500000D03*
D56*
X303800000Y-77000000D03*
X294200000Y-77000000D03*
D57*
X301500000Y-84500000D03*
X299000000Y-84500000D03*
X296500000Y-84500000D03*
D56*
X361300000Y-135000000D03*
X351700000Y-135000000D03*
D57*
X359000000Y-142500000D03*
X356500000Y-142500000D03*
X354000000Y-142500000D03*
D56*
X303800000Y-95000000D03*
X294200000Y-95000000D03*
D57*
X301500000Y-102500000D03*
X299000000Y-102500000D03*
X296500000Y-102500000D03*
D56*
X321800000Y-95000000D03*
X312200000Y-95000000D03*
D57*
X319500000Y-102500000D03*
X317000000Y-102500000D03*
X314500000Y-102500000D03*
D56*
X159800000Y-59000000D03*
X150200000Y-59000000D03*
D57*
X157500000Y-66500000D03*
X155000000Y-66500000D03*
X152500000Y-66500000D03*
D56*
X159800000Y-77000000D03*
X150200000Y-77000000D03*
D57*
X157500000Y-84500000D03*
X155000000Y-84500000D03*
X152500000Y-84500000D03*
D56*
X285800000Y-59000000D03*
X276200000Y-59000000D03*
D57*
X283500000Y-66500000D03*
X281000000Y-66500000D03*
X278500000Y-66500000D03*
D56*
X159800000Y-95000000D03*
X150200000Y-95000000D03*
D57*
X157500000Y-102500000D03*
X155000000Y-102500000D03*
X152500000Y-102500000D03*
D56*
X303800000Y-59000000D03*
X294200000Y-59000000D03*
D57*
X301500000Y-66500000D03*
X299000000Y-66500000D03*
X296500000Y-66500000D03*
D56*
X177800000Y-77000000D03*
X168200000Y-77000000D03*
D57*
X175500000Y-84500000D03*
X173000000Y-84500000D03*
X170500000Y-84500000D03*
D56*
X339800000Y-59000000D03*
X330200000Y-59000000D03*
D57*
X337500000Y-66500000D03*
X335000000Y-66500000D03*
X332500000Y-66500000D03*
D56*
X177800000Y-95000000D03*
X168200000Y-95000000D03*
D57*
X175500000Y-102500000D03*
X173000000Y-102500000D03*
X170500000Y-102500000D03*
D56*
X195800000Y-59000000D03*
X186200000Y-59000000D03*
D57*
X193500000Y-66500000D03*
X191000000Y-66500000D03*
X188500000Y-66500000D03*
D56*
X195800000Y-77000000D03*
X186200000Y-77000000D03*
D57*
X193500000Y-84500000D03*
X191000000Y-84500000D03*
X188500000Y-84500000D03*
D56*
X213800000Y-59000000D03*
X204200000Y-59000000D03*
D57*
X211500000Y-66500000D03*
X209000000Y-66500000D03*
X206500000Y-66500000D03*
D56*
X213800000Y-77000000D03*
X204200000Y-77000000D03*
D57*
X211500000Y-84500000D03*
X209000000Y-84500000D03*
X206500000Y-84500000D03*
D56*
X231800000Y-59000000D03*
X222200000Y-59000000D03*
D57*
X229500000Y-66500000D03*
X227000000Y-66500000D03*
X224500000Y-66500000D03*
D56*
X231800000Y-77000000D03*
X222200000Y-77000000D03*
D57*
X229500000Y-84500000D03*
X227000000Y-84500000D03*
X224500000Y-84500000D03*
D56*
X249800000Y-59000000D03*
X240200000Y-59000000D03*
D57*
X247500000Y-66500000D03*
X245000000Y-66500000D03*
X242500000Y-66500000D03*
D56*
X267800000Y-59000000D03*
X258200000Y-59000000D03*
D57*
X265500000Y-66500000D03*
X263000000Y-66500000D03*
X260500000Y-66500000D03*
D56*
X177800000Y-59000000D03*
X168200000Y-59000000D03*
D57*
X175500000Y-66500000D03*
X173000000Y-66500000D03*
X170500000Y-66500000D03*
D36*
X109800000Y-56594600D03*
X109800000Y-54105400D03*
X108300000Y-54105400D03*
X108300000Y-56594600D03*
D23*
X116244600Y-57650000D03*
X113755400Y-57650000D03*
D36*
X120400000Y-54105400D03*
X120400000Y-56594600D03*
X80200000Y-58205400D03*
X80200000Y-60694600D03*
X80200000Y-54505400D03*
X80200000Y-56994600D03*
X80200000Y-64294600D03*
X80200000Y-61805400D03*
X78600000Y-61805400D03*
X78600000Y-64294600D03*
D81*
X256450000Y-75787500D03*
X256450000Y-74712500D03*
D82*
X258225000Y-75250000D03*
X256375000Y-75250000D03*
D81*
X258150000Y-74712500D03*
X258150000Y-75787500D03*
D83*
X257637500Y-73000000D03*
X256562500Y-73000000D03*
D84*
X257100000Y-71225000D03*
X257100000Y-73075000D03*
D83*
X256562500Y-71300000D03*
X257637500Y-71300000D03*
D81*
X260150000Y-72587500D03*
X260150000Y-71512500D03*
D82*
X261925000Y-72050000D03*
X260075000Y-72050000D03*
D81*
X261850000Y-71512500D03*
X261850000Y-72587500D03*
X261800000Y-74212500D03*
X261800000Y-75287500D03*
D82*
X260025000Y-74750000D03*
X261875000Y-74750000D03*
D81*
X260100000Y-75287500D03*
X260100000Y-74212500D03*
D83*
X260862500Y-78225000D03*
X259787500Y-78225000D03*
D84*
X260325000Y-76450000D03*
X260325000Y-78300000D03*
D83*
X259787500Y-76525000D03*
X260862500Y-76525000D03*
D81*
X257050000Y-80887500D03*
X257050000Y-79812500D03*
D82*
X258825000Y-80350000D03*
X256975000Y-80350000D03*
D81*
X258750000Y-79812500D03*
X258750000Y-80887500D03*
X262000000Y-79812500D03*
X262000000Y-80887500D03*
D82*
X260225000Y-80350000D03*
X262075000Y-80350000D03*
D81*
X260300000Y-80887500D03*
X260300000Y-79812500D03*
X256950000Y-83787500D03*
X256950000Y-82712500D03*
D82*
X258725000Y-83250000D03*
X256875000Y-83250000D03*
D81*
X258650000Y-82712500D03*
X258650000Y-83787500D03*
X256100000Y-86187500D03*
X256100000Y-85112500D03*
D82*
X257875000Y-85650000D03*
X256025000Y-85650000D03*
D81*
X257800000Y-85112500D03*
X257800000Y-86187500D03*
M02*
