G04 #@! TF.FileFunction,Soldermask,Top*
%FSLAX46Y46*%
G04 Gerber Fmt 4.6, Leading zero omitted, Abs format (unit mm)*
G04 Created by KiCad (PCBNEW 4.0.2-stable) date 2019-10-29 5:42:38 PM*
%MOMM*%
G01*
G04 APERTURE LIST*
%ADD10C,0.100000*%
%ADD11C,3.225000*%
%ADD12C,6.050000*%
%ADD13C,2.050000*%
%ADD14O,2.000000X2.000000*%
%ADD15C,2.336000*%
%ADD16C,4.037800*%
%ADD17C,1.751800*%
%ADD18C,2.590000*%
%ADD19R,1.800000X1.400000*%
%ADD20O,1.800000X1.400000*%
%ADD21R,1.250000X1.250000*%
%ADD22C,1.250000*%
%ADD23R,2.050000X1.550000*%
%ADD24O,2.050000X1.550000*%
%ADD25R,1.650000X2.850000*%
%ADD26R,2.850000X1.650000*%
%ADD27R,0.950000X0.850000*%
%ADD28O,2.250000X1.450000*%
%ADD29O,2.300000X1.450000*%
%ADD30O,1.450000X2.250000*%
%ADD31O,1.450000X2.300000*%
%ADD32O,1.550000X2.050000*%
%ADD33C,1.550000*%
%ADD34O,2.850000X3.550000*%
%ADD35C,1.800000*%
%ADD36R,2.082000X1.777200*%
%ADD37O,2.082000X1.777200*%
%ADD38R,1.750000X1.750000*%
%ADD39O,1.750000X1.750000*%
%ADD40C,2.550000*%
%ADD41R,2.550000X3.550000*%
%ADD42O,4.650000X1.500000*%
%ADD43O,4.350000X1.150000*%
%ADD44O,1.150000X4.350000*%
%ADD45C,1.150000*%
%ADD46O,2.050000X1.800000*%
%ADD47R,2.050000X1.800000*%
%ADD48R,1.550000X2.050000*%
%ADD49C,1.850000*%
%ADD50O,4.050000X2.550000*%
%ADD51O,2.550000X2.050000*%
%ADD52O,1.550000X3.550000*%
%ADD53O,2.050000X3.050000*%
%ADD54C,3.150000*%
%ADD55R,0.650000X1.950000*%
%ADD56R,2.150000X2.850000*%
%ADD57O,0.850000X1.550000*%
G04 APERTURE END LIST*
D10*
D11*
X203500000Y-135000000D03*
D12*
X163000000Y-162500000D03*
D11*
X330900000Y-136850000D03*
X72800000Y-151650000D03*
X200000000Y-58450000D03*
X92400000Y-66650000D03*
X356000000Y-65550000D03*
X281000000Y-135000000D03*
D12*
X240500000Y-162500000D03*
D11*
X100500000Y-147000000D03*
D13*
X71400000Y-47900000D03*
X71400000Y-186400000D03*
X364650000Y-186650000D03*
X364650000Y-48150000D03*
D14*
X358900000Y-48150000D03*
X77150000Y-186400000D03*
D11*
X269000000Y-153000000D03*
X165000000Y-153000000D03*
X236000000Y-108250000D03*
X146000000Y-54350000D03*
X137000000Y-95000000D03*
D15*
X331190000Y-144460000D03*
D16*
X335000000Y-147000000D03*
D17*
X340080000Y-147000000D03*
X329920000Y-147000000D03*
D18*
X337540000Y-141920000D03*
D11*
X321000000Y-132500000D03*
X322500000Y-152500000D03*
X217000000Y-153000000D03*
X218000000Y-135000000D03*
X112500000Y-132500000D03*
X111500000Y-152500000D03*
D19*
X115000000Y-68400000D03*
D20*
X115000000Y-70400000D03*
X115000000Y-72400000D03*
D21*
X115070000Y-85570000D03*
D22*
X115070000Y-83030000D03*
D15*
X80690000Y-144460000D03*
D16*
X84500000Y-147000000D03*
D17*
X89580000Y-147000000D03*
X79420000Y-147000000D03*
D18*
X87040000Y-141920000D03*
D23*
X72500000Y-105500000D03*
D24*
X75040000Y-105500000D03*
X72500000Y-102960000D03*
X75040000Y-102960000D03*
X72500000Y-100420000D03*
X75040000Y-100420000D03*
X72500000Y-97880000D03*
X75040000Y-97880000D03*
X72500000Y-95340000D03*
X75040000Y-95340000D03*
D25*
X79650000Y-123400000D03*
D26*
X236000000Y-116000000D03*
X314500000Y-139750000D03*
D25*
X225750000Y-124250000D03*
D26*
X212250000Y-126250000D03*
X277500000Y-125750000D03*
D21*
X102340000Y-92060000D03*
D22*
X102340000Y-89520000D03*
D21*
X76080000Y-73635000D03*
D22*
X78620000Y-73635000D03*
D21*
X80655000Y-71305000D03*
D22*
X83195000Y-71305000D03*
D21*
X85800000Y-71305000D03*
D22*
X88340000Y-71305000D03*
D21*
X90375000Y-73635000D03*
D22*
X92915000Y-73635000D03*
D21*
X93395000Y-77790000D03*
D22*
X95935000Y-77790000D03*
D21*
X105360000Y-87905000D03*
D22*
X105360000Y-85365000D03*
D21*
X109935000Y-85570000D03*
D22*
X109935000Y-83030000D03*
D21*
X119645000Y-87905000D03*
D22*
X119645000Y-85365000D03*
D21*
X122665000Y-92060000D03*
D22*
X122665000Y-89520000D03*
D21*
X105230000Y-142000000D03*
D22*
X107770000Y-142000000D03*
D21*
X105230000Y-152000000D03*
D22*
X107770000Y-152000000D03*
D21*
X261730000Y-87000000D03*
D22*
X264270000Y-87000000D03*
D21*
X279730000Y-107250000D03*
D22*
X282270000Y-107250000D03*
D21*
X297730000Y-107250000D03*
D22*
X300270000Y-107250000D03*
D21*
X315730000Y-107250000D03*
D22*
X318270000Y-107250000D03*
D21*
X333730000Y-107250000D03*
D22*
X336270000Y-107250000D03*
D21*
X327230000Y-129000000D03*
D22*
X329770000Y-129000000D03*
D21*
X340230000Y-129000000D03*
D22*
X342770000Y-129000000D03*
D21*
X73070000Y-77790000D03*
D22*
X75610000Y-77790000D03*
D21*
X105230000Y-133700000D03*
D22*
X107770000Y-133700000D03*
D21*
X105230000Y-128900000D03*
D22*
X107770000Y-128900000D03*
D21*
X105230000Y-124100000D03*
D22*
X107770000Y-124100000D03*
D21*
X105230000Y-119300000D03*
D22*
X107770000Y-119300000D03*
D21*
X153730000Y-107250000D03*
D22*
X156270000Y-107250000D03*
D21*
X171730000Y-107250000D03*
D22*
X174270000Y-107250000D03*
D21*
X189730000Y-107250000D03*
D22*
X192270000Y-107250000D03*
D21*
X189730000Y-87000000D03*
D22*
X192270000Y-87000000D03*
D21*
X207730000Y-107250000D03*
D22*
X210270000Y-107250000D03*
D21*
X207730000Y-87000000D03*
D22*
X210270000Y-87000000D03*
D21*
X225730000Y-107250000D03*
D22*
X228270000Y-107250000D03*
D21*
X225730000Y-87000000D03*
D22*
X228270000Y-87000000D03*
D21*
X243730000Y-107250000D03*
D22*
X246270000Y-107250000D03*
D21*
X243730000Y-87000000D03*
D22*
X246270000Y-87000000D03*
D21*
X261730000Y-107250000D03*
D22*
X264270000Y-107250000D03*
D21*
X135730000Y-107250000D03*
D22*
X138270000Y-107250000D03*
D21*
X91000000Y-130270000D03*
D22*
X91000000Y-127730000D03*
D21*
X78000000Y-130270000D03*
D22*
X78000000Y-127730000D03*
D27*
X261850000Y-109000000D03*
X260150000Y-109000000D03*
X242100000Y-87000000D03*
X240400000Y-87000000D03*
X206100000Y-87000000D03*
X204400000Y-87000000D03*
X205750000Y-104900000D03*
X205750000Y-106600000D03*
X188100000Y-87000000D03*
X186400000Y-87000000D03*
X169550000Y-107250000D03*
X167850000Y-107250000D03*
X150350000Y-106250000D03*
X150350000Y-104550000D03*
X334400000Y-103500000D03*
X336100000Y-103500000D03*
X319900000Y-105000000D03*
X321600000Y-105000000D03*
X296100000Y-105000000D03*
X294400000Y-105000000D03*
X279100000Y-104750000D03*
X277400000Y-104750000D03*
X261750000Y-89400000D03*
X261750000Y-91100000D03*
X300100000Y-136000000D03*
X298400000Y-136000000D03*
X249750000Y-128600000D03*
X249750000Y-126900000D03*
X341450000Y-103650000D03*
X343150000Y-103650000D03*
X318000000Y-80150000D03*
X318000000Y-81850000D03*
X265750000Y-95900000D03*
X265750000Y-97600000D03*
X305800000Y-69850000D03*
X305800000Y-68150000D03*
X292750000Y-88650000D03*
X292750000Y-90350000D03*
X294250000Y-67900000D03*
X294250000Y-69600000D03*
X240750000Y-95900000D03*
X240750000Y-97600000D03*
X237250000Y-74600000D03*
X237250000Y-72900000D03*
X215000000Y-89900000D03*
X215000000Y-91600000D03*
X202500000Y-73350000D03*
X202500000Y-71650000D03*
X197800000Y-90150000D03*
X197800000Y-91850000D03*
X164250000Y-72400000D03*
X164250000Y-74100000D03*
X161500000Y-90000000D03*
X161500000Y-91700000D03*
X133250000Y-90600000D03*
X133250000Y-88900000D03*
X132250000Y-97150000D03*
X132250000Y-98850000D03*
X129750000Y-107400000D03*
X129750000Y-109100000D03*
X164000000Y-64400000D03*
X164000000Y-66100000D03*
X127150000Y-120500000D03*
X128850000Y-120500000D03*
X112250000Y-119100000D03*
X112250000Y-117400000D03*
D28*
X133750000Y-111250000D03*
X133750000Y-115750000D03*
D29*
X140250000Y-111250000D03*
X140250000Y-115750000D03*
D28*
X313750000Y-111250000D03*
X313750000Y-115750000D03*
D29*
X320250000Y-111250000D03*
X320250000Y-115750000D03*
D28*
X295750000Y-111250000D03*
X295750000Y-115750000D03*
D29*
X302250000Y-111250000D03*
X302250000Y-115750000D03*
D28*
X277750000Y-111250000D03*
X277750000Y-115750000D03*
D29*
X284250000Y-111250000D03*
X284250000Y-115750000D03*
D28*
X259750000Y-111250000D03*
X259750000Y-115750000D03*
D29*
X266250000Y-111250000D03*
X266250000Y-115750000D03*
D28*
X241750000Y-111250000D03*
X241750000Y-115750000D03*
D29*
X248250000Y-111250000D03*
X248250000Y-115750000D03*
D28*
X223750000Y-111250000D03*
X223750000Y-115750000D03*
D29*
X230250000Y-111250000D03*
X230250000Y-115750000D03*
D28*
X205750000Y-111250000D03*
X205750000Y-115750000D03*
D29*
X212250000Y-111250000D03*
X212250000Y-115750000D03*
D28*
X187750000Y-111250000D03*
X187750000Y-115750000D03*
D29*
X194250000Y-111250000D03*
X194250000Y-115750000D03*
D28*
X331750000Y-111250000D03*
X331750000Y-115750000D03*
D29*
X338250000Y-111250000D03*
X338250000Y-115750000D03*
D28*
X169750000Y-111250000D03*
X169750000Y-115750000D03*
D29*
X176250000Y-111250000D03*
X176250000Y-115750000D03*
D28*
X151750000Y-111250000D03*
X151750000Y-115750000D03*
D29*
X158250000Y-111250000D03*
X158250000Y-115750000D03*
D30*
X82250000Y-132250000D03*
X86750000Y-132250000D03*
D31*
X82250000Y-125750000D03*
X86750000Y-125750000D03*
D28*
X81250000Y-90750000D03*
X81250000Y-95250000D03*
D29*
X87750000Y-90750000D03*
X87750000Y-95250000D03*
D28*
X331750000Y-126750000D03*
X331750000Y-131250000D03*
D29*
X338250000Y-126750000D03*
X338250000Y-131250000D03*
D32*
X349750000Y-144250000D03*
X363000000Y-144250000D03*
X349750000Y-153750000D03*
X363000000Y-153750000D03*
X77750000Y-77250000D03*
X91000000Y-77250000D03*
X77750000Y-86750000D03*
X91000000Y-86750000D03*
X105750000Y-90250000D03*
X119000000Y-90250000D03*
X105750000Y-99750000D03*
X119000000Y-99750000D03*
D33*
X116900000Y-101700000D03*
D34*
X89300000Y-111500000D03*
X79700000Y-111500000D03*
D35*
X87000000Y-119000000D03*
X84500000Y-119000000D03*
X82000000Y-119000000D03*
D36*
X110150000Y-69400000D03*
D37*
X110150000Y-71940000D03*
X110150000Y-74480000D03*
D23*
X119180000Y-75940000D03*
D24*
X121720000Y-75940000D03*
X119180000Y-73400000D03*
X121720000Y-73400000D03*
X119180000Y-70860000D03*
X121720000Y-70860000D03*
D38*
X82150000Y-66650000D03*
D39*
X79610000Y-66650000D03*
X77070000Y-66650000D03*
D33*
X135900000Y-145250000D03*
X138400000Y-145250000D03*
D40*
X109500000Y-59000000D03*
X120500000Y-59000000D03*
X115000000Y-64500000D03*
D41*
X115000000Y-54500000D03*
D40*
X111110000Y-62890000D03*
X118890000Y-62890000D03*
D42*
X115000000Y-54500000D03*
D43*
X110900000Y-59000000D03*
X119100000Y-59000000D03*
D44*
X115000000Y-63100000D03*
D45*
X110968629Y-63031371D02*
X113231371Y-60768629D01*
X116768629Y-60768629D02*
X119031371Y-63031371D01*
D46*
X89000000Y-102550000D03*
D47*
X89000000Y-100010000D03*
D46*
X89000000Y-105090000D03*
D33*
X162000000Y-105600000D03*
X163500000Y-94350000D03*
X148500000Y-83850000D03*
X138900000Y-88650000D03*
X153000000Y-104550000D03*
D32*
X191290000Y-136600000D03*
X191290000Y-133560000D03*
X188750000Y-133560000D03*
X188750000Y-136600000D03*
X186210000Y-136600000D03*
X186210000Y-133560000D03*
X183670000Y-133560000D03*
X183670000Y-136600000D03*
X181130000Y-136600000D03*
X181130000Y-133560000D03*
X178590000Y-133560000D03*
X178590000Y-136600000D03*
X176050000Y-136600000D03*
X176050000Y-133560000D03*
D48*
X168430000Y-133560000D03*
D32*
X168430000Y-136600000D03*
X170970000Y-133560000D03*
X170970000Y-136600000D03*
X173510000Y-133560000D03*
X173510000Y-136600000D03*
D23*
X72080000Y-141790000D03*
D24*
X75120000Y-141790000D03*
X72080000Y-139250000D03*
X75120000Y-139250000D03*
X72080000Y-136710000D03*
X75120000Y-136710000D03*
D49*
X292400000Y-113400000D03*
D40*
X90250000Y-119000000D03*
D27*
X339400000Y-118400000D03*
X341100000Y-118400000D03*
X148550000Y-89550000D03*
X146850000Y-89550000D03*
X146850000Y-86950000D03*
X148550000Y-86950000D03*
X181550000Y-69150000D03*
X179850000Y-69150000D03*
X181450000Y-66350000D03*
X179750000Y-66350000D03*
X192550000Y-70550000D03*
X194250000Y-70550000D03*
X195750000Y-70550000D03*
X197450000Y-70550000D03*
X219500000Y-123100000D03*
X217800000Y-123100000D03*
X247000000Y-97750000D03*
X245300000Y-97750000D03*
X246449100Y-80350000D03*
X244749100Y-80350000D03*
X246450000Y-77850000D03*
X244750000Y-77850000D03*
X290200000Y-80150000D03*
X291900000Y-80150000D03*
X284800000Y-78000000D03*
X286500000Y-78000000D03*
X260700000Y-81800000D03*
X262400000Y-81800000D03*
X306250000Y-125750000D03*
X306250000Y-124050000D03*
X307550000Y-78150000D03*
X309250000Y-78150000D03*
X307550000Y-80950000D03*
X309250000Y-80950000D03*
X249800000Y-100750000D03*
X251500000Y-100750000D03*
X255500000Y-65650000D03*
X253800000Y-65650000D03*
X255650000Y-68400000D03*
X253950000Y-68400000D03*
X219500000Y-120500000D03*
X217800000Y-120500000D03*
X302700000Y-125800000D03*
X302700000Y-124100000D03*
D50*
X350000000Y-63700000D03*
D51*
X350000000Y-54300000D03*
D52*
X345100000Y-59000000D03*
X353300000Y-59000000D03*
D50*
X86000000Y-54300000D03*
D51*
X86000000Y-63700000D03*
D52*
X90900000Y-59000000D03*
X82700000Y-59000000D03*
D50*
X73000000Y-54300000D03*
D51*
X73000000Y-63700000D03*
D52*
X77900000Y-59000000D03*
X69700000Y-59000000D03*
D50*
X99000000Y-54300000D03*
D51*
X99000000Y-63700000D03*
D52*
X103900000Y-59000000D03*
X95700000Y-59000000D03*
D50*
X363000000Y-128700000D03*
D51*
X363000000Y-119300000D03*
D52*
X358100000Y-124000000D03*
X366300000Y-124000000D03*
D50*
X363000000Y-102700000D03*
D51*
X363000000Y-93300000D03*
D52*
X358100000Y-98000000D03*
X366300000Y-98000000D03*
D50*
X350000000Y-128700000D03*
D51*
X350000000Y-119300000D03*
D52*
X345100000Y-124000000D03*
X353300000Y-124000000D03*
D50*
X363000000Y-115700000D03*
D51*
X363000000Y-106300000D03*
D52*
X358100000Y-111000000D03*
X366300000Y-111000000D03*
D50*
X350000000Y-102700000D03*
D51*
X350000000Y-93300000D03*
D52*
X345100000Y-98000000D03*
X353300000Y-98000000D03*
D50*
X363000000Y-89700000D03*
D51*
X363000000Y-80300000D03*
D52*
X358100000Y-85000000D03*
X366300000Y-85000000D03*
D50*
X350000000Y-89700000D03*
D51*
X350000000Y-80300000D03*
D52*
X345100000Y-85000000D03*
X353300000Y-85000000D03*
D50*
X363000000Y-76700000D03*
D51*
X363000000Y-67300000D03*
D52*
X358100000Y-72000000D03*
X366300000Y-72000000D03*
D50*
X363000000Y-63700000D03*
D51*
X363000000Y-54300000D03*
D52*
X358100000Y-59000000D03*
X366300000Y-59000000D03*
D50*
X350000000Y-115700000D03*
D51*
X350000000Y-106300000D03*
D52*
X345100000Y-111000000D03*
X353300000Y-111000000D03*
D50*
X350000000Y-76700000D03*
D51*
X350000000Y-67300000D03*
D52*
X345100000Y-72000000D03*
X353300000Y-72000000D03*
D53*
X107500000Y-180750000D03*
X107500000Y-168250000D03*
X102500000Y-180750000D03*
X102500000Y-168250000D03*
D49*
X100500000Y-174500000D03*
X109500000Y-174500000D03*
D11*
X124500000Y-180500000D03*
X228500000Y-180500000D03*
D21*
X92000000Y-164730000D03*
D22*
X92000000Y-167270000D03*
D21*
X105000000Y-164730000D03*
D22*
X105000000Y-167270000D03*
D21*
X118000000Y-164730000D03*
D22*
X118000000Y-167270000D03*
D21*
X131000000Y-164730000D03*
D22*
X131000000Y-167270000D03*
D21*
X144000000Y-164730000D03*
D22*
X144000000Y-167270000D03*
D21*
X157000000Y-164730000D03*
D22*
X157000000Y-167270000D03*
D21*
X170000000Y-164730000D03*
D22*
X170000000Y-167270000D03*
D21*
X196000000Y-164730000D03*
D22*
X196000000Y-167270000D03*
D21*
X209000000Y-164730000D03*
D22*
X209000000Y-167270000D03*
D21*
X222000000Y-164730000D03*
D22*
X222000000Y-167270000D03*
D21*
X235000000Y-164730000D03*
D22*
X235000000Y-167270000D03*
D21*
X248000000Y-164730000D03*
D22*
X248000000Y-167270000D03*
D21*
X261000000Y-164730000D03*
D22*
X261000000Y-167270000D03*
D21*
X274000000Y-164730000D03*
D22*
X274000000Y-167270000D03*
D21*
X79000000Y-164730000D03*
D22*
X79000000Y-167270000D03*
D21*
X183000000Y-164730000D03*
D22*
X183000000Y-167270000D03*
D53*
X276500000Y-180750000D03*
X276500000Y-168250000D03*
X271500000Y-180750000D03*
X271500000Y-168250000D03*
D49*
X269500000Y-174500000D03*
X278500000Y-174500000D03*
D53*
X263500000Y-180750000D03*
X263500000Y-168250000D03*
X258500000Y-180750000D03*
X258500000Y-168250000D03*
D49*
X256500000Y-174500000D03*
X265500000Y-174500000D03*
D53*
X250500000Y-180750000D03*
X250500000Y-168250000D03*
X245500000Y-180750000D03*
X245500000Y-168250000D03*
D49*
X243500000Y-174500000D03*
X252500000Y-174500000D03*
D53*
X237500000Y-180750000D03*
X237500000Y-168250000D03*
X232500000Y-180750000D03*
X232500000Y-168250000D03*
D49*
X230500000Y-174500000D03*
X239500000Y-174500000D03*
D53*
X224500000Y-180750000D03*
X224500000Y-168250000D03*
X219500000Y-180750000D03*
X219500000Y-168250000D03*
D49*
X217500000Y-174500000D03*
X226500000Y-174500000D03*
D53*
X211500000Y-180750000D03*
X211500000Y-168250000D03*
X206500000Y-180750000D03*
X206500000Y-168250000D03*
D49*
X204500000Y-174500000D03*
X213500000Y-174500000D03*
D53*
X198500000Y-180750000D03*
X198500000Y-168250000D03*
X193500000Y-180750000D03*
X193500000Y-168250000D03*
D49*
X191500000Y-174500000D03*
X200500000Y-174500000D03*
D53*
X185500000Y-180750000D03*
X185500000Y-168250000D03*
X180500000Y-180750000D03*
X180500000Y-168250000D03*
D49*
X178500000Y-174500000D03*
X187500000Y-174500000D03*
D53*
X172500000Y-180750000D03*
X172500000Y-168250000D03*
X167500000Y-180750000D03*
X167500000Y-168250000D03*
D49*
X165500000Y-174500000D03*
X174500000Y-174500000D03*
D53*
X159500000Y-180750000D03*
X159500000Y-168250000D03*
X154500000Y-180750000D03*
X154500000Y-168250000D03*
D49*
X152500000Y-174500000D03*
X161500000Y-174500000D03*
D53*
X146500000Y-180750000D03*
X146500000Y-168250000D03*
X141500000Y-180750000D03*
X141500000Y-168250000D03*
D49*
X139500000Y-174500000D03*
X148500000Y-174500000D03*
D53*
X133500000Y-180750000D03*
X133500000Y-168250000D03*
X128500000Y-180750000D03*
X128500000Y-168250000D03*
D49*
X126500000Y-174500000D03*
X135500000Y-174500000D03*
D53*
X120500000Y-180750000D03*
X120500000Y-168250000D03*
X115500000Y-180750000D03*
X115500000Y-168250000D03*
D49*
X113500000Y-174500000D03*
X122500000Y-174500000D03*
D53*
X94500000Y-180750000D03*
X94500000Y-168250000D03*
X89500000Y-180750000D03*
X89500000Y-168250000D03*
D49*
X87500000Y-174500000D03*
X96500000Y-174500000D03*
D53*
X81500000Y-180750000D03*
X81500000Y-168250000D03*
X76500000Y-180750000D03*
X76500000Y-168250000D03*
D49*
X74500000Y-174500000D03*
X83500000Y-174500000D03*
D54*
X72000000Y-160000000D03*
X280500000Y-160000000D03*
X177500000Y-162500000D03*
D11*
X176500000Y-180500000D03*
X282000000Y-180000000D03*
X71000000Y-180000000D03*
D55*
X80500000Y-162850000D03*
X81500000Y-162850000D03*
X82500000Y-162850000D03*
X83500000Y-162850000D03*
X84500000Y-162850000D03*
X85500000Y-162850000D03*
X86500000Y-162850000D03*
X87500000Y-162850000D03*
D56*
X77350000Y-160500000D03*
X90650000Y-160500000D03*
D33*
X74000000Y-165000000D03*
D34*
X141800000Y-59000000D03*
X132200000Y-59000000D03*
D35*
X139500000Y-66500000D03*
X137000000Y-66500000D03*
X134500000Y-66500000D03*
D57*
X141800000Y-57100000D03*
X141800000Y-60900000D03*
X132200000Y-57100000D03*
X132200000Y-60900000D03*
D34*
X321800000Y-59000000D03*
X312200000Y-59000000D03*
D35*
X319500000Y-66500000D03*
X317000000Y-66500000D03*
X314500000Y-66500000D03*
D57*
X321800000Y-57100000D03*
X321800000Y-60900000D03*
X312200000Y-57100000D03*
X312200000Y-60900000D03*
D34*
X303800000Y-77000000D03*
X294200000Y-77000000D03*
D35*
X301500000Y-84500000D03*
X299000000Y-84500000D03*
X296500000Y-84500000D03*
D57*
X303800000Y-75100000D03*
X303800000Y-78900000D03*
X294200000Y-75100000D03*
X294200000Y-78900000D03*
D34*
X361300000Y-135000000D03*
X351700000Y-135000000D03*
D35*
X359000000Y-142500000D03*
X356500000Y-142500000D03*
X354000000Y-142500000D03*
D57*
X361300000Y-133100000D03*
X361300000Y-136900000D03*
X351700000Y-133100000D03*
X351700000Y-136900000D03*
D34*
X303800000Y-95000000D03*
X294200000Y-95000000D03*
D35*
X301500000Y-102500000D03*
X299000000Y-102500000D03*
X296500000Y-102500000D03*
D57*
X303800000Y-93100000D03*
X303800000Y-96900000D03*
X294200000Y-93100000D03*
X294200000Y-96900000D03*
D34*
X321800000Y-95000000D03*
X312200000Y-95000000D03*
D35*
X319500000Y-102500000D03*
X317000000Y-102500000D03*
X314500000Y-102500000D03*
D57*
X321800000Y-93100000D03*
X321800000Y-96900000D03*
X312200000Y-93100000D03*
X312200000Y-96900000D03*
D34*
X159800000Y-59000000D03*
X150200000Y-59000000D03*
D35*
X157500000Y-66500000D03*
X155000000Y-66500000D03*
X152500000Y-66500000D03*
D57*
X159800000Y-57100000D03*
X159800000Y-60900000D03*
X150200000Y-57100000D03*
X150200000Y-60900000D03*
D34*
X159800000Y-77000000D03*
X150200000Y-77000000D03*
D35*
X157500000Y-84500000D03*
X155000000Y-84500000D03*
X152500000Y-84500000D03*
D57*
X159800000Y-75100000D03*
X159800000Y-78900000D03*
X150200000Y-75100000D03*
X150200000Y-78900000D03*
D34*
X285800000Y-59000000D03*
X276200000Y-59000000D03*
D35*
X283500000Y-66500000D03*
X281000000Y-66500000D03*
X278500000Y-66500000D03*
D57*
X285800000Y-57100000D03*
X285800000Y-60900000D03*
X276200000Y-57100000D03*
X276200000Y-60900000D03*
D34*
X159800000Y-95000000D03*
X150200000Y-95000000D03*
D35*
X157500000Y-102500000D03*
X155000000Y-102500000D03*
X152500000Y-102500000D03*
D57*
X159800000Y-93100000D03*
X159800000Y-96900000D03*
X150200000Y-93100000D03*
X150200000Y-96900000D03*
D34*
X303800000Y-59000000D03*
X294200000Y-59000000D03*
D35*
X301500000Y-66500000D03*
X299000000Y-66500000D03*
X296500000Y-66500000D03*
D57*
X303800000Y-57100000D03*
X303800000Y-60900000D03*
X294200000Y-57100000D03*
X294200000Y-60900000D03*
D34*
X177800000Y-77000000D03*
X168200000Y-77000000D03*
D35*
X175500000Y-84500000D03*
X173000000Y-84500000D03*
X170500000Y-84500000D03*
D57*
X177800000Y-75100000D03*
X177800000Y-78900000D03*
X168200000Y-75100000D03*
X168200000Y-78900000D03*
D34*
X339800000Y-59000000D03*
X330200000Y-59000000D03*
D35*
X337500000Y-66500000D03*
X335000000Y-66500000D03*
X332500000Y-66500000D03*
D57*
X339800000Y-57100000D03*
X339800000Y-60900000D03*
X330200000Y-57100000D03*
X330200000Y-60900000D03*
D34*
X177800000Y-95000000D03*
X168200000Y-95000000D03*
D35*
X175500000Y-102500000D03*
X173000000Y-102500000D03*
X170500000Y-102500000D03*
D57*
X177800000Y-93100000D03*
X177800000Y-96900000D03*
X168200000Y-93100000D03*
X168200000Y-96900000D03*
D34*
X195800000Y-59000000D03*
X186200000Y-59000000D03*
D35*
X193500000Y-66500000D03*
X191000000Y-66500000D03*
X188500000Y-66500000D03*
D57*
X195800000Y-57100000D03*
X195800000Y-60900000D03*
X186200000Y-57100000D03*
X186200000Y-60900000D03*
D34*
X195800000Y-77000000D03*
X186200000Y-77000000D03*
D35*
X193500000Y-84500000D03*
X191000000Y-84500000D03*
X188500000Y-84500000D03*
D57*
X195800000Y-75100000D03*
X195800000Y-78900000D03*
X186200000Y-75100000D03*
X186200000Y-78900000D03*
D34*
X213800000Y-59000000D03*
X204200000Y-59000000D03*
D35*
X211500000Y-66500000D03*
X209000000Y-66500000D03*
X206500000Y-66500000D03*
D57*
X213800000Y-57100000D03*
X213800000Y-60900000D03*
X204200000Y-57100000D03*
X204200000Y-60900000D03*
D34*
X213800000Y-77000000D03*
X204200000Y-77000000D03*
D35*
X211500000Y-84500000D03*
X209000000Y-84500000D03*
X206500000Y-84500000D03*
D57*
X213800000Y-75100000D03*
X213800000Y-78900000D03*
X204200000Y-75100000D03*
X204200000Y-78900000D03*
D34*
X231800000Y-59000000D03*
X222200000Y-59000000D03*
D35*
X229500000Y-66500000D03*
X227000000Y-66500000D03*
X224500000Y-66500000D03*
D57*
X231800000Y-57100000D03*
X231800000Y-60900000D03*
X222200000Y-57100000D03*
X222200000Y-60900000D03*
D34*
X231800000Y-77000000D03*
X222200000Y-77000000D03*
D35*
X229500000Y-84500000D03*
X227000000Y-84500000D03*
X224500000Y-84500000D03*
D57*
X231800000Y-75100000D03*
X231800000Y-78900000D03*
X222200000Y-75100000D03*
X222200000Y-78900000D03*
D34*
X249800000Y-59000000D03*
X240200000Y-59000000D03*
D35*
X247500000Y-66500000D03*
X245000000Y-66500000D03*
X242500000Y-66500000D03*
D57*
X249800000Y-57100000D03*
X249800000Y-60900000D03*
X240200000Y-57100000D03*
X240200000Y-60900000D03*
D34*
X267800000Y-59000000D03*
X258200000Y-59000000D03*
D35*
X265500000Y-66500000D03*
X263000000Y-66500000D03*
X260500000Y-66500000D03*
D57*
X267800000Y-57100000D03*
X267800000Y-60900000D03*
X258200000Y-57100000D03*
X258200000Y-60900000D03*
D34*
X177800000Y-59000000D03*
X168200000Y-59000000D03*
D35*
X175500000Y-66500000D03*
X173000000Y-66500000D03*
X170500000Y-66500000D03*
D57*
X177800000Y-57100000D03*
X177800000Y-60900000D03*
X168200000Y-57100000D03*
X168200000Y-60900000D03*
M02*
