  0
SECTION
  2
HEADER
  9
$ACADVER
  1
AC1009
  9
$DWGCODEPAGE
  3
ansi_1252
  9
$INSBASE
 10
0.0
 20
0.0
 30
0.0
  9
$EXTMIN
 10
0.0
 20
0.0
 30
0.0
  9
$EXTMAX
 10
174.978
 20
144.798
 30
30.05942706542096
  9
$LIMMIN
 10
0.0
 20
0.0
  9
$LIMMAX
 10
420.0
 20
297.0
  9
$ORTHOMODE
 70
     0
  9
$REGENMODE
 70
     1
  9
$FILLMODE
 70
     1
  9
$QTEXTMODE
 70
     0
  9
$MIRRTEXT
 70
     1
  9
$DRAGMODE
 70
     2
  9
$LTSCALE
 40
1.0
  9
$OSMODE
 70
    37
  9
$ATTMODE
 70
     1
  9
$TEXTSIZE
 40
2.5
  9
$TRACEWID
 40
1.0
  9
$TEXTSTYLE
  7
STANDARD
  9
$CLAYER
  8
0
  9
$CELTYPE
  6
BYLAYER
  9
$CECOLOR
 62
   256
  9
$DIMSCALE
 40
1.0
  9
$DIMASZ
 40
2.5
  9
$DIMEXO
 40
0.625
  9
$DIMDLI
 40
3.75
  9
$DIMRND
 40
0.0
  9
$DIMDLE
 40
0.0
  9
$DIMEXE
 40
1.25
  9
$DIMTP
 40
0.0
  9
$DIMTM
 40
0.0
  9
$DIMTXT
 40
2.5
  9
$DIMCEN
 40
2.5
  9
$DIMTSZ
 40
0.0
  9
$DIMTOL
 70
     0
  9
$DIMLIM
 70
     0
  9
$DIMTIH
 70
     0
  9
$DIMTOH
 70
     0
  9
$DIMSE1
 70
     0
  9
$DIMSE2
 70
     0
  9
$DIMTAD
 70
     1
  9
$DIMZIN
 70
     8
  9
$DIMBLK
  1

  9
$DIMASO
 70
     1
  9
$DIMSHO
 70
     1
  9
$DIMPOST
  1

  9
$DIMAPOST
  1

  9
$DIMALT
 70
     0
  9
$DIMALTD
 70
     3
  9
$DIMALTF
 40
0.03937007874016
  9
$DIMLFAC
 40
1.0
  9
$DIMTOFL
 70
     1
  9
$DIMTVP
 40
0.0
  9
$DIMTIX
 70
     0
  9
$DIMSOXD
 70
     0
  9
$DIMSAH
 70
     0
  9
$DIMBLK1
  1

  9
$DIMBLK2
  1

  9
$DIMSTYLE
  2
ISO-25
  9
$DIMCLRD
 70
     0
  9
$DIMCLRE
 70
     0
  9
$DIMCLRT
 70
     0
  9
$DIMTFAC
 40
1.0
  9
$DIMGAP
 40
0.625
  9
$LUNITS
 70
     2
  9
$LUPREC
 70
     4
  9
$SKETCHINC
 40
1.0
  9
$FILLETRAD
 40
10.0
  9
$AUNITS
 70
     0
  9
$AUPREC
 70
     0
  9
$MENU
  1
.
  9
$ELEVATION
 40
0.0
  9
$PELEVATION
 40
0.0
  9
$THICKNESS
 40
0.0
  9
$LIMCHECK
 70
     0
  9
$CHAMFERA
 40
0.0
  9
$CHAMFERB
 40
0.0
  9
$SKPOLY
 70
     0
  9
$TDCREATE
 40
2305814.569722222
  9
$TDUPDATE
 40
2457635.736397535
  9
$TDINDWG
 40
0.0000000116
  9
$TDUSRTIMER
 40
0.0000000116
  9
$USRTIMER
 70
     1
  9
$ANGBASE
 50
0.0
  9
$ANGDIR
 70
     0
  9
$PDMODE
 70
     0
  9
$PDSIZE
 40
0.0
  9
$PLINEWID
 40
0.0
  9
$COORDS
 70
     1
  9
$SPLFRAME
 70
     0
  9
$SPLINETYPE
 70
     6
  9
$SPLINESEGS
 70
     8
  9
$ATTDIA
 70
     0
  9
$ATTREQ
 70
     1
  9
$HANDLING
 70
     1
  9
$HANDSEED
  5
12D
  9
$SURFTAB1
 70
     6
  9
$SURFTAB2
 70
     6
  9
$SURFTYPE
 70
     6
  9
$SURFU
 70
     6
  9
$SURFV
 70
     6
  9
$UCSNAME
  2

  9
$UCSORG
 10
0.0
 20
0.0
 30
0.0
  9
$UCSXDIR
 10
1.0
 20
0.0
 30
0.0
  9
$UCSYDIR
 10
0.0
 20
1.0
 30
0.0
  9
$PUCSNAME
  2

  9
$PUCSORG
 10
0.0
 20
0.0
 30
0.0
  9
$PUCSXDIR
 10
1.0
 20
0.0
 30
0.0
  9
$PUCSYDIR
 10
0.0
 20
1.0
 30
0.0
  9
$USERI1
 70
     0
  9
$USERI2
 70
     0
  9
$USERI3
 70
     0
  9
$USERI4
 70
     0
  9
$USERI5
 70
     0
  9
$USERR1
 40
0.0
  9
$USERR2
 40
0.0
  9
$USERR3
 40
0.0
  9
$USERR4
 40
0.0
  9
$USERR5
 40
0.0
  9
$WORLDVIEW
 70
     1
  9
$SHADEDGE
 70
     3
  9
$SHADEDIF
 70
    70
  9
$TILEMODE
 70
     1
  9
$MAXACTVP
 70
    64
  9
$PLIMCHECK
 70
     0
  9
$PEXTMIN
 10
1.000000000000000E+20
 20
1.000000000000000E+20
 30
1.000000000000000E+20
  9
$PEXTMAX
 10
-1.000000000000000E+20
 20
-1.000000000000000E+20
 30
-1.000000000000000E+20
  9
$PLIMMIN
 10
0.0
 20
0.0
  9
$PLIMMAX
 10
420.0
 20
297.0
  9
$UNITMODE
 70
     0
  9
$VISRETAIN
 70
     1
  9
$PLINEGEN
 70
     0
  9
$PSLTSCALE
 70
     1
  0
ENDSEC
  0
SECTION
  2
TABLES
  0
TABLE
  2
VPORT
 70
     1
  0
VPORT
  2
*ACTIVE
 70
     0
 10
0.0
 20
0.0
 11
1.0
 21
1.0
 12
137.9625
 22
107.1915
 13
0.0
 23
0.0
 14
10.0
 24
10.0
 15
10.0
 25
10.0
 16
0.0
 26
0.0
 36
1.0
 17
0.0
 27
0.0
 37
0.0
 40
76.71726000000002
 41
0.9842846316461248
 42
50.0
 43
0.0
 44
0.0
 50
0.0
 51
0.0
 71
     0
 72
   100
 73
     1
 74
     3
 75
     0
 76
     0
 77
     0
 78
     0
  0
ENDTAB
  0
TABLE
  2
LTYPE
 70
    11
  0
LTYPE
  2
CONTINUOUS
 70
     0
  3
Solid line
 72
    65
 73
     0
 40
0.0
  0
LTYPE
  2
BORDER
 70
     0
  3
__ __ . __ __ . __ 
 72
    65
 73
     6
 40
0.875
 49
0.25
 49
-0.125
 49
0.25
 49
-0.125
 49
0.0
 49
-0.125
  0
LTYPE
  2
CENTER
 70
     0
  3
___ _ ___ _ ___ _ _
 72
    65
 73
     4
 40
1.125
 49
0.75
 49
-0.125
 49
0.125
 49
-0.125
  0
LTYPE
  2
DASHDOT
 70
     0
  3
_._._._._._._._._._
 72
    65
 73
     4
 40
0.5
 49
0.25
 49
-0.125
 49
0.0
 49
-0.125
  0
LTYPE
  2
DASHED
 70
     0
  3
_ _ _ _ _ _ _ _ _ _
 72
    65
 73
     2
 40
0.375
 49
0.25
 49
-0.125
  0
LTYPE
  2
DIVIDE
 70
     0
  3
__..__..__..__..__.
 72
    65
 73
     6
 40
0.625
 49
0.25
 49
-0.125
 49
0.0
 49
-0.125
 49
0.0
 49
-0.125
  0
LTYPE
  2
DOT
 70
     0
  3
...................
 72
    65
 73
     2
 40
0.125
 49
0.0
 49
-0.125
  0
LTYPE
  2
HIDDEN
 70
     0
  3
__ __ __ __ __ __ _
 72
    65
 73
     2
 40
0.1875
 49
0.125
 49
-0.0625
  0
LTYPE
  2
PHANTOM
 70
     0
  3
___ _ _ ___ _ _ ___
 72
    65
 73
     6
 40
1.25
 49
0.625
 49
-0.125
 49
0.125
 49
-0.125
 49
0.125
 49
-0.125
  0
LTYPE
  2
CUTTING
 70
     0
  3
________ _ _ ______
 72
    65
 73
     6
 40
1.4675
 49
1.0
 49
-0.0725
 49
0.125
 49
-0.0725
 49
0.125
 49
-0.0725
  0
LTYPE
  2
STITCH
 70
     0
  3
_ _ _ _ _ _ _ _ _ _
 72
    65
 73
     2
 40
0.145
 49
0.0725
 49
-0.0725
  0
ENDTAB
  0
TABLE
  2
LAYER
 70
     4
  0
LAYER
  2
0
 70
     0
 62
     7
  6
CONTINUOUS
  0
LAYER
  2
DXF_79LOGO
 70
     0
 62
     7
  6
CONTINUOUS
  0
LAYER
  2
DXF_79LOGO_MODEL
 70
     0
 62
     7
  6
CONTINUOUS
  0
LAYER
  2
DXF_79LOGO_MODEL_H
 70
     0
 62
     7
  6
CONTINUOUS
  0
ENDTAB
  0
TABLE
  2
STYLE
 70
     1
  0
STYLE
  2
STANDARD
 70
     0
 40
0.0
 41
1.0
 50
0.0
 71
     0
 42
2.5
  3
txt
  4

  0
ENDTAB
  0
TABLE
  2
VIEW
 70
     0
  0
ENDTAB
  0
TABLE
  2
UCS
 70
     0
  0
ENDTAB
  0
TABLE
  2
APPID
 70
     2
  0
APPID
  2
ACAD
 70
     0
  0
APPID
  2
ENCORE_SOFTWARE_VIACAD
 70
     0
  0
ENDTAB
  0
TABLE
  2
DIMSTYLE
 70
     1
  0
DIMSTYLE
  2
ISO-25
 70
     0
  3

  4

  5

  6

  7

 40
1.0
 41
2.5
 42
0.625
 43
3.75
 44
1.25
 45
0.0
 46
0.0
 47
0.0
 48
0.0
140
2.5
141
2.5
142
0.0
143
0.03937007874016
144
1.0
145
0.0
146
1.0
147
0.625
 71
     0
 72
     0
 73
     0
 74
     0
 75
     0
 76
     0
 77
     1
 78
     8
170
     0
171
     3
172
     1
173
     0
174
     0
175
     0
176
     0
177
     0
178
     0
  0
ENDTAB
  0
ENDSEC
  0
SECTION
  2
BLOCKS
  0
BLOCK
  8
0
  2
$MODEL_SPACE
 70
     0
 10
0.0
 20
0.0
 30
0.0
  3
$MODEL_SPACE
  1

  0
ENDBLK
  5
21
  8
0
  0
BLOCK
 67
     1
  8
0
  2
$PAPER_SPACE
 70
     0
 10
0.0
 20
0.0
 30
0.0
  3
$PAPER_SPACE
  1

  0
ENDBLK
  5
1D
 67
     1
  8
0
  0
ENDSEC
  0
SECTION
  2
ENTITIES
  0
LINE
  5
78
  8
DXF_79LOGO_MODEL_H
 62
    18
 10
108.268
 20
69.58499999999998
 30
0.0
 11
107.738
 21
69.603
 31
0.0
  0
LINE
  5
79
  8
DXF_79LOGO_MODEL_H
 62
    18
 10
107.738
 20
69.603
 30
0.0
 11
107.05
 21
69.797
 31
0.0
  0
LINE
  5
7A
  8
DXF_79LOGO_MODEL_H
 62
    18
 10
107.05
 20
69.797
 30
0.0
 11
106.927
 21
69.868
 31
0.0
  0
LINE
  5
7B
  8
DXF_79LOGO_MODEL_H
 62
    18
 10
106.927
 20
69.868
 30
0.0
 11
105.886
 21
70.60799999999999
 31
0.0
  0
LINE
  5
7C
  8
DXF_79LOGO_MODEL_H
 62
    18
 10
105.886
 20
70.60799999999999
 30
0.0
 11
105.234
 21
71.614
 31
0.0
  0
LINE
  5
7D
  8
DXF_79LOGO_MODEL_H
 62
    18
 10
105.234
 20
71.614
 30
0.0
 11
105.198
 21
71.702
 31
0.0
  0
LINE
  5
7E
  8
DXF_79LOGO_MODEL_H
 62
    18
 10
105.198
 20
71.702
 30
0.0
 11
105.022
 21
72.972
 31
0.0
  0
LINE
  5
7F
  8
DXF_79LOGO_MODEL_H
 62
    18
 10
105.022
 20
72.972
 30
0.0
 11
105.304
 21
74.154
 31
0.0
  0
LINE
  5
80
  8
DXF_79LOGO_MODEL_H
 62
    18
 10
105.304
 20
74.154
 30
0.0
 11
132.08
 21
138.324
 31
0.0
  0
LINE
  5
81
  8
DXF_79LOGO_MODEL_H
 62
    18
 10
132.08
 20
138.324
 30
0.0
 11
104.087
 21
138.324
 31
0.0
  0
LINE
  5
82
  8
DXF_79LOGO_MODEL_H
 62
    18
 10
104.087
 20
138.324
 30
0.0
 11
102.852
 21
138.553
 31
0.0
  0
LINE
  5
83
  8
DXF_79LOGO_MODEL_H
 62
    18
 10
102.852
 20
138.553
 30
0.0
 11
101.847
 21
139.277
 31
0.0
  0
LINE
  5
84
  8
DXF_79LOGO_MODEL_H
 62
    18
 10
101.847
 20
139.277
 30
0.0
 11
101.159
 21
140.335
 31
0.0
  0
LINE
  5
85
  8
DXF_79LOGO_MODEL_H
 62
    18
 10
101.159
 20
140.335
 30
0.0
 11
100.947
 21
141.605
 31
0.0
  0
LINE
  5
86
  8
DXF_79LOGO_MODEL_H
 62
    18
 10
100.947
 20
141.605
 30
0.0
 11
101.159
 21
142.787
 31
0.0
  0
LINE
  5
87
  8
DXF_79LOGO_MODEL_H
 62
    18
 10
101.159
 20
142.787
 30
0.0
 11
101.847
 21
143.828
 31
0.0
  0
LINE
  5
88
  8
DXF_79LOGO_MODEL_H
 62
    18
 10
101.847
 20
143.828
 30
0.0
 11
102.87
 21
144.533
 31
0.0
  0
LINE
  5
89
  8
DXF_79LOGO_MODEL_H
 62
    18
 10
102.87
 20
144.533
 30
0.0
 11
104.087
 21
144.798
 31
0.0
  0
LINE
  5
8A
  8
DXF_79LOGO_MODEL_H
 62
    18
 10
104.087
 20
144.798
 30
0.0
 11
136.931
 21
144.798
 31
0.0
  0
LINE
  5
8B
  8
DXF_79LOGO_MODEL_H
 62
    18
 10
136.931
 20
144.798
 30
0.0
 11
137.742
 21
144.692
 31
0.0
  0
LINE
  5
8C
  8
DXF_79LOGO_MODEL_H
 62
    18
 10
137.742
 20
144.692
 30
0.0
 11
138.483
 21
144.427
 31
0.0
  0
LINE
  5
8D
  8
DXF_79LOGO_MODEL_H
 62
    18
 10
138.483
 20
144.427
 30
0.0
 11
139.1
 21
143.951
 31
0.0
  0
LINE
  5
8E
  8
DXF_79LOGO_MODEL_H
 62
    18
 10
139.1
 20
143.951
 30
0.0
 11
139.594
 21
143.351
 31
0.0
  0
LINE
  5
8F
  8
DXF_79LOGO_MODEL_H
 62
    18
 10
139.594
 20
143.351
 30
0.0
 11
140.0
 21
142.628
 31
0.0
  0
LINE
  5
90
  8
DXF_79LOGO_MODEL_H
 62
    18
 10
140.0
 20
142.628
 30
0.0
 11
140.212
 21
141.87
 31
0.0
  0
LINE
  5
91
  8
DXF_79LOGO_MODEL_H
 62
    18
 10
140.212
 20
141.87
 30
0.0
 11
140.212
 21
141.076
 31
0.0
  0
LINE
  5
92
  8
DXF_79LOGO_MODEL_H
 62
    18
 10
140.212
 20
141.076
 30
0.0
 11
140.0
 21
140.282
 31
0.0
  0
LINE
  5
93
  8
DXF_79LOGO_MODEL_H
 62
    18
 10
140.0
 20
140.282
 30
0.0
 11
111.319
 21
71.56099999999999
 31
0.0
  0
LINE
  5
94
  8
DXF_79LOGO_MODEL_H
 62
    18
 10
111.319
 20
71.56099999999999
 30
0.0
 11
110.737
 21
70.697
 31
0.0
  0
LINE
  5
95
  8
DXF_79LOGO_MODEL_H
 62
    18
 10
110.737
 20
70.697
 30
0.0
 11
110.049
 21
70.07899999999998
 31
0.0
  0
LINE
  5
96
  8
DXF_79LOGO_MODEL_H
 62
    18
 10
110.049
 20
70.07899999999998
 30
0.0
 11
109.22
 21
69.709
 31
0.0
  0
LINE
  5
97
  8
DXF_79LOGO_MODEL_H
 62
    18
 10
109.22
 20
69.709
 30
0.0
 11
108.268
 21
69.58499999999998
 31
0.0
  0
LINE
  5
98
  8
DXF_79LOGO_MODEL_H
 62
    18
 10
108.268
 20
69.58499999999998
 30
0.0
 11
108.268
 21
69.58499999999998
 31
0.0
  0
LINE
  5
99
  8
DXF_79LOGO_MODEL_H
 62
    18
 10
108.268
 20
69.58499999999998
 30
0.0
 11
108.268
 21
69.58499999999998
 31
0.0
  0
LINE
  5
9A
  8
DXF_79LOGO_MODEL_H
 62
    18
 10
160.02
 20
69.58499999999998
 30
0.0
 11
158.221
 21
69.656
 31
0.0
  0
LINE
  5
9B
  8
DXF_79LOGO_MODEL_H
 62
    18
 10
158.221
 20
69.656
 30
0.0
 11
156.528
 21
69.921
 31
0.0
  0
LINE
  5
9C
  8
DXF_79LOGO_MODEL_H
 62
    18
 10
156.528
 20
69.921
 30
0.0
 11
154.975
 21
70.37899999999999
 31
0.0
  0
LINE
  5
9D
  8
DXF_79LOGO_MODEL_H
 62
    18
 10
154.975
 20
70.37899999999999
 30
0.0
 11
153.494
 21
70.979
 31
0.0
  0
LINE
  5
9E
  8
DXF_79LOGO_MODEL_H
 62
    18
 10
153.494
 20
70.979
 30
0.0
 11
152.118
 21
71.773
 31
0.0
  0
LINE
  5
9F
  8
DXF_79LOGO_MODEL_H
 62
    18
 10
152.118
 20
71.773
 30
0.0
 11
150.865
 21
72.72499999999998
 31
0.0
  0
LINE
  5
A0
  8
DXF_79LOGO_MODEL_H
 62
    18
 10
150.865
 20
72.72499999999998
 30
0.0
 11
149.701
 21
73.87199999999999
 31
0.0
  0
LINE
  5
A1
  8
DXF_79LOGO_MODEL_H
 62
    18
 10
149.701
 20
73.87199999999999
 30
0.0
 11
148.678
 21
75.159
 31
0.0
  0
LINE
  5
A2
  8
DXF_79LOGO_MODEL_H
 62
    18
 10
148.678
 20
75.159
 30
0.0
 11
147.108
 21
77.89299999999999
 31
0.0
  0
LINE
  5
A3
  8
DXF_79LOGO_MODEL_H
 62
    18
 10
147.108
 20
77.89299999999999
 30
0.0
 11
145.997
 21
81.068
 31
0.0
  0
LINE
  5
A4
  8
DXF_79LOGO_MODEL_H
 62
    18
 10
145.997
 20
81.068
 30
0.0
 11
145.309
 21
84.614
 31
0.0
  0
LINE
  5
A5
  8
DXF_79LOGO_MODEL_H
 62
    18
 10
145.309
 20
84.614
 30
0.0
 11
145.098
 21
88.583
 31
0.0
  0
LINE
  5
A6
  8
DXF_79LOGO_MODEL_H
 62
    18
 10
145.098
 20
88.583
 30
0.0
 11
145.344
 21
89.958
 31
0.0
  0
LINE
  5
A7
  8
DXF_79LOGO_MODEL_H
 62
    18
 10
145.344
 20
89.958
 30
0.0
 11
145.997
 21
91.01699999999998
 31
0.0
  0
LINE
  5
A8
  8
DXF_79LOGO_MODEL_H
 62
    18
 10
145.997
 20
91.01699999999998
 30
0.0
 11
147.038
 21
91.66899999999998
 31
0.0
  0
LINE
  5
A9
  8
DXF_79LOGO_MODEL_H
 62
    18
 10
147.038
 20
91.66899999999998
 30
0.0
 11
148.378
 21
91.916
 31
0.0
  0
LINE
  5
AA
  8
DXF_79LOGO_MODEL_H
 62
    18
 10
148.378
 20
91.916
 30
0.0
 11
149.754
 21
91.66899999999998
 31
0.0
  0
LINE
  5
AB
  8
DXF_79LOGO_MODEL_H
 62
    18
 10
149.754
 20
91.66899999999998
 30
0.0
 11
150.795
 21
91.01699999999998
 31
0.0
  0
LINE
  5
AC
  8
DXF_79LOGO_MODEL_H
 62
    18
 10
150.795
 20
91.01699999999998
 30
0.0
 11
151.448
 21
89.958
 31
0.0
  0
LINE
  5
AD
  8
DXF_79LOGO_MODEL_H
 62
    18
 10
151.448
 20
89.958
 30
0.0
 11
151.694
 21
88.583
 31
0.0
  0
LINE
  5
AE
  8
DXF_79LOGO_MODEL_H
 62
    18
 10
151.694
 20
88.583
 30
0.0
 11
151.818
 21
85.56599999999999
 31
0.0
  0
LINE
  5
AF
  8
DXF_79LOGO_MODEL_H
 62
    18
 10
151.818
 20
85.56599999999999
 30
0.0
 11
152.277
 21
82.973
 31
0.0
  0
LINE
  5
B0
  8
DXF_79LOGO_MODEL_H
 62
    18
 10
152.277
 20
82.973
 30
0.0
 11
152.982
 21
80.751
 31
0.0
  0
LINE
  5
B1
  8
DXF_79LOGO_MODEL_H
 62
    18
 10
152.982
 20
80.751
 30
0.0
 11
153.97
 21
78.916
 31
0.0
  0
LINE
  5
B2
  8
DXF_79LOGO_MODEL_H
 62
    18
 10
153.97
 20
78.916
 30
0.0
 11
155.099
 21
77.646
 31
0.0
  0
LINE
  5
B3
  8
DXF_79LOGO_MODEL_H
 62
    18
 10
155.099
 20
77.646
 30
0.0
 11
156.51
 21
76.78199999999998
 31
0.0
  0
LINE
  5
B4
  8
DXF_79LOGO_MODEL_H
 62
    18
 10
156.51
 20
76.78199999999998
 30
0.0
 11
158.15
 21
76.253
 31
0.0
  0
LINE
  5
B5
  8
DXF_79LOGO_MODEL_H
 62
    18
 10
158.15
 20
76.253
 30
0.0
 11
160.02
 21
76.05899999999998
 31
0.0
  0
LINE
  5
B6
  8
DXF_79LOGO_MODEL_H
 62
    18
 10
160.02
 20
76.05899999999998
 30
0.0
 11
161.219
 21
76.147
 31
0.0
  0
LINE
  5
B7
  8
DXF_79LOGO_MODEL_H
 62
    18
 10
161.219
 20
76.147
 30
0.0
 11
162.243
 21
76.429
 31
0.0
  0
LINE
  5
B8
  8
DXF_79LOGO_MODEL_H
 62
    18
 10
162.243
 20
76.429
 30
0.0
 11
163.177
 21
76.853
 31
0.0
  0
LINE
  5
B9
  8
DXF_79LOGO_MODEL_H
 62
    18
 10
163.177
 20
76.853
 30
0.0
 11
163.971
 21
77.488
 31
0.0
  0
LINE
  5
BA
  8
DXF_79LOGO_MODEL_H
 62
    18
 10
163.971
 20
77.488
 30
0.0
 11
165.47
 21
79.39299999999999
 31
0.0
  0
LINE
  5
BB
  8
DXF_79LOGO_MODEL_H
 62
    18
 10
165.47
 20
79.39299999999999
 30
0.0
 11
166.635
 21
81.756
 31
0.0
  0
LINE
  5
BC
  8
DXF_79LOGO_MODEL_H
 62
    18
 10
166.635
 20
81.756
 30
0.0
 11
167.517
 21
84.631
 31
0.0
  0
LINE
  5
BD
  8
DXF_79LOGO_MODEL_H
 62
    18
 10
167.517
 20
84.631
 30
0.0
 11
168.01
 21
87.842
 31
0.0
  0
LINE
  5
BE
  8
DXF_79LOGO_MODEL_H
 62
    18
 10
168.01
 20
87.842
 30
0.0
 11
168.275
 21
91.12299999999999
 31
0.0
  0
LINE
  5
BF
  8
DXF_79LOGO_MODEL_H
 62
    18
 10
168.275
 20
91.12299999999999
 30
0.0
 11
168.381
 21
94.668
 31
0.0
  0
LINE
  5
C0
  8
DXF_79LOGO_MODEL_H
 62
    18
 10
168.381
 20
94.668
 30
0.0
 11
168.381
 21
98.584
 31
0.0
  0
LINE
  5
C1
  8
DXF_79LOGO_MODEL_H
 62
    18
 10
168.381
 20
98.584
 30
0.0
 11
166.529
 21
97.314
 31
0.0
  0
LINE
  5
C2
  8
DXF_79LOGO_MODEL_H
 62
    18
 10
166.529
 20
97.314
 30
0.0
 11
165.047
 21
96.57299999999998
 31
0.0
  0
LINE
  5
C3
  8
DXF_79LOGO_MODEL_H
 62
    18
 10
165.047
 20
96.57299999999998
 30
0.0
 11
163.46
 21
96.06099999999999
 31
0.0
  0
LINE
  5
C4
  8
DXF_79LOGO_MODEL_H
 62
    18
 10
163.46
 20
96.06099999999999
 30
0.0
 11
161.802
 21
95.744
 31
0.0
  0
LINE
  5
C5
  8
DXF_79LOGO_MODEL_H
 62
    18
 10
161.802
 20
95.744
 30
0.0
 11
160.02
 21
95.63799999999999
 31
0.0
  0
LINE
  5
C6
  8
DXF_79LOGO_MODEL_H
 62
    18
 10
160.02
 20
95.63799999999999
 30
0.0
 11
158.221
 21
95.72599999999998
 31
0.0
  0
LINE
  5
C7
  8
DXF_79LOGO_MODEL_H
 62
    18
 10
158.221
 20
95.72599999999998
 30
0.0
 11
156.528
 21
96.00799999999998
 31
0.0
  0
LINE
  5
C8
  8
DXF_79LOGO_MODEL_H
 62
    18
 10
156.528
 20
96.00799999999998
 30
0.0
 11
154.94
 21
96.467
 31
0.0
  0
LINE
  5
C9
  8
DXF_79LOGO_MODEL_H
 62
    18
 10
154.94
 20
96.467
 30
0.0
 11
153.458
 21
97.06699999999998
 31
0.0
  0
LINE
  5
CA
  8
DXF_79LOGO_MODEL_H
 62
    18
 10
153.458
 20
97.06699999999998
 30
0.0
 11
152.118
 21
97.896
 31
0.0
  0
LINE
  5
CB
  8
DXF_79LOGO_MODEL_H
 62
    18
 10
152.118
 20
97.896
 30
0.0
 11
150.848
 21
98.86599999999999
 31
0.0
  0
LINE
  5
CC
  8
DXF_79LOGO_MODEL_H
 62
    18
 10
150.848
 20
98.86599999999999
 30
0.0
 11
149.684
 21
100.03
 31
0.0
  0
LINE
  5
CD
  8
DXF_79LOGO_MODEL_H
 62
    18
 10
149.684
 20
100.03
 30
0.0
 11
148.643
 21
101.353
 31
0.0
  0
LINE
  5
CE
  8
DXF_79LOGO_MODEL_H
 62
    18
 10
148.643
 20
101.353
 30
0.0
 11
147.108
 21
104.246
 31
0.0
  0
LINE
  5
CF
  8
DXF_79LOGO_MODEL_H
 62
    18
 10
147.108
 20
104.246
 30
0.0
 11
145.997
 21
107.685
 31
0.0
  0
LINE
  5
D0
  8
DXF_79LOGO_MODEL_H
 62
    18
 10
145.997
 20
107.685
 30
0.0
 11
145.309
 21
111.707
 31
0.0
  0
LINE
  5
D1
  8
DXF_79LOGO_MODEL_H
 62
    18
 10
145.309
 20
111.707
 30
0.0
 11
145.098
 21
116.276
 31
0.0
  0
LINE
  5
D2
  8
DXF_79LOGO_MODEL_H
 62
    18
 10
145.098
 20
116.276
 30
0.0
 11
145.098
 21
124.195
 31
0.0
  0
LINE
  5
D3
  8
DXF_79LOGO_MODEL_H
 62
    18
 10
145.098
 20
124.195
 30
0.0
 11
145.344
 21
128.499
 31
0.0
  0
LINE
  5
D4
  8
DXF_79LOGO_MODEL_H
 62
    18
 10
145.344
 20
128.499
 30
0.0
 11
146.085
 21
132.398
 31
0.0
  0
LINE
  5
D5
  8
DXF_79LOGO_MODEL_H
 62
    18
 10
146.085
 20
132.398
 30
0.0
 11
147.32
 21
135.89
 31
0.0
  0
LINE
  5
D6
  8
DXF_79LOGO_MODEL_H
 62
    18
 10
147.32
 20
135.89
 30
0.0
 11
149.013
 21
138.906
 31
0.0
  0
LINE
  5
D7
  8
DXF_79LOGO_MODEL_H
 62
    18
 10
149.013
 20
138.906
 30
0.0
 11
150.072
 21
140.282
 31
0.0
  0
LINE
  5
D8
  8
DXF_79LOGO_MODEL_H
 62
    18
 10
150.072
 20
140.282
 30
0.0
 11
151.236
 21
141.464
 31
0.0
  0
LINE
  5
D9
  8
DXF_79LOGO_MODEL_H
 62
    18
 10
151.236
 20
141.464
 30
0.0
 11
152.488
 21
142.505
 31
0.0
  0
LINE
  5
DA
  8
DXF_79LOGO_MODEL_H
 62
    18
 10
152.488
 20
142.505
 30
0.0
 11
153.829
 21
143.316
 31
0.0
  0
LINE
  5
DB
  8
DXF_79LOGO_MODEL_H
 62
    18
 10
153.829
 20
143.316
 30
0.0
 11
155.258
 21
143.951
 31
0.0
  0
LINE
  5
DC
  8
DXF_79LOGO_MODEL_H
 62
    18
 10
155.258
 20
143.951
 30
0.0
 11
156.774
 21
144.427
 31
0.0
  0
LINE
  5
DD
  8
DXF_79LOGO_MODEL_H
 62
    18
 10
156.774
 20
144.427
 30
0.0
 11
158.362
 21
144.692
 31
0.0
  0
LINE
  5
DE
  8
DXF_79LOGO_MODEL_H
 62
    18
 10
158.362
 20
144.692
 30
0.0
 11
160.02
 21
144.798
 31
0.0
  0
LINE
  5
DF
  8
DXF_79LOGO_MODEL_H
 62
    18
 10
160.02
 20
144.798
 30
0.0
 11
161.802
 21
144.727
 31
0.0
  0
LINE
  5
E0
  8
DXF_79LOGO_MODEL_H
 62
    18
 10
161.802
 20
144.727
 30
0.0
 11
163.495
 21
144.463
 31
0.0
  0
LINE
  5
E1
  8
DXF_79LOGO_MODEL_H
 62
    18
 10
163.495
 20
144.463
 30
0.0
 11
165.082
 21
144.057
 31
0.0
  0
LINE
  5
E2
  8
DXF_79LOGO_MODEL_H
 62
    18
 10
165.082
 20
144.057
 30
0.0
 11
166.529
 21
143.475
 31
0.0
  0
LINE
  5
E3
  8
DXF_79LOGO_MODEL_H
 62
    18
 10
166.529
 20
143.475
 30
0.0
 11
167.905
 21
142.734
 31
0.0
  0
LINE
  5
E4
  8
DXF_79LOGO_MODEL_H
 62
    18
 10
167.905
 20
142.734
 30
0.0
 11
169.157
 21
141.834
 31
0.0
  0
LINE
  5
E5
  8
DXF_79LOGO_MODEL_H
 62
    18
 10
169.157
 20
141.834
 30
0.0
 11
170.321
 21
140.776
 31
0.0
  0
LINE
  5
E6
  8
DXF_79LOGO_MODEL_H
 62
    18
 10
170.321
 20
140.776
 30
0.0
 11
171.344
 21
139.559
 31
0.0
  0
LINE
  5
E7
  8
DXF_79LOGO_MODEL_H
 62
    18
 10
171.344
 20
139.559
 30
0.0
 11
172.932
 21
137.001
 31
0.0
  0
LINE
  5
E8
  8
DXF_79LOGO_MODEL_H
 62
    18
 10
172.932
 20
137.001
 30
0.0
 11
174.078
 21
133.985
 31
0.0
  0
LINE
  5
E9
  8
DXF_79LOGO_MODEL_H
 62
    18
 10
174.078
 20
133.985
 30
0.0
 11
174.731
 21
130.493
 31
0.0
  0
LINE
  5
EA
  8
DXF_79LOGO_MODEL_H
 62
    18
 10
174.731
 20
130.493
 30
0.0
 11
174.978
 21
126.524
 31
0.0
  0
LINE
  5
EB
  8
DXF_79LOGO_MODEL_H
 62
    18
 10
174.978
 20
126.524
 30
0.0
 11
174.978
 21
94.668
 31
0.0
  0
LINE
  5
EC
  8
DXF_79LOGO_MODEL_H
 62
    18
 10
174.978
 20
94.668
 30
0.0
 11
174.925
 21
91.86299999999999
 31
0.0
  0
LINE
  5
ED
  8
DXF_79LOGO_MODEL_H
 62
    18
 10
174.925
 20
91.86299999999999
 30
0.0
 11
174.766
 21
89.218
 31
0.0
  0
LINE
  5
EE
  8
DXF_79LOGO_MODEL_H
 62
    18
 10
174.766
 20
89.218
 30
0.0
 11
174.519
 21
86.783
 31
0.0
  0
LINE
  5
EF
  8
DXF_79LOGO_MODEL_H
 62
    18
 10
174.519
 20
86.783
 30
0.0
 11
174.149
 21
84.473
 31
0.0
  0
LINE
  5
F0
  8
DXF_79LOGO_MODEL_H
 62
    18
 10
174.149
 20
84.473
 30
0.0
 11
173.708
 21
82.356
 31
0.0
  0
LINE
  5
F1
  8
DXF_79LOGO_MODEL_H
 62
    18
 10
173.708
 20
82.356
 30
0.0
 11
173.126
 21
80.39799999999998
 31
0.0
  0
LINE
  5
F2
  8
DXF_79LOGO_MODEL_H
 62
    18
 10
173.126
 20
80.39799999999998
 30
0.0
 11
171.697
 21
76.941
 31
0.0
  0
LINE
  5
F3
  8
DXF_79LOGO_MODEL_H
 62
    18
 10
171.697
 20
76.941
 30
0.0
 11
170.656
 21
75.21199999999999
 31
0.0
  0
LINE
  5
F4
  8
DXF_79LOGO_MODEL_H
 62
    18
 10
170.656
 20
75.21199999999999
 30
0.0
 11
169.527
 21
73.731
 31
0.0
  0
LINE
  5
F5
  8
DXF_79LOGO_MODEL_H
 62
    18
 10
169.527
 20
73.731
 30
0.0
 11
168.257
 21
72.461
 31
0.0
  0
LINE
  5
F6
  8
DXF_79LOGO_MODEL_H
 62
    18
 10
168.257
 20
72.461
 30
0.0
 11
166.846
 21
71.438
 31
0.0
  0
LINE
  5
F7
  8
DXF_79LOGO_MODEL_H
 62
    18
 10
166.846
 20
71.438
 30
0.0
 11
165.312
 21
70.60799999999999
 31
0.0
  0
LINE
  5
F8
  8
DXF_79LOGO_MODEL_H
 62
    18
 10
165.312
 20
70.60799999999999
 30
0.0
 11
163.671
 21
70.062
 31
0.0
  0
LINE
  5
F9
  8
DXF_79LOGO_MODEL_H
 62
    18
 10
163.671
 20
70.062
 30
0.0
 11
161.907
 21
69.69099999999999
 31
0.0
  0
LINE
  5
FA
  8
DXF_79LOGO_MODEL_H
 62
    18
 10
161.907
 20
69.69099999999999
 30
0.0
 11
160.02
 21
69.58499999999998
 31
0.0
  0
LINE
  5
FB
  8
DXF_79LOGO_MODEL_H
 62
    18
 10
160.02
 20
69.58499999999998
 30
0.0
 11
160.02
 21
69.58499999999998
 31
0.0
  0
LINE
  5
FC
  8
DXF_79LOGO_MODEL_H
 62
    18
 10
160.02
 20
69.58499999999998
 30
0.0
 11
160.02
 21
69.58499999999998
 31
0.0
  0
LINE
  5
FD
  8
DXF_79LOGO_MODEL_H
 62
    18
 10
160.02
 20
138.289
 30
0.0
 11
158.256
 21
138.077
 31
0.0
  0
LINE
  5
FE
  8
DXF_79LOGO_MODEL_H
 62
    18
 10
158.256
 20
138.077
 30
0.0
 11
156.686
 21
137.425
 31
0.0
  0
LINE
  5
FF
  8
DXF_79LOGO_MODEL_H
 62
    18
 10
156.686
 20
137.425
 30
0.0
 11
155.346
 21
136.331
 31
0.0
  0
LINE
  5
100
  8
DXF_79LOGO_MODEL_H
 62
    18
 10
155.346
 20
136.331
 30
0.0
 11
154.146
 21
134.779
 31
0.0
  0
LINE
  5
101
  8
DXF_79LOGO_MODEL_H
 62
    18
 10
154.146
 20
134.779
 30
0.0
 11
153.07
 21
132.609
 31
0.0
  0
LINE
  5
102
  8
DXF_79LOGO_MODEL_H
 62
    18
 10
153.07
 20
132.609
 30
0.0
 11
152.294
 21
130.122
 31
0.0
  0
LINE
  5
103
  8
DXF_79LOGO_MODEL_H
 62
    18
 10
152.294
 20
130.122
 30
0.0
 11
151.853
 21
127.318
 31
0.0
  0
LINE
  5
104
  8
DXF_79LOGO_MODEL_H
 62
    18
 10
151.853
 20
127.318
 30
0.0
 11
151.694
 21
124.195
 31
0.0
  0
LINE
  5
105
  8
DXF_79LOGO_MODEL_H
 62
    18
 10
151.694
 20
124.195
 30
0.0
 11
151.694
 21
116.276
 31
0.0
  0
LINE
  5
106
  8
DXF_79LOGO_MODEL_H
 62
    18
 10
151.694
 20
116.276
 30
0.0
 11
151.853
 21
112.66
 31
0.0
  0
LINE
  5
107
  8
DXF_79LOGO_MODEL_H
 62
    18
 10
151.853
 20
112.66
 30
0.0
 11
152.294
 21
109.59
 31
0.0
  0
LINE
  5
108
  8
DXF_79LOGO_MODEL_H
 62
    18
 10
152.294
 20
109.59
 30
0.0
 11
153.035
 21
107.068
 31
0.0
  0
LINE
  5
109
  8
DXF_79LOGO_MODEL_H
 62
    18
 10
153.035
 20
107.068
 30
0.0
 11
154.076
 21
105.145
 31
0.0
  0
LINE
  5
10A
  8
DXF_79LOGO_MODEL_H
 62
    18
 10
154.076
 20
105.145
 30
0.0
 11
154.129
 21
105.057
 31
0.0
  0
LINE
  5
10B
  8
DXF_79LOGO_MODEL_H
 62
    18
 10
154.129
 20
105.057
 30
0.0
 11
155.187
 21
103.823
 31
0.0
  0
LINE
  5
10C
  8
DXF_79LOGO_MODEL_H
 62
    18
 10
155.187
 20
103.823
 30
0.0
 11
156.51
 21
102.941
 31
0.0
  0
LINE
  5
10D
  8
DXF_79LOGO_MODEL_H
 62
    18
 10
156.51
 20
102.941
 30
0.0
 11
158.115
 21
102.447
 31
0.0
  0
LINE
  5
10E
  8
DXF_79LOGO_MODEL_H
 62
    18
 10
158.115
 20
102.447
 30
0.0
 11
160.02
 21
102.253
 31
0.0
  0
LINE
  5
10F
  8
DXF_79LOGO_MODEL_H
 62
    18
 10
160.02
 20
102.253
 30
0.0
 11
161.854
 21
102.464
 31
0.0
  0
LINE
  5
110
  8
DXF_79LOGO_MODEL_H
 62
    18
 10
161.854
 20
102.464
 30
0.0
 11
163.442
 21
103.099
 31
0.0
  0
LINE
  5
111
  8
DXF_79LOGO_MODEL_H
 62
    18
 10
163.442
 20
103.099
 30
0.0
 11
164.783
 21
104.211
 31
0.0
  0
LINE
  5
112
  8
DXF_79LOGO_MODEL_H
 62
    18
 10
164.783
 20
104.211
 30
0.0
 11
165.947
 21
105.78
 31
0.0
  0
LINE
  5
113
  8
DXF_79LOGO_MODEL_H
 62
    18
 10
165.947
 20
105.78
 30
0.0
 11
166.952
 21
107.791
 31
0.0
  0
LINE
  5
114
  8
DXF_79LOGO_MODEL_H
 62
    18
 10
166.952
 20
107.791
 30
0.0
 11
167.728
 21
110.19
 31
0.0
  0
LINE
  5
115
  8
DXF_79LOGO_MODEL_H
 62
    18
 10
167.728
 20
110.19
 30
0.0
 11
168.222
 21
112.995
 31
0.0
  0
LINE
  5
116
  8
DXF_79LOGO_MODEL_H
 62
    18
 10
168.222
 20
112.995
 30
0.0
 11
168.381
 21
116.17
 31
0.0
  0
LINE
  5
117
  8
DXF_79LOGO_MODEL_H
 62
    18
 10
168.381
 20
116.17
 30
0.0
 11
168.381
 21
126.524
 31
0.0
  0
LINE
  5
118
  8
DXF_79LOGO_MODEL_H
 62
    18
 10
168.381
 20
126.524
 30
0.0
 11
168.257
 21
129.381
 31
0.0
  0
LINE
  5
119
  8
DXF_79LOGO_MODEL_H
 62
    18
 10
168.257
 20
129.381
 30
0.0
 11
167.834
 21
131.833
 31
0.0
  0
LINE
  5
11A
  8
DXF_79LOGO_MODEL_H
 62
    18
 10
167.834
 20
131.833
 30
0.0
 11
167.111
 21
133.932
 31
0.0
  0
LINE
  5
11B
  8
DXF_79LOGO_MODEL_H
 62
    18
 10
167.111
 20
133.932
 30
0.0
 11
166.141
 21
135.625
 31
0.0
  0
LINE
  5
11C
  8
DXF_79LOGO_MODEL_H
 62
    18
 10
166.141
 20
135.625
 30
0.0
 11
165.029
 21
136.79
 31
0.0
  0
LINE
  5
11D
  8
DXF_79LOGO_MODEL_H
 62
    18
 10
165.029
 20
136.79
 30
0.0
 11
163.654
 21
137.636
 31
0.0
  0
LINE
  5
11E
  8
DXF_79LOGO_MODEL_H
 62
    18
 10
163.654
 20
137.636
 30
0.0
 11
161.978
 21
138.13
 31
0.0
  0
LINE
  5
11F
  8
DXF_79LOGO_MODEL_H
 62
    18
 10
161.978
 20
138.13
 30
0.0
 11
160.02
 21
138.289
 31
0.0
  0
LINE
  5
120
  8
DXF_79LOGO_MODEL_H
 62
    18
 10
160.02
 20
138.289
 30
0.0
 11
160.02
 21
138.289
 31
0.0
  0
LINE
  5
121
  8
DXF_79LOGO_MODEL_H
 62
    18
 10
160.02
 20
138.289
 30
0.0
 11
160.02
 21
138.289
 31
0.0
  0
ENDSEC
  0
EOF
