  0
SECTION
  2
HEADER
  9
$ACADVER
  1
AC1009
  9
$DWGCODEPAGE
  3
ansi_1252
  9
$INSBASE
 10
0.0
 20
0.0
 30
0.0
  9
$EXTMIN
 10
0.0
 20
0.0
 30
0.0
  9
$EXTMAX
 10
123.8787939096872
 20
89.15372632564338
 30
86.94890528427415
  9
$LIMMIN
 10
0.0
 20
0.0
  9
$LIMMAX
 10
420.0
 20
297.0
  9
$ORTHOMODE
 70
     0
  9
$REGENMODE
 70
     1
  9
$FILLMODE
 70
     1
  9
$QTEXTMODE
 70
     0
  9
$MIRRTEXT
 70
     1
  9
$DRAGMODE
 70
     2
  9
$LTSCALE
 40
1.0
  9
$OSMODE
 70
    37
  9
$ATTMODE
 70
     1
  9
$TEXTSIZE
 40
2.5
  9
$TRACEWID
 40
1.0
  9
$TEXTSTYLE
  7
STANDARD
  9
$CLAYER
  8
0
  9
$CELTYPE
  6
BYLAYER
  9
$CECOLOR
 62
   256
  9
$DIMSCALE
 40
1.0
  9
$DIMASZ
 40
2.5
  9
$DIMEXO
 40
0.625
  9
$DIMDLI
 40
3.75
  9
$DIMRND
 40
0.0
  9
$DIMDLE
 40
0.0
  9
$DIMEXE
 40
1.25
  9
$DIMTP
 40
0.0
  9
$DIMTM
 40
0.0
  9
$DIMTXT
 40
2.5
  9
$DIMCEN
 40
2.5
  9
$DIMTSZ
 40
0.0
  9
$DIMTOL
 70
     0
  9
$DIMLIM
 70
     0
  9
$DIMTIH
 70
     0
  9
$DIMTOH
 70
     0
  9
$DIMSE1
 70
     0
  9
$DIMSE2
 70
     0
  9
$DIMTAD
 70
     1
  9
$DIMZIN
 70
     8
  9
$DIMBLK
  1

  9
$DIMASO
 70
     1
  9
$DIMSHO
 70
     1
  9
$DIMPOST
  1

  9
$DIMAPOST
  1

  9
$DIMALT
 70
     0
  9
$DIMALTD
 70
     3
  9
$DIMALTF
 40
0.03937007874016
  9
$DIMLFAC
 40
1.0
  9
$DIMTOFL
 70
     1
  9
$DIMTVP
 40
0.0
  9
$DIMTIX
 70
     0
  9
$DIMSOXD
 70
     0
  9
$DIMSAH
 70
     0
  9
$DIMBLK1
  1

  9
$DIMBLK2
  1

  9
$DIMSTYLE
  2
ISO-25
  9
$DIMCLRD
 70
     0
  9
$DIMCLRE
 70
     0
  9
$DIMCLRT
 70
     0
  9
$DIMTFAC
 40
1.0
  9
$DIMGAP
 40
0.625
  9
$LUNITS
 70
     2
  9
$LUPREC
 70
     4
  9
$SKETCHINC
 40
1.0
  9
$FILLETRAD
 40
10.0
  9
$AUNITS
 70
     0
  9
$AUPREC
 70
     0
  9
$MENU
  1
.
  9
$ELEVATION
 40
0.0
  9
$PELEVATION
 40
0.0
  9
$THICKNESS
 40
0.0
  9
$LIMCHECK
 70
     0
  9
$CHAMFERA
 40
0.0
  9
$CHAMFERB
 40
0.0
  9
$SKPOLY
 70
     0
  9
$TDCREATE
 40
2305814.585590278
  9
$TDUPDATE
 40
2457639.752268553
  9
$TDINDWG
 40
0.0000000116
  9
$TDUSRTIMER
 40
0.0000000116
  9
$USRTIMER
 70
     1
  9
$ANGBASE
 50
0.0
  9
$ANGDIR
 70
     0
  9
$PDMODE
 70
     0
  9
$PDSIZE
 40
0.0
  9
$PLINEWID
 40
0.0
  9
$COORDS
 70
     1
  9
$SPLFRAME
 70
     0
  9
$SPLINETYPE
 70
     6
  9
$SPLINESEGS
 70
     8
  9
$ATTDIA
 70
     0
  9
$ATTREQ
 70
     1
  9
$HANDLING
 70
     1
  9
$HANDSEED
  5
12D
  9
$SURFTAB1
 70
     6
  9
$SURFTAB2
 70
     6
  9
$SURFTYPE
 70
     6
  9
$SURFU
 70
     6
  9
$SURFV
 70
     6
  9
$UCSNAME
  2

  9
$UCSORG
 10
0.0
 20
0.0
 30
0.0
  9
$UCSXDIR
 10
1.0
 20
0.0
 30
0.0
  9
$UCSYDIR
 10
0.0
 20
1.0
 30
0.0
  9
$PUCSNAME
  2

  9
$PUCSORG
 10
0.0
 20
0.0
 30
0.0
  9
$PUCSXDIR
 10
1.0
 20
0.0
 30
0.0
  9
$PUCSYDIR
 10
0.0
 20
1.0
 30
0.0
  9
$USERI1
 70
     0
  9
$USERI2
 70
     0
  9
$USERI3
 70
     0
  9
$USERI4
 70
     0
  9
$USERI5
 70
     0
  9
$USERR1
 40
0.0
  9
$USERR2
 40
0.0
  9
$USERR3
 40
0.0
  9
$USERR4
 40
0.0
  9
$USERR5
 40
0.0
  9
$WORLDVIEW
 70
     1
  9
$SHADEDGE
 70
     3
  9
$SHADEDIF
 70
    70
  9
$TILEMODE
 70
     1
  9
$MAXACTVP
 70
    64
  9
$PLIMCHECK
 70
     0
  9
$PEXTMIN
 10
1.000000000000000E+20
 20
1.000000000000000E+20
 30
1.000000000000000E+20
  9
$PEXTMAX
 10
-1.000000000000000E+20
 20
-1.000000000000000E+20
 30
-1.000000000000000E+20
  9
$PLIMMIN
 10
0.0
 20
0.0
  9
$PLIMMAX
 10
420.0
 20
297.0
  9
$UNITMODE
 70
     0
  9
$VISRETAIN
 70
     1
  9
$PLINEGEN
 70
     0
  9
$PSLTSCALE
 70
     1
  0
ENDSEC
  0
SECTION
  2
TABLES
  0
TABLE
  2
VPORT
 70
     1
  0
VPORT
  2
*ACTIVE
 70
     0
 10
0.0
 20
0.0
 11
1.0
 21
1.0
 12
114.506577902265
 22
79.63187085204109
 13
0.0
 23
0.0
 14
10.0
 24
10.0
 15
10.0
 25
10.0
 16
0.0
 26
0.0
 36
1.0
 17
0.0
 27
0.0
 37
0.0
 40
19.42458516614867
 41
0.9842846316461236
 42
50.0
 43
0.0
 44
0.0
 50
0.0
 51
0.0
 71
     0
 72
   100
 73
     1
 74
     3
 75
     0
 76
     0
 77
     0
 78
     0
  0
ENDTAB
  0
TABLE
  2
LTYPE
 70
    11
  0
LTYPE
  2
CONTINUOUS
 70
     0
  3
Solid line
 72
    65
 73
     0
 40
0.0
  0
LTYPE
  2
BORDER
 70
     0
  3
__ __ . __ __ . __ 
 72
    65
 73
     6
 40
0.875
 49
0.25
 49
-0.125
 49
0.25
 49
-0.125
 49
0.0
 49
-0.125
  0
LTYPE
  2
CENTER
 70
     0
  3
___ _ ___ _ ___ _ _
 72
    65
 73
     4
 40
1.125
 49
0.75
 49
-0.125
 49
0.125
 49
-0.125
  0
LTYPE
  2
DASHDOT
 70
     0
  3
_._._._._._._._._._
 72
    65
 73
     4
 40
0.5
 49
0.25
 49
-0.125
 49
0.0
 49
-0.125
  0
LTYPE
  2
DASHED
 70
     0
  3
_ _ _ _ _ _ _ _ _ _
 72
    65
 73
     2
 40
0.375
 49
0.25
 49
-0.125
  0
LTYPE
  2
DIVIDE
 70
     0
  3
__..__..__..__..__.
 72
    65
 73
     6
 40
0.625
 49
0.25
 49
-0.125
 49
0.0
 49
-0.125
 49
0.0
 49
-0.125
  0
LTYPE
  2
DOT
 70
     0
  3
...................
 72
    65
 73
     2
 40
0.125
 49
0.0
 49
-0.125
  0
LTYPE
  2
HIDDEN
 70
     0
  3
__ __ __ __ __ __ _
 72
    65
 73
     2
 40
0.1875
 49
0.125
 49
-0.0625
  0
LTYPE
  2
PHANTOM
 70
     0
  3
___ _ _ ___ _ _ ___
 72
    65
 73
     6
 40
1.25
 49
0.625
 49
-0.125
 49
0.125
 49
-0.125
 49
0.125
 49
-0.125
  0
LTYPE
  2
CUTTING
 70
     0
  3
________ _ _ ______
 72
    65
 73
     6
 40
1.4675
 49
1.0
 49
-0.0725
 49
0.125
 49
-0.0725
 49
0.125
 49
-0.0725
  0
LTYPE
  2
STITCH
 70
     0
  3
_ _ _ _ _ _ _ _ _ _
 72
    65
 73
     2
 40
0.145
 49
0.0725
 49
-0.0725
  0
ENDTAB
  0
TABLE
  2
LAYER
 70
     4
  0
LAYER
  2
0
 70
     0
 62
     7
  6
CONTINUOUS
  0
LAYER
  2
DXF_79LOGO
 70
     0
 62
     7
  6
CONTINUOUS
  0
LAYER
  2
DXF_79LOGO_MODEL
 70
     0
 62
     7
  6
CONTINUOUS
  0
LAYER
  2
DXF_79LOGO_MODEL_H
 70
     0
 62
     7
  6
CONTINUOUS
  0
ENDTAB
  0
TABLE
  2
STYLE
 70
     1
  0
STYLE
  2
STANDARD
 70
     0
 40
0.0
 41
1.0
 50
0.0
 71
     0
 42
2.5
  3
txt
  4

  0
ENDTAB
  0
TABLE
  2
VIEW
 70
     0
  0
ENDTAB
  0
TABLE
  2
UCS
 70
     0
  0
ENDTAB
  0
TABLE
  2
APPID
 70
     2
  0
APPID
  2
ACAD
 70
     0
  0
APPID
  2
ENCORE_SOFTWARE_VIACAD
 70
     0
  0
ENDTAB
  0
TABLE
  2
DIMSTYLE
 70
     1
  0
DIMSTYLE
  2
ISO-25
 70
     0
  3

  4

  5

  6

  7

 40
1.0
 41
2.5
 42
0.625
 43
3.75
 44
1.25
 45
0.0
 46
0.0
 47
0.0
 48
0.0
140
2.5
141
2.5
142
0.0
143
0.03937007874016
144
1.0
145
0.0
146
1.0
147
0.625
 71
     0
 72
     0
 73
     0
 74
     0
 75
     0
 76
     0
 77
     1
 78
     8
170
     0
171
     3
172
     1
173
     0
174
     0
175
     0
176
     0
177
     0
178
     0
  0
ENDTAB
  0
ENDSEC
  0
SECTION
  2
BLOCKS
  0
BLOCK
  8
0
  2
$MODEL_SPACE
 70
     0
 10
0.0
 20
0.0
 30
0.0
  3
$MODEL_SPACE
  1

  0
ENDBLK
  5
21
  8
0
  0
BLOCK
 67
     1
  8
0
  2
$PAPER_SPACE
 70
     0
 10
0.0
 20
0.0
 30
0.0
  3
$PAPER_SPACE
  1

  0
ENDBLK
  5
1D
 67
     1
  8
0
  0
ENDSEC
  0
SECTION
  2
ENTITIES
  0
LINE
  5
78
  8
DXF_79LOGO_MODEL_H
 62
    18
 10
106.9880176171844
 20
70.1100153784388
 30
0.0
 11
106.8538231720483
 21
70.1145729256321
 31
0.0
  0
LINE
  5
79
  8
DXF_79LOGO_MODEL_H
 62
    18
 10
106.8538231720483
 20
70.1145729256321
 30
0.0
 11
106.6796235904377
 21
70.16369315649322
 31
0.0
  0
LINE
  5
7A
  8
DXF_79LOGO_MODEL_H
 62
    18
 10
106.6796235904377
 20
70.16369315649322
 30
0.0
 11
106.6484803512835
 21
70.18167014820013
 31
0.0
  0
LINE
  5
7B
  8
DXF_79LOGO_MODEL_H
 62
    18
 10
106.6484803512835
 20
70.18167014820013
 30
0.0
 11
106.384902205271
 21
70.36903597725802
 31
0.0
  0
LINE
  5
7C
  8
DXF_79LOGO_MODEL_H
 62
    18
 10
106.384902205271
 20
70.36903597725802
 30
0.0
 11
106.219817718047
 21
70.62375222595026
 31
0.0
  0
LINE
  5
7D
  8
DXF_79LOGO_MODEL_H
 62
    18
 10
106.219817718047
 20
70.62375222595026
 30
0.0
 11
106.2107026236604
 21
70.64603356778416
 31
0.0
  0
LINE
  5
7E
  8
DXF_79LOGO_MODEL_H
 62
    18
 10
106.2107026236604
 20
70.64603356778416
 30
0.0
 11
106.1661399399926
 21
70.96759384197811
 31
0.0
  0
LINE
  5
7F
  8
DXF_79LOGO_MODEL_H
 62
    18
 10
106.1661399399926
 20
70.96759384197811
 30
0.0
 11
106.2375415126876
 21
71.26687277433815
 31
0.0
  0
LINE
  5
80
  8
DXF_79LOGO_MODEL_H
 62
    18
 10
106.2375415126876
 20
71.26687277433815
 30
0.0
 11
113.0171461597878
 21
87.51452851845309
 31
0.0
  0
LINE
  5
81
  8
DXF_79LOGO_MODEL_H
 62
    18
 10
113.0171461597878
 20
87.51452851845309
 30
0.0
 11
105.9294006830073
 21
87.51452851845309
 31
0.0
  0
LINE
  5
82
  8
DXF_79LOGO_MODEL_H
 62
    18
 10
105.9294006830073
 20
87.51452851845309
 30
0.0
 11
105.6167023061336
 21
87.57251064663453
 31
0.0
  0
LINE
  5
83
  8
DXF_79LOGO_MODEL_H
 62
    18
 10
105.6167023061336
 20
87.57251064663453
 30
0.0
 11
105.3622392545077
 21
87.7558253226317
 31
0.0
  0
LINE
  5
84
  8
DXF_79LOGO_MODEL_H
 62
    18
 10
105.3622392545077
 20
87.7558253226317
 30
0.0
 11
105.1880396728971
 21
88.02370781877124
 31
0.0
  0
LINE
  5
85
  8
DXF_79LOGO_MODEL_H
 62
    18
 10
105.1880396728971
 20
88.02370781877124
 30
0.0
 11
105.1343618948427
 21
88.34526809296518
 31
0.0
  0
LINE
  5
86
  8
DXF_79LOGO_MODEL_H
 62
    18
 10
105.1343618948427
 20
88.34526809296518
 30
0.0
 11
105.1880396728971
 21
88.64454702532522
 31
0.0
  0
LINE
  5
87
  8
DXF_79LOGO_MODEL_H
 62
    18
 10
105.1880396728971
 20
88.64454702532522
 30
0.0
 11
105.3622392545077
 21
88.90812517133774
 31
0.0
  0
LINE
  5
88
  8
DXF_79LOGO_MODEL_H
 62
    18
 10
105.3622392545077
 20
88.90812517133774
 30
0.0
 11
105.6212598533269
 21
89.08662910307534
 31
0.0
  0
LINE
  5
89
  8
DXF_79LOGO_MODEL_H
 62
    18
 10
105.6212598533269
 20
89.08662910307534
 30
0.0
 11
105.9294006830073
 21
89.15372632564338
 31
0.0
  0
LINE
  5
8A
  8
DXF_79LOGO_MODEL_H
 62
    18
 10
105.9294006830073
 20
89.15372632564338
 30
0.0
 11
114.2454051283822
 21
89.15372632564338
 31
0.0
  0
LINE
  5
8B
  8
DXF_79LOGO_MODEL_H
 62
    18
 10
114.2454051283822
 20
89.15372632564338
 30
0.0
 11
114.450747949147
 21
89.12688743661617
 31
0.0
  0
LINE
  5
8C
  8
DXF_79LOGO_MODEL_H
 62
    18
 10
114.450747949147
 20
89.12688743661617
 30
0.0
 11
114.6383669752712
 21
89.05979021404812
 31
0.0
  0
LINE
  5
8D
  8
DXF_79LOGO_MODEL_H
 62
    18
 10
114.6383669752712
 20
89.05979021404812
 30
0.0
 11
114.7945895651749
 21
88.93926841049196
 31
0.0
  0
LINE
  5
8E
  8
DXF_79LOGO_MODEL_H
 62
    18
 10
114.7945895651749
 20
88.93926841049196
 30
0.0
 11
114.9196689159244
 21
88.78735017071531
 31
0.0
  0
LINE
  5
8F
  8
DXF_79LOGO_MODEL_H
 62
    18
 10
114.9196689159244
 20
88.78735017071531
 30
0.0
 11
115.0224669248399
 21
88.60428869178442
 31
0.0
  0
LINE
  5
90
  8
DXF_79LOGO_MODEL_H
 62
    18
 10
115.0224669248399
 20
88.60428869178442
 30
0.0
 11
115.0761447028943
 21
88.41236531553321
 31
0.0
  0
LINE
  5
91
  8
DXF_79LOGO_MODEL_H
 62
    18
 10
115.0761447028943
 20
88.41236531553321
 30
0.0
 11
115.0761447028943
 21
88.21132684489542
 31
0.0
  0
LINE
  5
92
  8
DXF_79LOGO_MODEL_H
 62
    18
 10
115.0761447028943
 20
88.21132684489542
 30
0.0
 11
115.0224669248399
 21
88.01028837425763
 31
0.0
  0
LINE
  5
93
  8
DXF_79LOGO_MODEL_H
 62
    18
 10
115.0224669248399
 20
88.01028837425763
 30
0.0
 11
107.7605218664487
 21
70.61033278143664
 31
0.0
  0
LINE
  5
94
  8
DXF_79LOGO_MODEL_H
 62
    18
 10
107.7605218664487
 20
70.61033278143664
 30
0.0
 11
107.6131611738654
 21
70.39157051615823
 31
0.0
  0
LINE
  5
95
  8
DXF_79LOGO_MODEL_H
 62
    18
 10
107.6131611738654
 20
70.39157051615823
 30
0.0
 11
107.4389615922548
 21
70.23509472918826
 31
0.0
  0
LINE
  5
96
  8
DXF_79LOGO_MODEL_H
 62
    18
 10
107.4389615922548
 20
70.23509472918826
 30
0.0
 11
107.2290612242967
 21
70.1414118146593
 31
0.0
  0
LINE
  5
97
  8
DXF_79LOGO_MODEL_H
 62
    18
 10
107.2290612242967
 20
70.1414118146593
 30
0.0
 11
106.9880176171844
 21
70.1100153784388
 31
0.0
  0
LINE
  5
98
  8
DXF_79LOGO_MODEL_H
 62
    18
 10
106.9880176171844
 20
70.1100153784388
 30
0.0
 11
106.9880176171844
 21
70.1100153784388
 31
0.0
  0
LINE
  5
99
  8
DXF_79LOGO_MODEL_H
 62
    18
 10
106.9880176171844
 20
70.1100153784388
 30
0.0
 11
106.9880176171844
 21
70.1100153784388
 31
0.0
  0
LINE
  5
9A
  8
DXF_79LOGO_MODEL_H
 62
    18
 10
120.0914721920548
 20
70.1100153784388
 30
0.0
 11
119.6359706697911
 21
70.12799237014572
 31
0.0
  0
LINE
  5
9B
  8
DXF_79LOGO_MODEL_H
 62
    18
 10
119.6359706697911
 20
70.12799237014572
 30
0.0
 11
119.2073080365546
 21
70.19508959271373
 31
0.0
  0
LINE
  5
9C
  8
DXF_79LOGO_MODEL_H
 62
    18
 10
119.2073080365546
 20
70.19508959271373
 30
0.0
 11
118.8140929925993
 21
70.31105384907659
 31
0.0
  0
LINE
  5
9D
  8
DXF_79LOGO_MODEL_H
 62
    18
 10
118.8140929925993
 20
70.31105384907659
 30
0.0
 11
118.4391081374172
 21
70.46297208885326
 31
0.0
  0
LINE
  5
9E
  8
DXF_79LOGO_MODEL_H
 62
    18
 10
118.4391081374172
 20
70.46297208885326
 30
0.0
 11
118.0907089741961
 21
70.66401055949106
 31
0.0
  0
LINE
  5
9F
  8
DXF_79LOGO_MODEL_H
 62
    18
 10
118.0907089741961
 20
70.66401055949106
 30
0.0
 11
117.7734530501291
 21
70.90505416660338
 31
0.0
  0
LINE
  5
A0
  8
DXF_79LOGO_MODEL_H
 62
    18
 10
117.7734530501291
 20
70.90505416660338
 30
0.0
 11
117.4787316649624
 21
71.19547120164312
 31
0.0
  0
LINE
  5
A1
  8
DXF_79LOGO_MODEL_H
 62
    18
 10
117.4787316649624
 20
71.19547120164312
 30
0.0
 11
117.2197110661431
 21
71.52133582596407
 31
0.0
  0
LINE
  5
A2
  8
DXF_79LOGO_MODEL_H
 62
    18
 10
117.2197110661431
 20
71.52133582596407
 30
0.0
 11
116.8221916720608
 21
72.2135766052131
 31
0.0
  0
LINE
  5
A3
  8
DXF_79LOGO_MODEL_H
 62
    18
 10
116.8221916720608
 20
72.2135766052131
 30
0.0
 11
116.5408897314077
 21
73.01747729069798
 31
0.0
  0
LINE
  5
A4
  8
DXF_79LOGO_MODEL_H
 62
    18
 10
116.5408897314077
 20
73.01747729069798
 30
0.0
 11
116.3666901497971
 21
73.91531408777811
 31
0.0
  0
LINE
  5
A5
  8
DXF_79LOGO_MODEL_H
 62
    18
 10
116.3666901497971
 20
73.91531408777811
 30
0.0
 11
116.313265568809
 21
74.92025324390079
 31
0.0
  0
LINE
  5
A6
  8
DXF_79LOGO_MODEL_H
 62
    18
 10
116.313265568809
 20
74.92025324390079
 30
0.0
 11
116.3755520471175
 21
75.26839921005565
 31
0.0
  0
LINE
  5
A7
  8
DXF_79LOGO_MODEL_H
 62
    18
 10
116.3755520471175
 20
75.26839921005565
 30
0.0
 11
116.5408897314077
 21
75.53653490326148
 31
0.0
  0
LINE
  5
A8
  8
DXF_79LOGO_MODEL_H
 62
    18
 10
116.5408897314077
 20
75.53653490326148
 30
0.0
 11
116.8044678774202
 21
75.70161939048546
 31
0.0
  0
LINE
  5
A9
  8
DXF_79LOGO_MODEL_H
 62
    18
 10
116.8044678774202
 20
75.70161939048546
 30
0.0
 11
117.1437519462548
 21
75.7641590658602
 31
0.0
  0
LINE
  5
AA
  8
DXF_79LOGO_MODEL_H
 62
    18
 10
117.1437519462548
 20
75.7641590658602
 30
0.0
 11
117.492151109476
 21
75.70161939048546
 31
0.0
  0
LINE
  5
AB
  8
DXF_79LOGO_MODEL_H
 62
    18
 10
117.492151109476
 20
75.70161939048546
 30
0.0
 11
117.7557292554885
 21
75.53653490326148
 31
0.0
  0
LINE
  5
AC
  8
DXF_79LOGO_MODEL_H
 62
    18
 10
117.7557292554885
 20
75.53653490326148
 30
0.0
 11
117.9210669397788
 21
75.26839921005565
 31
0.0
  0
LINE
  5
AD
  8
DXF_79LOGO_MODEL_H
 62
    18
 10
117.9210669397788
 20
75.26839921005565
 30
0.0
 11
117.9833534180872
 21
74.92025324390079
 31
0.0
  0
LINE
  5
AE
  8
DXF_79LOGO_MODEL_H
 62
    18
 10
117.9833534180872
 20
74.92025324390079
 30
0.0
 11
118.0147498543077
 21
74.15635769489043
 31
0.0
  0
LINE
  5
AF
  8
DXF_79LOGO_MODEL_H
 62
    18
 10
118.0147498543077
 20
74.15635769489043
 30
0.0
 11
118.1309673077369
 21
73.4998177019889
 31
0.0
  0
LINE
  5
B0
  8
DXF_79LOGO_MODEL_H
 62
    18
 10
118.1309673077369
 20
73.4998177019889
 30
0.0
 11
118.3094712394745
 21
72.93721382068264
 31
0.0
  0
LINE
  5
B1
  8
DXF_79LOGO_MODEL_H
 62
    18
 10
118.3094712394745
 20
72.93721382068264
 30
0.0
 11
118.5596299409734
 21
72.47259720403233
 31
0.0
  0
LINE
  5
B2
  8
DXF_79LOGO_MODEL_H
 62
    18
 10
118.5596299409734
 20
72.47259720403233
 30
0.0
 11
118.8454894288198
 21
72.15103692983837
 31
0.0
  0
LINE
  5
B3
  8
DXF_79LOGO_MODEL_H
 62
    18
 10
118.8454894288198
 20
72.15103692983837
 30
0.0
 11
119.2027504893613
 21
71.93227466455996
 31
0.0
  0
LINE
  5
B4
  8
DXF_79LOGO_MODEL_H
 62
    18
 10
119.2027504893613
 20
71.93227466455996
 30
0.0
 11
119.6179936780842
 21
71.79833341649021
 31
0.0
  0
LINE
  5
B5
  8
DXF_79LOGO_MODEL_H
 62
    18
 10
119.6179936780842
 20
71.79833341649021
 30
0.0
 11
120.0914721920548
 21
71.74921318562907
 31
0.0
  0
LINE
  5
B6
  8
DXF_79LOGO_MODEL_H
 62
    18
 10
120.0914721920548
 20
71.74921318562907
 30
0.0
 11
120.3950554745418
 21
71.77149452746299
 31
0.0
  0
LINE
  5
B7
  8
DXF_79LOGO_MODEL_H
 62
    18
 10
120.3950554745418
 20
71.77149452746299
 30
0.0
 11
120.6543292704274
 21
71.84289610015803
 31
0.0
  0
LINE
  5
B8
  8
DXF_79LOGO_MODEL_H
 62
    18
 10
120.6543292704274
 20
71.84289610015803
 30
0.0
 11
120.8908153303464
 21
71.95025165626687
 31
0.0
  0
LINE
  5
B9
  8
DXF_79LOGO_MODEL_H
 62
    18
 10
120.8908153303464
 20
71.95025165626687
 30
0.0
 11
121.0918538009842
 21
72.11103179336385
 31
0.0
  0
LINE
  5
BA
  8
DXF_79LOGO_MODEL_H
 62
    18
 10
121.0918538009842
 20
72.11103179336385
 30
0.0
 11
121.4713962033596
 21
72.59337220465478
 31
0.0
  0
LINE
  5
BB
  8
DXF_79LOGO_MODEL_H
 62
    18
 10
121.4713962033596
 20
72.59337220465478
 30
0.0
 11
121.7663707855926
 21
73.19167687230856
 31
0.0
  0
LINE
  5
BC
  8
DXF_79LOGO_MODEL_H
 62
    18
 10
121.7663707855926
 20
73.19167687230856
 30
0.0
 11
121.9896905980643
 21
73.91961843790511
 31
0.0
  0
LINE
  5
BD
  8
DXF_79LOGO_MODEL_H
 62
    18
 10
121.9896905980643
 20
73.91961843790511
 30
0.0
 11
122.1145167517475
 21
74.73263421777659
 31
0.0
  0
LINE
  5
BE
  8
DXF_79LOGO_MODEL_H
 62
    18
 10
122.1145167517475
 20
74.73263421777659
 30
0.0
 11
122.1816139743155
 21
75.56337379228869
 31
0.0
  0
LINE
  5
BF
  8
DXF_79LOGO_MODEL_H
 62
    18
 10
122.1816139743155
 20
75.56337379228869
 30
0.0
 11
122.2084528633427
 21
76.46095739230252
 31
0.0
  0
LINE
  5
C0
  8
DXF_79LOGO_MODEL_H
 62
    18
 10
122.2084528633427
 20
76.46095739230252
 30
0.0
 11
122.2084528633427
 21
77.45247710391159
 31
0.0
  0
LINE
  5
C1
  8
DXF_79LOGO_MODEL_H
 62
    18
 10
122.2084528633427
 20
77.45247710391159
 30
0.0
 11
121.7395318965654
 21
77.13091682971765
 31
0.0
  0
LINE
  5
C2
  8
DXF_79LOGO_MODEL_H
 62
    18
 10
121.7395318965654
 20
77.13091682971765
 30
0.0
 11
121.364293844317
 21
76.94329780359344
 31
0.0
  0
LINE
  5
C3
  8
DXF_79LOGO_MODEL_H
 62
    18
 10
121.364293844317
 20
76.94329780359344
 30
0.0
 11
120.9624701001077
 21
76.81366090565069
 31
0.0
  0
LINE
  5
C4
  8
DXF_79LOGO_MODEL_H
 62
    18
 10
120.9624701001077
 20
76.81366090565069
 30
0.0
 11
120.5426693641915
 21
76.73339743563535
 31
0.0
  0
LINE
  5
C5
  8
DXF_79LOGO_MODEL_H
 62
    18
 10
120.5426693641915
 20
76.73339743563535
 30
0.0
 11
120.0914721920548
 21
76.70655854660814
 31
0.0
  0
LINE
  5
C6
  8
DXF_79LOGO_MODEL_H
 62
    18
 10
120.0914721920548
 20
76.70655854660814
 30
0.0
 11
119.6359706697911
 21
76.72883988844205
 31
0.0
  0
LINE
  5
C7
  8
DXF_79LOGO_MODEL_H
 62
    18
 10
119.6359706697911
 20
76.72883988844205
 30
0.0
 11
119.2073080365546
 21
76.80024146113709
 31
0.0
  0
LINE
  5
C8
  8
DXF_79LOGO_MODEL_H
 62
    18
 10
119.2073080365546
 20
76.80024146113709
 30
0.0
 11
118.805231095279
 21
76.91645891456623
 31
0.0
  0
LINE
  5
C9
  8
DXF_79LOGO_MODEL_H
 62
    18
 10
118.805231095279
 20
76.91645891456623
 30
0.0
 11
118.4299930430306
 21
77.06837715434291
 31
0.0
  0
LINE
  5
CA
  8
DXF_79LOGO_MODEL_H
 62
    18
 10
118.4299930430306
 20
77.06837715434291
 30
0.0
 11
118.0907089741961
 21
77.27827752230102
 31
0.0
  0
LINE
  5
CB
  8
DXF_79LOGO_MODEL_H
 62
    18
 10
118.0907089741961
 20
77.27827752230102
 30
0.0
 11
117.7691487000021
 21
77.52387867660661
 31
0.0
  0
LINE
  5
CC
  8
DXF_79LOGO_MODEL_H
 62
    18
 10
117.7691487000021
 20
77.52387867660661
 30
0.0
 11
117.4744273148354
 21
77.81860006177338
 31
0.0
  0
LINE
  5
CD
  8
DXF_79LOGO_MODEL_H
 62
    18
 10
117.4744273148354
 20
77.81860006177338
 30
0.0
 11
117.2108491688228
 21
78.15357978048092
 31
0.0
  0
LINE
  5
CE
  8
DXF_79LOGO_MODEL_H
 62
    18
 10
117.2108491688228
 20
78.15357978048092
 30
0.0
 11
116.8221916720608
 21
78.88607889327078
 31
0.0
  0
LINE
  5
CF
  8
DXF_79LOGO_MODEL_H
 62
    18
 10
116.8221916720608
 20
78.88607889327078
 30
0.0
 11
116.5408897314077
 21
79.7568236042574
 31
0.0
  0
LINE
  5
D0
  8
DXF_79LOGO_MODEL_H
 62
    18
 10
116.5408897314077
 20
79.7568236042574
 30
0.0
 11
116.3666901497971
 21
80.77518220489367
 31
0.0
  0
LINE
  5
D1
  8
DXF_79LOGO_MODEL_H
 62
    18
 10
116.3666901497971
 20
80.77518220489367
 30
0.0
 11
116.313265568809
 21
81.93203960079303
 31
0.0
  0
LINE
  5
D2
  8
DXF_79LOGO_MODEL_H
 62
    18
 10
116.313265568809
 20
81.93203960079303
 30
0.0
 11
116.313265568809
 21
83.9371071687788
 31
0.0
  0
LINE
  5
D3
  8
DXF_79LOGO_MODEL_H
 62
    18
 10
116.313265568809
 20
83.9371071687788
 30
0.0
 11
116.3755520471175
 21
85.02686734211011
 31
0.0
  0
LINE
  5
D4
  8
DXF_79LOGO_MODEL_H
 62
    18
 10
116.3755520471175
 20
85.02686734211011
 30
0.0
 11
116.5631710732416
 21
86.01408270359218
 31
0.0
  0
LINE
  5
D5
  8
DXF_79LOGO_MODEL_H
 62
    18
 10
116.5631710732416
 20
86.01408270359218
 30
0.0
 11
116.8758694501153
 21
86.8982468590924
 31
0.0
  0
LINE
  5
D6
  8
DXF_79LOGO_MODEL_H
 62
    18
 10
116.8758694501153
 20
86.8982468590924
 30
0.0
 11
117.3045320833518
 21
87.66188921103645
 31
0.0
  0
LINE
  5
D7
  8
DXF_79LOGO_MODEL_H
 62
    18
 10
117.3045320833518
 20
87.66188921103645
 30
0.0
 11
117.5726677765576
 21
88.01028837425763
 31
0.0
  0
LINE
  5
D8
  8
DXF_79LOGO_MODEL_H
 62
    18
 10
117.5726677765576
 20
88.01028837425763
 30
0.0
 11
117.8673891617243
 21
88.30956730661767
 31
0.0
  0
LINE
  5
D9
  8
DXF_79LOGO_MODEL_H
 62
    18
 10
117.8673891617243
 20
88.30956730661767
 30
0.0
 11
118.184391888725
 21
88.5731454526302
 31
0.0
  0
LINE
  5
DA
  8
DXF_79LOGO_MODEL_H
 62
    18
 10
118.184391888725
 20
88.5731454526302
 30
0.0
 11
118.5239291546259
 21
88.778488273395
 31
0.0
  0
LINE
  5
DB
  8
DXF_79LOGO_MODEL_H
 62
    18
 10
118.5239291546259
 20
88.778488273395
 30
0.0
 11
118.8857477623606
 21
88.93926841049196
 31
0.0
  0
LINE
  5
DC
  8
DXF_79LOGO_MODEL_H
 62
    18
 10
118.8857477623606
 20
88.93926841049196
 30
0.0
 11
119.269594514863
 21
89.05979021404812
 31
0.0
  0
LINE
  5
DD
  8
DXF_79LOGO_MODEL_H
 62
    18
 10
119.269594514863
 20
89.05979021404812
 30
0.0
 11
119.6716714561386
 21
89.12688743661617
 31
0.0
  0
LINE
  5
DE
  8
DXF_79LOGO_MODEL_H
 62
    18
 10
119.6716714561386
 20
89.12688743661617
 30
0.0
 11
120.0914721920548
 21
89.15372632564338
 31
0.0
  0
LINE
  5
DF
  8
DXF_79LOGO_MODEL_H
 62
    18
 10
120.0914721920548
 20
89.15372632564338
 30
0.0
 11
120.5426693641915
 21
89.13574933393647
 31
0.0
  0
LINE
  5
E0
  8
DXF_79LOGO_MODEL_H
 62
    18
 10
120.5426693641915
 20
89.13574933393647
 30
0.0
 11
120.971331997428
 21
89.06890530843474
 31
0.0
  0
LINE
  5
E1
  8
DXF_79LOGO_MODEL_H
 62
    18
 10
120.971331997428
 20
89.06890530843474
 30
0.0
 11
121.3731557416373
 21
88.96610729951918
 31
0.0
  0
LINE
  5
E2
  8
DXF_79LOGO_MODEL_H
 62
    18
 10
121.3731557416373
 20
88.96610729951918
 30
0.0
 11
121.7395318965654
 21
88.81874660693582
 31
0.0
  0
LINE
  5
E3
  8
DXF_79LOGO_MODEL_H
 62
    18
 10
121.7395318965654
 20
88.81874660693582
 30
0.0
 11
122.0879310597866
 21
88.63112758081162
 31
0.0
  0
LINE
  5
E4
  8
DXF_79LOGO_MODEL_H
 62
    18
 10
122.0879310597866
 20
88.63112758081162
 30
0.0
 11
122.4049337867872
 21
88.4032502211466
 31
0.0
  0
LINE
  5
E5
  8
DXF_79LOGO_MODEL_H
 62
    18
 10
122.4049337867872
 20
88.4032502211466
 30
0.0
 11
122.699655171954
 21
88.13536772500709
 31
0.0
  0
LINE
  5
E6
  8
DXF_79LOGO_MODEL_H
 62
    18
 10
122.699655171954
 20
88.13536772500709
 30
0.0
 11
122.9586757707732
 21
87.82722689532675
 31
0.0
  0
LINE
  5
E7
  8
DXF_79LOGO_MODEL_H
 62
    18
 10
122.9586757707732
 20
87.82722689532675
 30
0.0
 11
123.3607527120488
 21
87.17954879974555
 31
0.0
  0
LINE
  5
E8
  8
DXF_79LOGO_MODEL_H
 62
    18
 10
123.3607527120488
 20
87.17954879974555
 30
0.0
 11
123.6509165500222
 21
86.41590644780148
 31
0.0
  0
LINE
  5
E9
  8
DXF_79LOGO_MODEL_H
 62
    18
 10
123.6509165500222
 20
86.41590644780148
 30
0.0
 11
123.8162542343125
 21
85.53174229230125
 31
0.0
  0
LINE
  5
EA
  8
DXF_79LOGO_MODEL_H
 62
    18
 10
123.8162542343125
 20
85.53174229230125
 30
0.0
 11
123.8787939096872
 21
84.52680313617856
 31
0.0
  0
LINE
  5
EB
  8
DXF_79LOGO_MODEL_H
 62
    18
 10
123.8787939096872
 20
84.52680313617856
 30
0.0
 11
123.8787939096872
 21
76.46095739230252
 31
0.0
  0
LINE
  5
EC
  8
DXF_79LOGO_MODEL_H
 62
    18
 10
123.8787939096872
 20
76.46095739230252
 30
0.0
 11
123.8653744651736
 21
75.75073962134658
 31
0.0
  0
LINE
  5
ED
  8
DXF_79LOGO_MODEL_H
 62
    18
 10
123.8653744651736
 20
75.75073962134658
 30
0.0
 11
123.8251161316328
 21
75.08103338099777
 31
0.0
  0
LINE
  5
EE
  8
DXF_79LOGO_MODEL_H
 62
    18
 10
123.8251161316328
 20
75.08103338099777
 30
0.0
 11
123.7625764562581
 21
74.46449852457077
 31
0.0
  0
LINE
  5
EF
  8
DXF_79LOGO_MODEL_H
 62
    18
 10
123.7625764562581
 20
74.46449852457077
 30
0.0
 11
123.6688935417291
 21
73.8796133014306
 31
0.0
  0
LINE
  5
F0
  8
DXF_79LOGO_MODEL_H
 62
    18
 10
123.6688935417291
 20
73.8796133014306
 30
0.0
 11
123.5572336354933
 21
73.34359511208524
 31
0.0
  0
LINE
  5
F1
  8
DXF_79LOGO_MODEL_H
 62
    18
 10
123.5572336354933
 20
73.34359511208524
 30
0.0
 11
123.4098729429099
 21
72.8478352562807
 31
0.0
  0
LINE
  5
F2
  8
DXF_79LOGO_MODEL_H
 62
    18
 10
123.4098729429099
 20
72.8478352562807
 30
0.0
 11
123.0480543351751
 21
71.97253299810077
 31
0.0
  0
LINE
  5
F3
  8
DXF_79LOGO_MODEL_H
 62
    18
 10
123.0480543351751
 20
71.97253299810077
 30
0.0
 11
122.7844761891626
 21
71.53475527047767
 31
0.0
  0
LINE
  5
F4
  8
DXF_79LOGO_MODEL_H
 62
    18
 10
122.7844761891626
 20
71.53475527047767
 30
0.0
 11
122.4986167013162
 21
71.15977041529558
 31
0.0
  0
LINE
  5
F5
  8
DXF_79LOGO_MODEL_H
 62
    18
 10
122.4986167013162
 20
71.15977041529558
 30
0.0
 11
122.1770564271222
 21
70.83821014110164
 31
0.0
  0
LINE
  5
F6
  8
DXF_79LOGO_MODEL_H
 62
    18
 10
122.1770564271222
 20
70.83821014110164
 30
0.0
 11
121.8197953665807
 21
70.57918954228242
 31
0.0
  0
LINE
  5
F7
  8
DXF_79LOGO_MODEL_H
 62
    18
 10
121.8197953665807
 20
70.57918954228242
 30
0.0
 11
121.431391066885
 21
70.36903597725802
 31
0.0
  0
LINE
  5
F8
  8
DXF_79LOGO_MODEL_H
 62
    18
 10
121.431391066885
 20
70.36903597725802
 30
0.0
 11
121.0158946810959
 21
70.23079037906125
 31
0.0
  0
LINE
  5
F9
  8
DXF_79LOGO_MODEL_H
 62
    18
 10
121.0158946810959
 20
70.23079037906125
 30
0.0
 11
120.5692550561524
 21
70.136854267466
 31
0.0
  0
LINE
  5
FA
  8
DXF_79LOGO_MODEL_H
 62
    18
 10
120.5692550561524
 20
70.136854267466
 30
0.0
 11
120.0914721920548
 21
70.1100153784388
 31
0.0
  0
LINE
  5
FB
  8
DXF_79LOGO_MODEL_H
 62
    18
 10
120.0914721920548
 20
70.1100153784388
 30
0.0
 11
120.0914721920548
 21
70.1100153784388
 31
0.0
  0
LINE
  5
FC
  8
DXF_79LOGO_MODEL_H
 62
    18
 10
120.0914721920548
 20
70.1100153784388
 30
0.0
 11
120.0914721920548
 21
70.1100153784388
 31
0.0
  0
LINE
  5
FD
  8
DXF_79LOGO_MODEL_H
 62
    18
 10
120.0914721920548
 20
87.50566662113279
 30
0.0
 11
119.6448325671114
 21
87.45198884307837
 31
0.0
  0
LINE
  5
FE
  8
DXF_79LOGO_MODEL_H
 62
    18
 10
119.6448325671114
 20
87.45198884307837
 30
0.0
 11
119.2473131730291
 21
87.28690435585439
 31
0.0
  0
LINE
  5
FF
  8
DXF_79LOGO_MODEL_H
 62
    18
 10
119.2473131730291
 20
87.28690435585439
 30
0.0
 11
118.9080291041945
 21
87.00990676532825
 31
0.0
  0
LINE
  5
100
  8
DXF_79LOGO_MODEL_H
 62
    18
 10
118.9080291041945
 20
87.00990676532825
 30
0.0
 11
118.6041926246412
 21
86.61694491843927
 31
0.0
  0
LINE
  5
101
  8
DXF_79LOGO_MODEL_H
 62
    18
 10
118.6041926246412
 20
86.61694491843927
 30
0.0
 11
118.3317525813084
 21
86.06750728458032
 31
0.0
  0
LINE
  5
102
  8
DXF_79LOGO_MODEL_H
 62
    18
 10
118.3317525813084
 20
86.06750728458032
 30
0.0
 11
118.1352716578639
 21
85.437806180706
 31
0.0
  0
LINE
  5
103
  8
DXF_79LOGO_MODEL_H
 62
    18
 10
118.1352716578639
 20
85.437806180706
 30
0.0
 11
118.023611751628
 21
84.72784160681637
 31
0.0
  0
LINE
  5
104
  8
DXF_79LOGO_MODEL_H
 62
    18
 10
118.023611751628
 20
84.72784160681637
 30
0.0
 11
117.9833534180872
 21
83.9371071687788
 31
0.0
  0
LINE
  5
105
  8
DXF_79LOGO_MODEL_H
 62
    18
 10
117.9833534180872
 20
83.9371071687788
 30
0.0
 11
117.9833534180872
 21
81.93203960079303
 31
0.0
  0
LINE
  5
106
  8
DXF_79LOGO_MODEL_H
 62
    18
 10
117.9833534180872
 20
81.93203960079303
 30
0.0
 11
118.023611751628
 21
81.01647900907228
 31
0.0
  0
LINE
  5
107
  8
DXF_79LOGO_MODEL_H
 62
    18
 10
118.023611751628
 20
81.01647900907228
 30
0.0
 11
118.1352716578639
 21
80.23916401554831
 31
0.0
  0
LINE
  5
108
  8
DXF_79LOGO_MODEL_H
 62
    18
 10
118.1352716578639
 20
80.23916401554831
 30
0.0
 11
118.322890683988
 21
79.60060101435371
 31
0.0
  0
LINE
  5
109
  8
DXF_79LOGO_MODEL_H
 62
    18
 10
118.322890683988
 20
79.60060101435371
 30
0.0
 11
118.5864688300006
 21
79.11370305586951
 31
0.0
  0
LINE
  5
10A
  8
DXF_79LOGO_MODEL_H
 62
    18
 10
118.5864688300006
 20
79.11370305586951
 30
0.0
 11
118.5998882745142
 21
79.09142171403559
 31
0.0
  0
LINE
  5
10B
  8
DXF_79LOGO_MODEL_H
 62
    18
 10
118.5998882745142
 20
79.09142171403559
 30
0.0
 11
118.8677707706537
 21
78.77897653422822
 31
0.0
  0
LINE
  5
10C
  8
DXF_79LOGO_MODEL_H
 62
    18
 10
118.8677707706537
 20
78.77897653422822
 30
0.0
 11
119.2027504893613
 21
78.55565672175652
 31
0.0
  0
LINE
  5
10D
  8
DXF_79LOGO_MODEL_H
 62
    18
 10
119.2027504893613
 20
78.55565672175652
 30
0.0
 11
119.6091317807639
 21
78.43057737100706
 31
0.0
  0
LINE
  5
10E
  8
DXF_79LOGO_MODEL_H
 62
    18
 10
119.6091317807639
 20
78.43057737100706
 30
0.0
 11
120.0914721920548
 21
78.38145714014594
 31
0.0
  0
LINE
  5
10F
  8
DXF_79LOGO_MODEL_H
 62
    18
 10
120.0914721920548
 20
78.38145714014594
 30
0.0
 11
120.5558356116388
 21
78.43488172113406
 31
0.0
  0
LINE
  5
110
  8
DXF_79LOGO_MODEL_H
 62
    18
 10
120.5558356116388
 20
78.43488172113406
 30
0.0
 11
120.9579125529144
 21
78.59566185823105
 31
0.0
  0
LINE
  5
111
  8
DXF_79LOGO_MODEL_H
 62
    18
 10
120.9579125529144
 20
78.59566185823105
 30
0.0
 11
121.2974498188153
 21
78.87721699595046
 31
0.0
  0
LINE
  5
112
  8
DXF_79LOGO_MODEL_H
 62
    18
 10
121.2974498188153
 20
78.87721699595046
 30
0.0
 11
121.592171203982
 21
79.27448319296646
 31
0.0
  0
LINE
  5
113
  8
DXF_79LOGO_MODEL_H
 62
    18
 10
121.592171203982
 20
79.27448319296646
 30
0.0
 11
121.846634255608
 21
79.78366249328461
 31
0.0
  0
LINE
  5
114
  8
DXF_79LOGO_MODEL_H
 62
    18
 10
121.846634255608
 20
79.78366249328461
 30
0.0
 11
122.0431151790525
 21
80.391082255325
 31
0.0
  0
LINE
  5
115
  8
DXF_79LOGO_MODEL_H
 62
    18
 10
122.0431151790525
 20
80.391082255325
 30
0.0
 11
122.1681945298019
 21
81.10130002628092
 31
0.0
  0
LINE
  5
116
  8
DXF_79LOGO_MODEL_H
 62
    18
 10
122.1681945298019
 20
81.10130002628092
 30
0.0
 11
122.2084528633427
 21
81.90520071176581
 31
0.0
  0
LINE
  5
117
  8
DXF_79LOGO_MODEL_H
 62
    18
 10
122.2084528633427
 20
81.90520071176581
 30
0.0
 11
122.2084528633427
 21
84.52680313617856
 31
0.0
  0
LINE
  5
118
  8
DXF_79LOGO_MODEL_H
 62
    18
 10
122.2084528633427
 20
84.52680313617856
 30
0.0
 11
122.1770564271222
 21
85.25018715458181
 31
0.0
  0
LINE
  5
119
  8
DXF_79LOGO_MODEL_H
 62
    18
 10
122.1770564271222
 20
85.25018715458181
 30
0.0
 11
122.0699540680796
 21
85.8710263611358
 31
0.0
  0
LINE
  5
11A
  8
DXF_79LOGO_MODEL_H
 62
    18
 10
122.0699540680796
 20
85.8710263611358
 30
0.0
 11
121.8868925891488
 21
86.40248700328786
 31
0.0
  0
LINE
  5
11B
  8
DXF_79LOGO_MODEL_H
 62
    18
 10
121.8868925891488
 20
86.40248700328786
 30
0.0
 11
121.6412914348431
 21
86.83114963652437
 31
0.0
  0
LINE
  5
11C
  8
DXF_79LOGO_MODEL_H
 62
    18
 10
121.6412914348431
 20
86.83114963652437
 30
0.0
 11
121.3597362971237
 21
87.1261242187574
 31
0.0
  0
LINE
  5
11D
  8
DXF_79LOGO_MODEL_H
 62
    18
 10
121.3597362971237
 20
87.1261242187574
 30
0.0
 11
121.0115903309688
 21
87.34032893684251
 31
0.0
  0
LINE
  5
11E
  8
DXF_79LOGO_MODEL_H
 62
    18
 10
121.0115903309688
 20
87.34032893684251
 30
0.0
 11
120.5872320478594
 21
87.46540828759197
 31
0.0
  0
LINE
  5
11F
  8
DXF_79LOGO_MODEL_H
 62
    18
 10
120.5872320478594
 20
87.46540828759197
 30
0.0
 11
120.0914721920548
 21
87.50566662113279
 31
0.0
  0
LINE
  5
120
  8
DXF_79LOGO_MODEL_H
 62
    18
 10
120.0914721920548
 20
87.50566662113279
 30
0.0
 11
120.0914721920548
 21
87.50566662113279
 31
0.0
  0
LINE
  5
121
  8
DXF_79LOGO_MODEL_H
 62
    18
 10
120.0914721920548
 20
87.50566662113279
 30
0.0
 11
120.0914721920548
 21
87.50566662113279
 31
0.0
  0
ENDSEC
  0
EOF
