<?xml version="1.0" standalone="no"?>
 <!DOCTYPE svg PUBLIC "-//W3C//DTD SVG 1.1//EN" 
 "http://www.w3.org/Graphics/SVG/1.1/DTD/svg11.dtd"> 
<svg xmlns="http://www.w3.org/2000/svg" version="1.1" 
    width="43.18cm" height="27.94cm" viewBox="0 0 170000 110000 ">
<title>SVG Picture created as step_switch_board-F.SilkS.svg date 2016/06/29 18:39:07 </title>
  <desc>Picture generated by PCBNEW </desc>
<g style="fill:#000000; fill-opacity:1;stroke:#000000; stroke-opacity:1;
stroke-linecap:round; stroke-linejoin:round; "
 transform="translate(0 0) scale(1 1)">
</g>
<g style="fill:#000000; fill-opacity:0.0; 
stroke:#000000; stroke-width:-0.000393701; stroke-opacity:1; 
stroke-linecap:round; stroke-linejoin:round;">
</g>
<g style="fill:#000000; fill-opacity:0.0; 
stroke:#000000; stroke-width:118.11; stroke-opacity:1; 
stroke-linecap:round; stroke-linejoin:round;">
<path d="M123706 71822
L123368 71822
" />
<path d="M123537 71822
L123537 71231
L123481 71316
L123425 71372
L123368 71400
" />
<path d="M124212 71231
L124100 71231
L124043 71259
L124015 71287
L123959 71372
L123931 71484
L123931 71709
L123959 71766
L123987 71794
L124043 71822
L124156 71822
L124212 71794
L124240 71766
L124268 71709
L124268 71569
L124240 71512
L124212 71484
L124156 71456
L124043 71456
L123987 71484
L123959 71512
L123931 71569
" />
<path d="M118588 71822
L118250 71822
" />
<path d="M118419 71822
L118419 71231
L118363 71316
L118307 71372
L118250 71400
" />
<path d="M119122 71231
L118841 71231
L118813 71512
L118841 71484
L118897 71456
L119038 71456
L119094 71484
L119122 71512
L119150 71569
L119150 71709
L119122 71766
L119094 71794
L119038 71822
L118897 71822
L118841 71794
L118813 71766
" />
<path d="M113470 71822
L113132 71822
" />
<path d="M113301 71822
L113301 71231
L113245 71316
L113188 71372
L113132 71400
" />
<path d="M113976 71428
L113976 71822
" />
<path d="M113835 71203
L113695 71625
L114060 71625
" />
<path d="M108352 71822
L108014 71822
" />
<path d="M108183 71822
L108183 71231
L108127 71316
L108070 71372
L108014 71400
" />
<path d="M108548 71231
L108914 71231
L108717 71456
L108802 71456
L108858 71484
L108886 71512
L108914 71569
L108914 71709
L108886 71766
L108858 71794
L108802 71822
L108633 71822
L108577 71794
L108548 71766
" />
<path d="M103233 71822
L102896 71822
" />
<path d="M103065 71822
L103065 71231
L103008 71316
L102952 71372
L102896 71400
" />
<path d="M103458 71287
L103487 71259
L103543 71231
L103683 71231
L103740 71259
L103768 71287
L103796 71344
L103796 71400
L103768 71484
L103430 71822
L103796 71822
" />
<path d="M98214 71822
L97876 71822
" />
<path d="M98045 71822
L98045 71231
L97989 71316
L97933 71372
L97876 71400
" />
<path d="M98776 71822
L98439 71822
" />
<path d="M98607 71822
L98607 71231
L98551 71316
L98495 71372
L98439 71400
" />
<path d="M92997 71822
L92660 71822
" />
<path d="M92829 71822
L92829 71231
L92772 71316
L92716 71372
L92660 71400
" />
<path d="M93363 71231
L93419 71231
L93475 71259
L93503 71287
L93532 71344
L93560 71456
L93560 71597
L93532 71709
L93503 71766
L93475 71794
L93419 71822
L93363 71822
L93307 71794
L93278 71766
L93250 71709
L93222 71597
L93222 71456
L93250 71344
L93278 71287
L93307 71259
L93363 71231
" />
<path d="M87879 71822
L87992 71822
L88048 71794
L88076 71766
L88132 71681
L88160 71569
L88160 71344
L88132 71287
L88104 71259
L88048 71231
L87935 71231
L87879 71259
L87851 71287
L87823 71344
L87823 71484
L87851 71541
L87879 71569
L87935 71597
L88048 71597
L88104 71569
L88132 71541
L88160 71484
" />
<path d="M82817 71484
L82761 71456
L82733 71428
L82705 71372
L82705 71344
L82733 71287
L82761 71259
L82817 71231
L82930 71231
L82986 71259
L83014 71287
L83042 71344
L83042 71372
L83014 71428
L82986 71456
L82930 71484
L82817 71484
L82761 71512
L82733 71541
L82705 71597
L82705 71709
L82733 71766
L82761 71794
L82817 71822
L82930 71822
L82986 71794
L83014 71766
L83042 71709
L83042 71597
L83014 71541
L82986 71512
L82930 71484
" />
<path d="M77559 71231
L77952 71231
L77699 71822
" />
<path d="M72750 71231
L72637 71231
L72581 71259
L72553 71287
L72497 71372
L72469 71484
L72469 71709
L72497 71766
L72525 71794
L72581 71822
L72694 71822
L72750 71794
L72778 71766
L72806 71709
L72806 71569
L72778 71512
L72750 71484
L72694 71456
L72581 71456
L72525 71484
L72497 71512
L72469 71569
" />
<path d="M67660 71231
L67379 71231
L67350 71512
L67379 71484
L67435 71456
L67575 71456
L67632 71484
L67660 71512
L67688 71569
L67688 71709
L67660 71766
L67632 71794
L67575 71822
L67435 71822
L67379 71794
L67350 71766
" />
<path d="M62514 71428
L62514 71822
" />
<path d="M62373 71203
L62232 71625
L62598 71625
" />
<path d="M57086 71231
L57452 71231
L57255 71456
L57339 71456
L57395 71484
L57424 71512
L57452 71569
L57452 71709
L57424 71766
L57395 71794
L57339 71822
L57170 71822
L57114 71794
L57086 71766
" />
<path d="M51996 71287
L52024 71259
L52080 71231
L52221 71231
L52277 71259
L52305 71287
L52334 71344
L52334 71400
L52305 71484
L51968 71822
L52334 71822
" />
<path d="M47215 71822
L46878 71822
" />
<path d="M47047 71822
L47047 71231
L46991 71316
L46934 71372
L46878 71400
" />
<path d="M68194 62640
L68278 62668
L68419 62668
L68475 62640
L68503 62612
L68532 62556
L68532 62500
L68503 62443
L68475 62415
L68419 62387
L68307 62359
L68250 62331
L68222 62303
L68194 62246
L68194 62190
L68222 62134
L68250 62106
L68307 62078
L68447 62078
L68532 62106
" />
<path d="M68700 62078
L69038 62078
" />
<path d="M68869 62668
L68869 62078
" />
<path d="M69235 62359
L69431 62359
" />
<path d="M69516 62668
L69235 62668
L69235 62078
L69516 62078
" />
<path d="M69769 62668
L69769 62078
L69994 62078
L70050 62106
L70078 62134
L70106 62190
L70106 62275
L70078 62331
L70050 62359
L69994 62387
L69769 62387
" />
<path d="M70781 62640
L70866 62668
L71006 62668
L71062 62640
L71091 62612
L71119 62556
L71119 62500
L71091 62443
L71062 62415
L71006 62387
L70894 62359
L70838 62331
L70809 62303
L70781 62246
L70781 62190
L70809 62134
L70838 62106
L70894 62078
L71034 62078
L71119 62106
" />
<path d="M71316 62078
L71456 62668
L71569 62246
L71681 62668
L71822 62078
" />
<path d="M72047 62668
L72047 62078
" />
<path d="M72244 62078
L72581 62078
" />
<path d="M72412 62668
L72412 62078
" />
<path d="M73115 62612
L73087 62640
L73003 62668
L72947 62668
L72862 62640
L72806 62584
L72778 62528
L72750 62415
L72750 62331
L72778 62218
L72806 62162
L72862 62106
L72947 62078
L73003 62078
L73087 62106
L73115 62134
" />
<path d="M73368 62668
L73368 62078
" />
<path d="M73368 62359
L73706 62359
" />
<path d="M73706 62668
L73706 62078
" />
<path d="M74634 62359
L74718 62387
L74746 62415
L74775 62471
L74775 62556
L74746 62612
L74718 62640
L74662 62668
L74437 62668
L74437 62078
L74634 62078
L74690 62106
L74718 62134
L74746 62190
L74746 62246
L74718 62303
L74690 62331
L74634 62359
L74437 62359
" />
<path d="M75140 62078
L75253 62078
L75309 62106
L75365 62162
L75393 62275
L75393 62471
L75365 62584
L75309 62640
L75253 62668
L75140 62668
L75084 62640
L75028 62584
L75000 62471
L75000 62275
L75028 62162
L75084 62106
L75140 62078
" />
<path d="M75618 62500
L75899 62500
" />
<path d="M75562 62668
L75759 62078
L75956 62668
" />
<path d="M76490 62668
L76293 62387
" />
<path d="M76152 62668
L76152 62078
L76377 62078
L76434 62106
L76462 62134
L76490 62190
L76490 62275
L76462 62331
L76434 62359
L76377 62387
L76152 62387
" />
<path d="M76743 62668
L76743 62078
L76884 62078
L76968 62106
L77024 62162
L77052 62218
L77080 62331
L77080 62415
L77052 62528
L77024 62584
L76968 62640
L76884 62668
L76743 62668
" />
<path d="M77784 62668
L77784 62275
" />
<path d="M77784 62387
L77812 62331
L77840 62303
L77896 62275
L77952 62275
" />
<path d="M78458 62668
L78121 62668
" />
<path d="M78290 62668
L78290 62078
L78233 62162
L78177 62218
L78121 62246
" />
<path d="M78712 62612
L78740 62640
L78712 62668
L78683 62640
L78712 62612
L78712 62668
" />
<path d="M79105 62078
L79161 62078
L79218 62106
L79246 62134
L79274 62190
L79302 62303
L79302 62443
L79274 62556
L79246 62612
L79218 62640
L79161 62668
L79105 62668
L79049 62640
L79021 62612
L78993 62556
L78965 62443
L78965 62303
L78993 62190
L79021 62134
L79049 62106
L79105 62078
" />
<path d="M80118 62078
L80174 62078
L80230 62106
L80258 62134
L80286 62190
L80314 62303
L80314 62443
L80286 62556
L80258 62612
L80230 62640
L80174 62668
L80118 62668
L80061 62640
L80033 62612
L80005 62556
L79977 62443
L79977 62303
L80005 62190
L80033 62134
L80061 62106
L80118 62078
" />
<path d="M80511 62078
L80877 62078
L80680 62303
L80764 62303
L80821 62331
L80849 62359
L80877 62415
L80877 62556
L80849 62612
L80821 62640
L80764 62668
L80596 62668
L80539 62640
L80511 62612
" />
<path d="M81552 62134
L81580 62106
L81636 62078
L81777 62078
L81833 62106
L81861 62134
L81889 62190
L81889 62246
L81861 62331
L81524 62668
L81889 62668
" />
<path d="M82255 62078
L82311 62078
L82367 62106
L82395 62134
L82424 62190
L82452 62303
L82452 62443
L82424 62556
L82395 62612
L82367 62640
L82311 62668
L82255 62668
L82199 62640
L82170 62612
L82142 62556
L82114 62443
L82114 62303
L82142 62190
L82170 62134
L82199 62106
L82255 62078
" />
<path d="M83014 62668
L82677 62668
" />
<path d="M82845 62668
L82845 62078
L82789 62162
L82733 62218
L82677 62246
" />
<path d="M83520 62078
L83408 62078
L83352 62106
L83323 62134
L83267 62218
L83239 62331
L83239 62556
L83267 62612
L83295 62640
L83352 62668
L83464 62668
L83520 62640
L83548 62612
L83577 62556
L83577 62415
L83548 62359
L83520 62331
L83464 62303
L83352 62303
L83295 62331
L83267 62359
L83239 62415
" />
</g>
<g style="fill:#000000; fill-opacity:0.0; 
stroke:#000000; stroke-width:59.0551; stroke-opacity:1; 
stroke-linecap:round; stroke-linejoin:round;">
<path d="M44724 64409
L44724 65511
" />
<path d="M45433 64409
L45433 65511
" />
<path d="M45433 65511
L44724 65511
" />
<path d="M44724 64409
L45433 64409
" />
<path d="M50925 61614
L50925 63287
" />
<path d="M50925 63287
L45728 63287
" />
<path d="M45728 63287
L45728 61614
" />
<path d="M45728 61614
L50925 61614
" />
<path d="M52165 65866
L52165 65944
" />
<path d="M52165 64881
L52165 64763
" />
<path d="M52165 65511
L52165 65866
" />
<path d="M52165 64881
L52165 65236
" />
<path d="M52362 65511
L51968 65511
" />
<path d="M52362 65236
L51968 65236
" />
<path d="M51968 65236
L52165 65511
" />
<path d="M52165 65511
L52362 65236
" />
<circle cx="52165.4" cy="65354.3" r="590.551" /> 
<path d="M57283 65866
L57283 65944
" />
<path d="M57283 64881
L57283 64763
" />
<path d="M57283 65511
L57283 65866
" />
<path d="M57283 64881
L57283 65236
" />
<path d="M57480 65511
L57086 65511
" />
<path d="M57480 65236
L57086 65236
" />
<path d="M57086 65236
L57283 65511
" />
<path d="M57283 65511
L57480 65236
" />
<circle cx="57283.5" cy="65354.3" r="590.551" /> 
<path d="M62401 65866
L62401 65944
" />
<path d="M62401 64881
L62401 64763
" />
<path d="M62401 65511
L62401 65866
" />
<path d="M62401 64881
L62401 65236
" />
<path d="M62598 65511
L62204 65511
" />
<path d="M62598 65236
L62204 65236
" />
<path d="M62204 65236
L62401 65511
" />
<path d="M62401 65511
L62598 65236
" />
<circle cx="62401.6" cy="65354.3" r="590.551" /> 
<path d="M67519 65866
L67519 65944
" />
<path d="M67519 64881
L67519 64763
" />
<path d="M67519 65511
L67519 65866
" />
<path d="M67519 64881
L67519 65236
" />
<path d="M67716 65511
L67322 65511
" />
<path d="M67716 65236
L67322 65236
" />
<path d="M67322 65236
L67519 65511
" />
<path d="M67519 65511
L67716 65236
" />
<circle cx="67519.7" cy="65354.3" r="590.551" /> 
<path d="M72637 65866
L72637 65944
" />
<path d="M72637 64881
L72637 64763
" />
<path d="M72637 65511
L72637 65866
" />
<path d="M72637 64881
L72637 65236
" />
<path d="M72834 65511
L72440 65511
" />
<path d="M72834 65236
L72440 65236
" />
<path d="M72440 65236
L72637 65511
" />
<path d="M72637 65511
L72834 65236
" />
<circle cx="72637.8" cy="65354.3" r="590.551" /> 
<path d="M77755 65866
L77755 65944
" />
<path d="M77755 64881
L77755 64763
" />
<path d="M77755 65511
L77755 65866
" />
<path d="M77755 64881
L77755 65236
" />
<path d="M77952 65511
L77559 65511
" />
<path d="M77952 65236
L77559 65236
" />
<path d="M77559 65236
L77755 65511
" />
<path d="M77755 65511
L77952 65236
" />
<circle cx="77755.9" cy="65354.3" r="590.551" /> 
<path d="M82874 65866
L82874 65944
" />
<path d="M82874 64881
L82874 64763
" />
<path d="M82874 65511
L82874 65866
" />
<path d="M82874 64881
L82874 65236
" />
<path d="M83070 65511
L82677 65511
" />
<path d="M83070 65236
L82677 65236
" />
<path d="M82677 65236
L82874 65511
" />
<path d="M82874 65511
L83070 65236
" />
<circle cx="82874" cy="65354.3" r="590.551" /> 
<path d="M93110 65866
L93110 65944
" />
<path d="M93110 64881
L93110 64763
" />
<path d="M93110 65511
L93110 65866
" />
<path d="M93110 64881
L93110 65236
" />
<path d="M93307 65511
L92913 65511
" />
<path d="M93307 65236
L92913 65236
" />
<path d="M92913 65236
L93110 65511
" />
<path d="M93110 65511
L93307 65236
" />
<circle cx="93110.2" cy="65354.3" r="590.551" /> 
<path d="M98228 65866
L98228 65944
" />
<path d="M98228 64881
L98228 64763
" />
<path d="M98228 65511
L98228 65866
" />
<path d="M98228 64881
L98228 65236
" />
<path d="M98425 65511
L98031 65511
" />
<path d="M98425 65236
L98031 65236
" />
<path d="M98031 65236
L98228 65511
" />
<path d="M98228 65511
L98425 65236
" />
<circle cx="98228.3" cy="65354.3" r="590.551" /> 
<path d="M103346 65866
L103346 65944
" />
<path d="M103346 64881
L103346 64763
" />
<path d="M103346 65511
L103346 65866
" />
<path d="M103346 64881
L103346 65236
" />
<path d="M103543 65511
L103149 65511
" />
<path d="M103543 65236
L103149 65236
" />
<path d="M103149 65236
L103346 65511
" />
<path d="M103346 65511
L103543 65236
" />
<circle cx="103346" cy="65354.3" r="590.551" /> 
<path d="M108464 65866
L108464 65944
" />
<path d="M108464 64881
L108464 64763
" />
<path d="M108464 65511
L108464 65866
" />
<path d="M108464 64881
L108464 65236
" />
<path d="M108661 65511
L108267 65511
" />
<path d="M108661 65236
L108267 65236
" />
<path d="M108267 65236
L108464 65511
" />
<path d="M108464 65511
L108661 65236
" />
<circle cx="108465" cy="65354.3" r="590.551" /> 
<path d="M113582 65866
L113582 65944
" />
<path d="M113582 64881
L113582 64763
" />
<path d="M113582 65511
L113582 65866
" />
<path d="M113582 64881
L113582 65236
" />
<path d="M113779 65511
L113385 65511
" />
<path d="M113779 65236
L113385 65236
" />
<path d="M113385 65236
L113582 65511
" />
<path d="M113582 65511
L113779 65236
" />
<circle cx="113583" cy="65354.3" r="590.551" /> 
<path d="M118700 65866
L118700 65944
" />
<path d="M118700 64881
L118700 64763
" />
<path d="M118700 65511
L118700 65866
" />
<path d="M118700 64881
L118700 65236
" />
<path d="M118897 65511
L118503 65511
" />
<path d="M118897 65236
L118503 65236
" />
<path d="M118503 65236
L118700 65511
" />
<path d="M118700 65511
L118897 65236
" />
<circle cx="118701" cy="65354.3" r="590.551" /> 
<path d="M123818 65866
L123818 65944
" />
<path d="M123818 64881
L123818 64763
" />
<path d="M123818 65511
L123818 65866
" />
<path d="M123818 64881
L123818 65236
" />
<path d="M124015 65511
L123622 65511
" />
<path d="M124015 65236
L123622 65236
" />
<path d="M123622 65236
L123818 65511
" />
<path d="M123818 65511
L124015 65236
" />
<circle cx="123819" cy="65354.3" r="590.551" /> 
<path d="M47047 65866
L47047 65944
" />
<path d="M47047 64881
L47047 64763
" />
<path d="M47047 65511
L47047 65866
" />
<path d="M47047 64881
L47047 65236
" />
<path d="M47244 65511
L46850 65511
" />
<path d="M47244 65236
L46850 65236
" />
<path d="M46850 65236
L47047 65511
" />
<path d="M47047 65511
L47244 65236
" />
<circle cx="47047.2" cy="65354.3" r="590.551" /> 
<path d="M87992 65866
L87992 65944
" />
<path d="M87992 64881
L87992 64763
" />
<path d="M87992 65511
L87992 65866
" />
<path d="M87992 64881
L87992 65236
" />
<path d="M88188 65511
L87795 65511
" />
<path d="M88188 65236
L87795 65236
" />
<path d="M87795 65236
L87992 65511
" />
<path d="M87992 65511
L88188 65236
" />
<circle cx="87992.1" cy="65354.3" r="590.551" /> 
<path d="M124507 68011
L123129 68011
" />
<path d="M123129 68011
L123129 69389
" />
<path d="M123129 69389
L124507 69389
" />
<path d="M124507 69389
L124507 68011
" />
<circle cx="123819" cy="68700.8" r="1377.95" /> 
<path d="M121456 71062
L126181 71062
" />
<path d="M126181 71062
L126181 66338
" />
<path d="M126181 66338
L121456 66338
" />
<path d="M121456 66338
L121456 71062
" />
<path d="M119389 68011
L118011 68011
" />
<path d="M118011 68011
L118011 69389
" />
<path d="M118011 69389
L119389 69389
" />
<path d="M119389 69389
L119389 68011
" />
<circle cx="118701" cy="68700.8" r="1377.95" /> 
<path d="M116338 71062
L121062 71062
" />
<path d="M121062 71062
L121062 66338
" />
<path d="M121062 66338
L116338 66338
" />
<path d="M116338 66338
L116338 71062
" />
<path d="M114271 68011
L112893 68011
" />
<path d="M112893 68011
L112893 69389
" />
<path d="M112893 69389
L114271 69389
" />
<path d="M114271 69389
L114271 68011
" />
<circle cx="113583" cy="68700.8" r="1377.95" /> 
<path d="M111220 71062
L115944 71062
" />
<path d="M115944 71062
L115944 66338
" />
<path d="M115944 66338
L111220 66338
" />
<path d="M111220 66338
L111220 71062
" />
<path d="M109153 68011
L107775 68011
" />
<path d="M107775 68011
L107775 69389
" />
<path d="M107775 69389
L109153 69389
" />
<path d="M109153 69389
L109153 68011
" />
<circle cx="108465" cy="68700.8" r="1377.95" /> 
<path d="M106102 71062
L110826 71062
" />
<path d="M110826 71062
L110826 66338
" />
<path d="M110826 66338
L106102 66338
" />
<path d="M106102 66338
L106102 71062
" />
<path d="M104035 68011
L102657 68011
" />
<path d="M102657 68011
L102657 69389
" />
<path d="M102657 69389
L104035 69389
" />
<path d="M104035 69389
L104035 68011
" />
<circle cx="103346" cy="68700.8" r="1377.95" /> 
<path d="M100984 71062
L105708 71062
" />
<path d="M105708 71062
L105708 66338
" />
<path d="M105708 66338
L100984 66338
" />
<path d="M100984 66338
L100984 71062
" />
<path d="M98917 68011
L97539 68011
" />
<path d="M97539 68011
L97539 69389
" />
<path d="M97539 69389
L98917 69389
" />
<path d="M98917 69389
L98917 68011
" />
<circle cx="98228.3" cy="68700.8" r="1377.95" /> 
<path d="M95866 71062
L100590 71062
" />
<path d="M100590 71062
L100590 66338
" />
<path d="M100590 66338
L95866 66338
" />
<path d="M95866 66338
L95866 71062
" />
<path d="M93799 68011
L92421 68011
" />
<path d="M92421 68011
L92421 69389
" />
<path d="M92421 69389
L93799 69389
" />
<path d="M93799 69389
L93799 68011
" />
<circle cx="93110.2" cy="68700.8" r="1377.95" /> 
<path d="M90748 71062
L95472 71062
" />
<path d="M95472 71062
L95472 66338
" />
<path d="M95472 66338
L90748 66338
" />
<path d="M90748 66338
L90748 71062
" />
<path d="M88681 68011
L87303 68011
" />
<path d="M87303 68011
L87303 69389
" />
<path d="M87303 69389
L88681 69389
" />
<path d="M88681 69389
L88681 68011
" />
<circle cx="87992.1" cy="68700.8" r="1377.95" /> 
<path d="M85629 71062
L90354 71062
" />
<path d="M90354 71062
L90354 66338
" />
<path d="M90354 66338
L85629 66338
" />
<path d="M85629 66338
L85629 71062
" />
<path d="M83562 68011
L82185 68011
" />
<path d="M82185 68011
L82185 69389
" />
<path d="M82185 69389
L83562 69389
" />
<path d="M83562 69389
L83562 68011
" />
<circle cx="82874" cy="68700.8" r="1377.95" /> 
<path d="M80511 71062
L85236 71062
" />
<path d="M85236 71062
L85236 66338
" />
<path d="M85236 66338
L80511 66338
" />
<path d="M80511 66338
L80511 71062
" />
<path d="M78444 68011
L77066 68011
" />
<path d="M77066 68011
L77066 69389
" />
<path d="M77066 69389
L78444 69389
" />
<path d="M78444 69389
L78444 68011
" />
<circle cx="77755.9" cy="68700.8" r="1377.95" /> 
<path d="M75393 71062
L80118 71062
" />
<path d="M80118 71062
L80118 66338
" />
<path d="M80118 66338
L75393 66338
" />
<path d="M75393 66338
L75393 71062
" />
<path d="M73326 68011
L71948 68011
" />
<path d="M71948 68011
L71948 69389
" />
<path d="M71948 69389
L73326 69389
" />
<path d="M73326 69389
L73326 68011
" />
<circle cx="72637.8" cy="68700.8" r="1377.95" /> 
<path d="M70275 71062
L75000 71062
" />
<path d="M75000 71062
L75000 66338
" />
<path d="M75000 66338
L70275 66338
" />
<path d="M70275 66338
L70275 71062
" />
<path d="M68208 68011
L66830 68011
" />
<path d="M66830 68011
L66830 69389
" />
<path d="M66830 69389
L68208 69389
" />
<path d="M68208 69389
L68208 68011
" />
<circle cx="67519.7" cy="68700.8" r="1377.95" /> 
<path d="M65157 71062
L69881 71062
" />
<path d="M69881 71062
L69881 66338
" />
<path d="M69881 66338
L65157 66338
" />
<path d="M65157 66338
L65157 71062
" />
<path d="M63090 68011
L61712 68011
" />
<path d="M61712 68011
L61712 69389
" />
<path d="M61712 69389
L63090 69389
" />
<path d="M63090 69389
L63090 68011
" />
<circle cx="62401.6" cy="68700.8" r="1377.95" /> 
<path d="M60039 71062
L64763 71062
" />
<path d="M64763 71062
L64763 66338
" />
<path d="M64763 66338
L60039 66338
" />
<path d="M60039 66338
L60039 71062
" />
<path d="M57972 68011
L56594 68011
" />
<path d="M56594 68011
L56594 69389
" />
<path d="M56594 69389
L57972 69389
" />
<path d="M57972 69389
L57972 68011
" />
<circle cx="57283.5" cy="68700.8" r="1377.95" /> 
<path d="M54921 71062
L59645 71062
" />
<path d="M59645 71062
L59645 66338
" />
<path d="M59645 66338
L54921 66338
" />
<path d="M54921 66338
L54921 71062
" />
<path d="M52854 68011
L51476 68011
" />
<path d="M51476 68011
L51476 69389
" />
<path d="M51476 69389
L52854 69389
" />
<path d="M52854 69389
L52854 68011
" />
<circle cx="52165.4" cy="68700.8" r="1377.95" /> 
<path d="M49803 71062
L54527 71062
" />
<path d="M54527 71062
L54527 66338
" />
<path d="M54527 66338
L49803 66338
" />
<path d="M49803 66338
L49803 71062
" />
<path d="M47736 68011
L46358 68011
" />
<path d="M46358 68011
L46358 69389
" />
<path d="M46358 69389
L47736 69389
" />
<path d="M47736 69389
L47736 68011
" />
<circle cx="47047.2" cy="68700.8" r="1377.95" /> 
<path d="M44685 71062
L49409 71062
" />
<path d="M49409 71062
L49409 66338
" />
<path d="M49409 66338
L44685 66338
" />
<path d="M44685 66338
L44685 71062
" />
</g>
<g style="fill:#000000; fill-opacity:0.0; 
stroke:#000000; stroke-width:60; stroke-opacity:1; 
stroke-linecap:round; stroke-linejoin:round;">
<path d="M44214 65516
L44214 65333
" />
<path d="M44534 65425
L44214 65425
" />
<path d="M44534 65227
L44214 65227
L44214 65105
L44229 65074
L44245 65059
L44275 65044
L44321 65044
L44351 65059
L44366 65074
L44382 65105
L44382 65227
" />
<path d="M44245 64922
L44229 64907
L44214 64876
L44214 64800
L44229 64770
L44245 64754
L44275 64739
L44305 64739
L44351 64754
L44534 64937
L44534 64739
" />
<path d="M44214 64541
L44214 64511
L44229 64480
L44245 64465
L44275 64450
L44336 64434
L44412 64434
L44473 64450
L44504 64465
L44519 64480
L44534 64511
L44534 64541
L44519 64572
L44504 64587
L44473 64602
L44412 64617
L44336 64617
L44275 64602
L44245 64587
L44229 64572
L44214 64541
" />
</g>
<g style="fill:#000000; fill-opacity:0.0; 
stroke:#000000; stroke-width:59.0551; stroke-opacity:1; 
stroke-linecap:round; stroke-linejoin:round;">
<path d="M48036 62185
L48036 61792
L48186 61792
L48223 61811
L48242 61829
L48261 61867
L48261 61923
L48242 61961
L48223 61979
L48186 61998
L48036 61998
" />
<path d="M48392 61792
L48636 61792
L48504 61942
L48561 61942
L48598 61961
L48617 61979
L48636 62017
L48636 62110
L48617 62148
L48598 62167
L48561 62185
L48448 62185
L48411 62167
L48392 62148
" />
<path d="M51776 64416
L51776 64096
L51852 64096
L51898 64111
L51929 64142
L51944 64172
L51959 64233
L51959 64279
L51944 64340
L51929 64370
L51898 64401
L51852 64416
L51776 64416
" />
<path d="M52066 64096
L52279 64096
L52142 64416
" />
<path d="M52371 64096
L52569 64096
L52462 64218
L52508 64218
L52538 64233
L52553 64248
L52569 64279
L52569 64355
L52553 64385
L52538 64401
L52508 64416
L52416 64416
L52386 64401
L52371 64385
" />
<path d="M56894 64416
L56894 64096
L56971 64096
L57016 64111
L57047 64142
L57062 64172
L57077 64233
L57077 64279
L57062 64340
L57047 64370
L57016 64401
L56971 64416
L56894 64416
" />
<path d="M57184 64096
L57397 64096
L57260 64416
" />
<path d="M57656 64203
L57656 64416
" />
<path d="M57580 64081
L57504 64309
L57702 64309
" />
<path d="M62013 64416
L62013 64096
L62089 64096
L62134 64111
L62165 64142
L62180 64172
L62195 64233
L62195 64279
L62180 64340
L62165 64370
L62134 64401
L62089 64416
L62013 64416
" />
<path d="M62302 64096
L62515 64096
L62378 64416
" />
<path d="M62790 64096
L62637 64096
L62622 64248
L62637 64233
L62668 64218
L62744 64218
L62774 64233
L62790 64248
L62805 64279
L62805 64355
L62790 64385
L62774 64401
L62744 64416
L62668 64416
L62637 64401
L62622 64385
" />
<path d="M67131 64416
L67131 64096
L67207 64096
L67253 64111
L67283 64142
L67298 64172
L67313 64233
L67313 64279
L67298 64340
L67283 64370
L67253 64401
L67207 64416
L67131 64416
" />
<path d="M67420 64096
L67633 64096
L67496 64416
" />
<path d="M67893 64096
L67832 64096
L67801 64111
L67786 64126
L67755 64172
L67740 64233
L67740 64355
L67755 64385
L67771 64401
L67801 64416
L67862 64416
L67893 64401
L67908 64385
L67923 64355
L67923 64279
L67908 64248
L67893 64233
L67862 64218
L67801 64218
L67771 64233
L67755 64248
L67740 64279
" />
<path d="M72249 64416
L72249 64096
L72325 64096
L72371 64111
L72401 64142
L72416 64172
L72432 64233
L72432 64279
L72416 64340
L72401 64370
L72371 64401
L72325 64416
L72249 64416
" />
<path d="M72538 64096
L72752 64096
L72614 64416
" />
<path d="M72843 64096
L73056 64096
L72919 64416
" />
<path d="M77367 64416
L77367 64096
L77443 64096
L77489 64111
L77519 64142
L77534 64172
L77550 64233
L77550 64279
L77534 64340
L77519 64370
L77489 64401
L77443 64416
L77367 64416
" />
<path d="M77656 64096
L77870 64096
L77733 64416
" />
<path d="M78037 64233
L78007 64218
L77992 64203
L77976 64172
L77976 64157
L77992 64126
L78007 64111
L78037 64096
L78098 64096
L78129 64111
L78144 64126
L78159 64157
L78159 64172
L78144 64203
L78129 64218
L78098 64233
L78037 64233
L78007 64248
L77992 64264
L77976 64294
L77976 64355
L77992 64385
L78007 64401
L78037 64416
L78098 64416
L78129 64401
L78144 64385
L78159 64355
L78159 64294
L78144 64264
L78129 64248
L78098 64233
" />
<path d="M82485 64416
L82485 64096
L82561 64096
L82607 64111
L82637 64142
L82653 64172
L82668 64233
L82668 64279
L82653 64340
L82637 64370
L82607 64401
L82561 64416
L82485 64416
" />
<path d="M82774 64096
L82988 64096
L82851 64416
" />
<path d="M83125 64416
L83186 64416
L83216 64401
L83232 64385
L83262 64340
L83277 64279
L83277 64157
L83262 64126
L83247 64111
L83216 64096
L83155 64096
L83125 64111
L83110 64126
L83094 64157
L83094 64233
L83110 64264
L83125 64279
L83155 64294
L83216 64294
L83247 64279
L83262 64264
L83277 64233
" />
<path d="M92721 64416
L92721 64096
L92797 64096
L92843 64111
L92874 64142
L92889 64172
L92904 64233
L92904 64279
L92889 64340
L92874 64370
L92843 64401
L92797 64416
L92721 64416
" />
<path d="M93087 64233
L93056 64218
L93041 64203
L93026 64172
L93026 64157
L93041 64126
L93056 64111
L93087 64096
L93148 64096
L93178 64111
L93194 64126
L93209 64157
L93209 64172
L93194 64203
L93178 64218
L93148 64233
L93087 64233
L93056 64248
L93041 64264
L93026 64294
L93026 64355
L93041 64385
L93056 64401
L93087 64416
L93148 64416
L93178 64401
L93194 64385
L93209 64355
L93209 64294
L93194 64264
L93178 64248
L93148 64233
" />
<path d="M93483 64096
L93422 64096
L93392 64111
L93376 64126
L93346 64172
L93331 64233
L93331 64355
L93346 64385
L93361 64401
L93392 64416
L93453 64416
L93483 64401
L93498 64385
L93514 64355
L93514 64279
L93498 64248
L93483 64233
L93453 64218
L93392 64218
L93361 64233
L93346 64248
L93331 64279
" />
<path d="M97839 64416
L97839 64096
L97915 64096
L97961 64111
L97992 64142
L98007 64172
L98022 64233
L98022 64279
L98007 64340
L97992 64370
L97961 64401
L97915 64416
L97839 64416
" />
<path d="M98205 64233
L98175 64218
L98159 64203
L98144 64172
L98144 64157
L98159 64126
L98175 64111
L98205 64096
L98266 64096
L98296 64111
L98312 64126
L98327 64157
L98327 64172
L98312 64203
L98296 64218
L98266 64233
L98205 64233
L98175 64248
L98159 64264
L98144 64294
L98144 64355
L98159 64385
L98175 64401
L98205 64416
L98266 64416
L98296 64401
L98312 64385
L98327 64355
L98327 64294
L98312 64264
L98296 64248
L98266 64233
" />
<path d="M98434 64096
L98647 64096
L98510 64416
" />
<path d="M102957 64416
L102957 64096
L103034 64096
L103079 64111
L103110 64142
L103125 64172
L103140 64233
L103140 64279
L103125 64340
L103110 64370
L103079 64401
L103034 64416
L102957 64416
" />
<path d="M103323 64233
L103293 64218
L103277 64203
L103262 64172
L103262 64157
L103277 64126
L103293 64111
L103323 64096
L103384 64096
L103415 64111
L103430 64126
L103445 64157
L103445 64172
L103430 64203
L103415 64218
L103384 64233
L103323 64233
L103293 64248
L103277 64264
L103262 64294
L103262 64355
L103277 64385
L103293 64401
L103323 64416
L103384 64416
L103415 64401
L103430 64385
L103445 64355
L103445 64294
L103430 64264
L103415 64248
L103384 64233
" />
<path d="M103628 64233
L103597 64218
L103582 64203
L103567 64172
L103567 64157
L103582 64126
L103597 64111
L103628 64096
L103689 64096
L103719 64111
L103735 64126
L103750 64157
L103750 64172
L103735 64203
L103719 64218
L103689 64233
L103628 64233
L103597 64248
L103582 64264
L103567 64294
L103567 64355
L103582 64385
L103597 64401
L103628 64416
L103689 64416
L103719 64401
L103735 64385
L103750 64355
L103750 64294
L103735 64264
L103719 64248
L103689 64233
" />
<path d="M108075 64416
L108075 64096
L108152 64096
L108197 64111
L108228 64142
L108243 64172
L108258 64233
L108258 64279
L108243 64340
L108228 64370
L108197 64401
L108152 64416
L108075 64416
" />
<path d="M108441 64233
L108411 64218
L108395 64203
L108380 64172
L108380 64157
L108395 64126
L108411 64111
L108441 64096
L108502 64096
L108533 64111
L108548 64126
L108563 64157
L108563 64172
L108548 64203
L108533 64218
L108502 64233
L108441 64233
L108411 64248
L108395 64264
L108380 64294
L108380 64355
L108395 64385
L108411 64401
L108441 64416
L108502 64416
L108533 64401
L108548 64385
L108563 64355
L108563 64294
L108548 64264
L108533 64248
L108502 64233
" />
<path d="M108715 64416
L108776 64416
L108807 64401
L108822 64385
L108853 64340
L108868 64279
L108868 64157
L108853 64126
L108837 64111
L108807 64096
L108746 64096
L108715 64111
L108700 64126
L108685 64157
L108685 64233
L108700 64264
L108715 64279
L108746 64294
L108807 64294
L108837 64279
L108853 64264
L108868 64233
" />
<path d="M113194 64416
L113194 64096
L113270 64096
L113316 64111
L113346 64142
L113361 64172
L113376 64233
L113376 64279
L113361 64340
L113346 64370
L113316 64401
L113270 64416
L113194 64416
" />
<path d="M113529 64416
L113590 64416
L113620 64401
L113636 64385
L113666 64340
L113681 64279
L113681 64157
L113666 64126
L113651 64111
L113620 64096
L113559 64096
L113529 64111
L113514 64126
L113498 64157
L113498 64233
L113514 64264
L113529 64279
L113559 64294
L113620 64294
L113651 64279
L113666 64264
L113681 64233
" />
<path d="M113879 64096
L113910 64096
L113940 64111
L113956 64126
L113971 64157
L113986 64218
L113986 64294
L113971 64355
L113956 64385
L113940 64401
L113910 64416
L113879 64416
L113849 64401
L113834 64385
L113818 64355
L113803 64294
L113803 64218
L113818 64157
L113834 64126
L113849 64111
L113879 64096
" />
<path d="M118312 64416
L118312 64096
L118388 64096
L118434 64111
L118464 64142
L118479 64172
L118495 64233
L118495 64279
L118479 64340
L118464 64370
L118434 64401
L118388 64416
L118312 64416
" />
<path d="M118647 64416
L118708 64416
L118738 64401
L118754 64385
L118784 64340
L118799 64279
L118799 64157
L118784 64126
L118769 64111
L118738 64096
L118677 64096
L118647 64111
L118632 64126
L118616 64157
L118616 64233
L118632 64264
L118647 64279
L118677 64294
L118738 64294
L118769 64279
L118784 64264
L118799 64233
" />
<path d="M119104 64416
L118921 64416
" />
<path d="M119013 64416
L119013 64096
L118982 64142
L118952 64172
L118921 64187
" />
<path d="M123430 64416
L123430 64096
L123506 64096
L123552 64111
L123582 64142
L123597 64172
L123613 64233
L123613 64279
L123597 64340
L123582 64370
L123552 64401
L123506 64416
L123430 64416
" />
<path d="M123765 64416
L123826 64416
L123856 64401
L123872 64385
L123902 64340
L123917 64279
L123917 64157
L123902 64126
L123887 64111
L123856 64096
L123796 64096
L123765 64111
L123750 64126
L123735 64157
L123735 64233
L123750 64264
L123765 64279
L123796 64294
L123856 64294
L123887 64279
L123902 64264
L123917 64233
" />
<path d="M124039 64126
L124055 64111
L124085 64096
L124161 64096
L124192 64111
L124207 64126
L124222 64157
L124222 64187
L124207 64233
L124024 64416
L124222 64416
" />
<path d="M46560 64416
L46560 64096
L46636 64096
L46682 64111
L46712 64142
L46727 64172
L46743 64233
L46743 64279
L46727 64340
L46712 64370
L46682 64401
L46636 64416
L46560 64416
" />
<path d="M46895 64416
L46956 64416
L46986 64401
L47002 64385
L47032 64340
L47047 64279
L47047 64157
L47032 64126
L47017 64111
L46986 64096
L46925 64096
L46895 64111
L46880 64126
L46865 64157
L46865 64233
L46880 64264
L46895 64279
L46925 64294
L46986 64294
L47017 64279
L47032 64264
L47047 64233
" />
<path d="M47154 64096
L47352 64096
L47245 64218
L47291 64218
L47322 64233
L47337 64248
L47352 64279
L47352 64355
L47337 64385
L47322 64401
L47291 64416
L47200 64416
L47169 64401
L47154 64385
" />
<path d="M87603 64416
L87603 64096
L87679 64096
L87725 64111
L87755 64142
L87771 64172
L87786 64233
L87786 64279
L87771 64340
L87755 64370
L87725 64401
L87679 64416
L87603 64416
" />
<path d="M87938 64416
L87999 64416
L88030 64401
L88045 64385
L88075 64340
L88091 64279
L88091 64157
L88075 64126
L88060 64111
L88030 64096
L87969 64096
L87938 64111
L87923 64126
L87908 64157
L87908 64233
L87923 64264
L87938 64279
L87969 64294
L88030 64294
L88060 64279
L88075 64264
L88091 64233
" />
<path d="M88365 64203
L88365 64416
" />
<path d="M88289 64081
L88213 64309
L88411 64309
" />
<path d="M123248 68828
L123293 68843
L123368 68843
L123398 68828
L123413 68813
L123428 68783
L123428 68753
L123413 68723
L123398 68708
L123368 68693
L123308 68678
L123278 68663
L123263 68648
L123248 68618
L123248 68588
L123263 68558
L123278 68543
L123308 68528
L123383 68528
L123428 68543
" />
<path d="M123533 68528
L123608 68843
L123668 68618
L123728 68843
L123803 68528
" />
<path d="M123893 68528
L124088 68528
L123983 68648
L124028 68648
L124058 68663
L124073 68678
L124088 68708
L124088 68783
L124073 68813
L124058 68828
L124028 68843
L123938 68843
L123908 68828
L123893 68813
" />
<path d="M124268 68663
L124238 68648
L124223 68633
L124208 68603
L124208 68588
L124223 68558
L124238 68543
L124268 68528
L124328 68528
L124358 68543
L124373 68558
L124388 68588
L124388 68603
L124373 68633
L124358 68648
L124328 68663
L124268 68663
L124238 68678
L124223 68693
L124208 68723
L124208 68783
L124223 68813
L124238 68828
L124268 68843
L124328 68843
L124358 68828
L124373 68813
L124388 68783
L124388 68723
L124373 68693
L124358 68678
L124328 68663
" />
<path d="M118130 68828
L118175 68843
L118250 68843
L118280 68828
L118295 68813
L118310 68783
L118310 68753
L118295 68723
L118280 68708
L118250 68693
L118190 68678
L118160 68663
L118145 68648
L118130 68618
L118130 68588
L118145 68558
L118160 68543
L118190 68528
L118265 68528
L118310 68543
" />
<path d="M118415 68528
L118490 68843
L118550 68618
L118610 68843
L118685 68528
" />
<path d="M118775 68528
L118970 68528
L118865 68648
L118910 68648
L118940 68663
L118955 68678
L118970 68708
L118970 68783
L118955 68813
L118940 68828
L118910 68843
L118820 68843
L118790 68828
L118775 68813
" />
<path d="M119075 68528
L119285 68528
L119150 68843
" />
<path d="M113012 68828
L113057 68843
L113132 68843
L113162 68828
L113177 68813
L113192 68783
L113192 68753
L113177 68723
L113162 68708
L113132 68693
L113072 68678
L113042 68663
L113027 68648
L113012 68618
L113012 68588
L113027 68558
L113042 68543
L113072 68528
L113147 68528
L113192 68543
" />
<path d="M113297 68528
L113372 68843
L113432 68618
L113492 68843
L113567 68528
" />
<path d="M113657 68528
L113852 68528
L113747 68648
L113792 68648
L113822 68663
L113837 68678
L113852 68708
L113852 68783
L113837 68813
L113822 68828
L113792 68843
L113702 68843
L113672 68828
L113657 68813
" />
<path d="M114122 68528
L114062 68528
L114032 68543
L114017 68558
L113987 68603
L113972 68663
L113972 68783
L113987 68813
L114002 68828
L114032 68843
L114092 68843
L114122 68828
L114137 68813
L114152 68783
L114152 68708
L114137 68678
L114122 68663
L114092 68648
L114032 68648
L114002 68663
L113987 68678
L113972 68708
" />
<path d="M107894 68828
L107939 68843
L108014 68843
L108044 68828
L108059 68813
L108074 68783
L108074 68753
L108059 68723
L108044 68708
L108014 68693
L107954 68678
L107924 68663
L107909 68648
L107894 68618
L107894 68588
L107909 68558
L107924 68543
L107954 68528
L108029 68528
L108074 68543
" />
<path d="M108179 68528
L108254 68843
L108314 68618
L108374 68843
L108449 68528
" />
<path d="M108539 68528
L108734 68528
L108629 68648
L108674 68648
L108704 68663
L108719 68678
L108734 68708
L108734 68783
L108719 68813
L108704 68828
L108674 68843
L108584 68843
L108554 68828
L108539 68813
" />
<path d="M109019 68528
L108869 68528
L108854 68678
L108869 68663
L108899 68648
L108974 68648
L109004 68663
L109019 68678
L109034 68708
L109034 68783
L109019 68813
L109004 68828
L108974 68843
L108899 68843
L108869 68828
L108854 68813
" />
<path d="M102776 68828
L102821 68843
L102896 68843
L102926 68828
L102941 68813
L102956 68783
L102956 68753
L102941 68723
L102926 68708
L102896 68693
L102836 68678
L102806 68663
L102791 68648
L102776 68618
L102776 68588
L102791 68558
L102806 68543
L102836 68528
L102911 68528
L102956 68543
" />
<path d="M103061 68528
L103136 68843
L103196 68618
L103256 68843
L103331 68528
" />
<path d="M103421 68528
L103616 68528
L103511 68648
L103556 68648
L103586 68663
L103601 68678
L103616 68708
L103616 68783
L103601 68813
L103586 68828
L103556 68843
L103466 68843
L103436 68828
L103421 68813
" />
<path d="M103886 68633
L103886 68843
" />
<path d="M103811 68513
L103736 68738
L103931 68738
" />
<path d="M97658 68828
L97703 68843
L97778 68843
L97808 68828
L97823 68813
L97838 68783
L97838 68753
L97823 68723
L97808 68708
L97778 68693
L97718 68678
L97688 68663
L97673 68648
L97658 68618
L97658 68588
L97673 68558
L97688 68543
L97718 68528
L97793 68528
L97838 68543
" />
<path d="M97943 68528
L98018 68843
L98078 68618
L98138 68843
L98213 68528
" />
<path d="M98303 68528
L98498 68528
L98393 68648
L98438 68648
L98468 68663
L98483 68678
L98498 68708
L98498 68783
L98483 68813
L98468 68828
L98438 68843
L98348 68843
L98318 68828
L98303 68813
" />
<path d="M98603 68528
L98798 68528
L98693 68648
L98738 68648
L98768 68663
L98783 68678
L98798 68708
L98798 68783
L98783 68813
L98768 68828
L98738 68843
L98648 68843
L98618 68828
L98603 68813
" />
<path d="M92540 68828
L92585 68843
L92660 68843
L92690 68828
L92705 68813
L92720 68783
L92720 68753
L92705 68723
L92690 68708
L92660 68693
L92600 68678
L92570 68663
L92555 68648
L92540 68618
L92540 68588
L92555 68558
L92570 68543
L92600 68528
L92675 68528
L92720 68543
" />
<path d="M92825 68528
L92900 68843
L92960 68618
L93020 68843
L93095 68528
" />
<path d="M93185 68528
L93380 68528
L93275 68648
L93320 68648
L93350 68663
L93365 68678
L93380 68708
L93380 68783
L93365 68813
L93350 68828
L93320 68843
L93230 68843
L93200 68828
L93185 68813
" />
<path d="M93500 68558
L93515 68543
L93545 68528
L93620 68528
L93650 68543
L93665 68558
L93680 68588
L93680 68618
L93665 68663
L93485 68843
L93680 68843
" />
<path d="M87422 68828
L87467 68843
L87542 68843
L87572 68828
L87587 68813
L87602 68783
L87602 68753
L87587 68723
L87572 68708
L87542 68693
L87482 68678
L87452 68663
L87437 68648
L87422 68618
L87422 68588
L87437 68558
L87452 68543
L87482 68528
L87557 68528
L87602 68543
" />
<path d="M87707 68528
L87782 68843
L87842 68618
L87902 68843
L87977 68528
" />
<path d="M88067 68528
L88262 68528
L88157 68648
L88202 68648
L88232 68663
L88247 68678
L88262 68708
L88262 68783
L88247 68813
L88232 68828
L88202 68843
L88112 68843
L88082 68828
L88067 68813
" />
<path d="M88562 68843
L88382 68843
" />
<path d="M88472 68843
L88472 68528
L88442 68573
L88412 68603
L88382 68618
" />
<path d="M82304 68828
L82349 68843
L82424 68843
L82454 68828
L82469 68813
L82484 68783
L82484 68753
L82469 68723
L82454 68708
L82424 68693
L82364 68678
L82334 68663
L82319 68648
L82304 68618
L82304 68588
L82319 68558
L82334 68543
L82364 68528
L82439 68528
L82484 68543
" />
<path d="M82589 68528
L82664 68843
L82724 68618
L82784 68843
L82859 68528
" />
<path d="M82949 68528
L83143 68528
L83038 68648
L83083 68648
L83113 68663
L83128 68678
L83143 68708
L83143 68783
L83128 68813
L83113 68828
L83083 68843
L82994 68843
L82964 68828
L82949 68813
" />
<path d="M83338 68528
L83368 68528
L83398 68543
L83413 68558
L83428 68588
L83443 68648
L83443 68723
L83428 68783
L83413 68813
L83398 68828
L83368 68843
L83338 68843
L83308 68828
L83293 68813
L83278 68783
L83263 68723
L83263 68648
L83278 68588
L83293 68558
L83308 68543
L83338 68528
" />
<path d="M77185 68828
L77230 68843
L77305 68843
L77335 68828
L77350 68813
L77365 68783
L77365 68753
L77350 68723
L77335 68708
L77305 68693
L77245 68678
L77215 68663
L77200 68648
L77185 68618
L77185 68588
L77200 68558
L77215 68543
L77245 68528
L77320 68528
L77365 68543
" />
<path d="M77470 68528
L77545 68843
L77605 68618
L77665 68843
L77740 68528
" />
<path d="M77845 68558
L77860 68543
L77890 68528
L77965 68528
L77995 68543
L78010 68558
L78025 68588
L78025 68618
L78010 68663
L77830 68843
L78025 68843
" />
<path d="M78175 68843
L78235 68843
L78265 68828
L78280 68813
L78310 68768
L78325 68708
L78325 68588
L78310 68558
L78295 68543
L78265 68528
L78205 68528
L78175 68543
L78160 68558
L78145 68588
L78145 68663
L78160 68693
L78175 68708
L78205 68723
L78265 68723
L78295 68708
L78310 68693
L78325 68663
" />
<path d="M72067 68828
L72112 68843
L72187 68843
L72217 68828
L72232 68813
L72247 68783
L72247 68753
L72232 68723
L72217 68708
L72187 68693
L72127 68678
L72097 68663
L72082 68648
L72067 68618
L72067 68588
L72082 68558
L72097 68543
L72127 68528
L72202 68528
L72247 68543
" />
<path d="M72352 68528
L72427 68843
L72487 68618
L72547 68843
L72622 68528
" />
<path d="M72727 68558
L72742 68543
L72772 68528
L72847 68528
L72877 68543
L72892 68558
L72907 68588
L72907 68618
L72892 68663
L72712 68843
L72907 68843
" />
<path d="M73087 68663
L73057 68648
L73042 68633
L73027 68603
L73027 68588
L73042 68558
L73057 68543
L73087 68528
L73147 68528
L73177 68543
L73192 68558
L73207 68588
L73207 68603
L73192 68633
L73177 68648
L73147 68663
L73087 68663
L73057 68678
L73042 68693
L73027 68723
L73027 68783
L73042 68813
L73057 68828
L73087 68843
L73147 68843
L73177 68828
L73192 68813
L73207 68783
L73207 68723
L73192 68693
L73177 68678
L73147 68663
" />
<path d="M66949 68828
L66994 68843
L67069 68843
L67099 68828
L67114 68813
L67129 68783
L67129 68753
L67114 68723
L67099 68708
L67069 68693
L67009 68678
L66979 68663
L66964 68648
L66949 68618
L66949 68588
L66964 68558
L66979 68543
L67009 68528
L67084 68528
L67129 68543
" />
<path d="M67234 68528
L67309 68843
L67369 68618
L67429 68843
L67504 68528
" />
<path d="M67609 68558
L67624 68543
L67654 68528
L67729 68528
L67759 68543
L67774 68558
L67789 68588
L67789 68618
L67774 68663
L67594 68843
L67789 68843
" />
<path d="M67894 68528
L68104 68528
L67969 68843
" />
<path d="M61831 68828
L61876 68843
L61951 68843
L61981 68828
L61996 68813
L62011 68783
L62011 68753
L61996 68723
L61981 68708
L61951 68693
L61891 68678
L61861 68663
L61846 68648
L61831 68618
L61831 68588
L61846 68558
L61861 68543
L61891 68528
L61966 68528
L62011 68543
" />
<path d="M62116 68528
L62191 68843
L62251 68618
L62311 68843
L62386 68528
" />
<path d="M62491 68558
L62506 68543
L62536 68528
L62611 68528
L62641 68543
L62656 68558
L62671 68588
L62671 68618
L62656 68663
L62476 68843
L62671 68843
" />
<path d="M62941 68528
L62881 68528
L62851 68543
L62836 68558
L62806 68603
L62791 68663
L62791 68783
L62806 68813
L62821 68828
L62851 68843
L62911 68843
L62941 68828
L62956 68813
L62971 68783
L62971 68708
L62956 68678
L62941 68663
L62911 68648
L62851 68648
L62821 68663
L62806 68678
L62791 68708
" />
<path d="M56713 68828
L56758 68843
L56833 68843
L56863 68828
L56878 68813
L56893 68783
L56893 68753
L56878 68723
L56863 68708
L56833 68693
L56773 68678
L56743 68663
L56728 68648
L56713 68618
L56713 68588
L56728 68558
L56743 68543
L56773 68528
L56848 68528
L56893 68543
" />
<path d="M56998 68528
L57073 68843
L57133 68618
L57193 68843
L57268 68528
" />
<path d="M57373 68558
L57388 68543
L57418 68528
L57493 68528
L57523 68543
L57538 68558
L57553 68588
L57553 68618
L57538 68663
L57358 68843
L57553 68843
" />
<path d="M57838 68528
L57688 68528
L57673 68678
L57688 68663
L57718 68648
L57793 68648
L57823 68663
L57838 68678
L57853 68708
L57853 68783
L57838 68813
L57823 68828
L57793 68843
L57718 68843
L57688 68828
L57673 68813
" />
<path d="M51595 68828
L51640 68843
L51715 68843
L51745 68828
L51760 68813
L51775 68783
L51775 68753
L51760 68723
L51745 68708
L51715 68693
L51655 68678
L51625 68663
L51610 68648
L51595 68618
L51595 68588
L51610 68558
L51625 68543
L51655 68528
L51730 68528
L51775 68543
" />
<path d="M51880 68528
L51955 68843
L52015 68618
L52075 68843
L52150 68528
" />
<path d="M52255 68558
L52270 68543
L52300 68528
L52375 68528
L52405 68543
L52420 68558
L52435 68588
L52435 68618
L52420 68663
L52240 68843
L52435 68843
" />
<path d="M52705 68633
L52705 68843
" />
<path d="M52630 68513
L52555 68738
L52750 68738
" />
<path d="M46477 68828
L46522 68843
L46597 68843
L46627 68828
L46642 68813
L46657 68783
L46657 68753
L46642 68723
L46627 68708
L46597 68693
L46537 68678
L46507 68663
L46492 68648
L46477 68618
L46477 68588
L46492 68558
L46507 68543
L46537 68528
L46612 68528
L46657 68543
" />
<path d="M46762 68528
L46837 68843
L46897 68618
L46957 68843
L47032 68528
" />
<path d="M47137 68558
L47152 68543
L47182 68528
L47257 68528
L47287 68543
L47302 68558
L47317 68588
L47317 68618
L47302 68663
L47122 68843
L47317 68843
" />
<path d="M47422 68528
L47617 68528
L47512 68648
L47557 68648
L47587 68663
L47602 68678
L47617 68708
L47617 68783
L47602 68813
L47587 68828
L47557 68843
L47467 68843
L47437 68828
L47422 68813
" />
</g> 
</svg>
