<?xml version="1.0" standalone="no"?>
 <!DOCTYPE svg PUBLIC "-//W3C//DTD SVG 1.1//EN" 
 "http://www.w3.org/Graphics/SVG/1.1/DTD/svg11.dtd"> 
<svg xmlns="http://www.w3.org/2000/svg" version="1.1" 
    width="43.18cm" height="27.94cm" viewBox="0 0 170000 110000 ">
<title>SVG Picture created as TR-808-Clone-F.SilkS.svg date 2016/06/29 14:04:33 </title>
  <desc>Picture generated by PCBNEW </desc>
<g style="fill:#000000; fill-opacity:1;stroke:#000000; stroke-opacity:1;
stroke-linecap:round; stroke-linejoin:round; "
 transform="translate(0 0) scale(1 1)">
</g>
<g style="fill:#000000; fill-opacity:0.0; 
stroke:#000000; stroke-width:-0.000393701; stroke-opacity:1; 
stroke-linecap:round; stroke-linejoin:round;">
</g>
<g style="fill:#000000; fill-opacity:0.0; 
stroke:#000000; stroke-width:118.11; stroke-opacity:1; 
stroke-linecap:round; stroke-linejoin:round;">
<path d="M45528 60475
L45613 60503
L45753 60503
L45809 60475
L45838 60447
L45866 60390
L45866 60334
L45838 60278
L45809 60250
L45753 60222
L45641 60194
L45584 60165
L45556 60137
L45528 60081
L45528 60025
L45556 59969
L45584 59940
L45641 59912
L45781 59912
L45866 59940
" />
<path d="M46231 59912
L46344 59912
L46400 59940
L46456 59997
L46484 60109
L46484 60306
L46456 60419
L46400 60475
L46344 60503
L46231 60503
L46175 60475
L46119 60419
L46091 60306
L46091 60109
L46119 59997
L46175 59940
L46231 59912
" />
<path d="M46737 60503
L46737 59912
L46934 60334
L47131 59912
L47131 60503
" />
<path d="M47412 60194
L47609 60194
" />
<path d="M47694 60503
L47412 60503
L47412 59912
L47694 59912
" />
<path d="M48397 60503
L48397 59912
" />
<path d="M48734 60503
L48481 60165
" />
<path d="M48734 59912
L48397 60250
" />
<path d="M48987 60503
L48987 59912
" />
<path d="M49268 60503
L49268 59912
L49606 60503
L49606 59912
" />
<path d="M49887 60503
L49887 59912
L50028 59912
L50112 59940
L50168 59997
L50196 60053
L50224 60165
L50224 60250
L50196 60362
L50168 60419
L50112 60475
L50028 60503
L49887 60503
" />
<path d="M51040 59912
L51152 59912
L51209 59940
L51265 59997
L51293 60109
L51293 60306
L51265 60419
L51209 60475
L51152 60503
L51040 60503
L50984 60475
L50928 60419
L50899 60306
L50899 60109
L50928 59997
L50984 59940
L51040 59912
" />
<path d="M51743 60194
L51546 60194
" />
<path d="M51546 60503
L51546 59912
L51827 59912
" />
<path d="M52502 60503
L52502 59912
L52643 59912
L52727 59940
L52784 59997
L52812 60053
L52840 60165
L52840 60250
L52812 60362
L52784 60419
L52727 60475
L52643 60503
L52502 60503
" />
<path d="M53430 60503
L53233 60222
" />
<path d="M53093 60503
L53093 59912
L53318 59912
L53374 59940
L53402 59969
L53430 60025
L53430 60109
L53402 60165
L53374 60194
L53318 60222
L53093 60222
" />
<path d="M53683 59912
L53683 60390
L53712 60447
L53740 60475
L53796 60503
L53908 60503
L53965 60475
L53993 60447
L54021 60390
L54021 59912
" />
<path d="M54302 60503
L54302 59912
L54499 60334
L54696 59912
L54696 60503
" />
<path d="M55427 60503
L55427 59912
L55624 60334
L55821 59912
L55821 60503
" />
<path d="M56074 60334
L56355 60334
" />
<path d="M56017 60503
L56214 59912
L56411 60503
" />
<path d="M56946 60447
L56917 60475
L56833 60503
L56777 60503
L56692 60475
L56636 60419
L56608 60362
L56580 60250
L56580 60165
L56608 60053
L56636 59997
L56692 59940
L56777 59912
L56833 59912
L56917 59940
L56946 59969
" />
<path d="M57199 60503
L57199 59912
" />
<path d="M57199 60194
L57536 60194
" />
<path d="M57536 60503
L57536 59912
" />
<path d="M57817 60503
L57817 59912
" />
<path d="M58098 60503
L58098 59912
L58436 60503
L58436 59912
" />
<path d="M58717 60194
L58914 60194
" />
<path d="M58998 60503
L58717 60503
L58717 59912
L58998 59912
" />
<path d="M140579 21105
L140663 21133
L140804 21133
L140860 21105
L140888 21077
L140916 21020
L140916 20964
L140888 20908
L140860 20880
L140804 20852
L140691 20823
L140635 20795
L140607 20767
L140579 20711
L140579 20655
L140607 20598
L140635 20570
L140691 20542
L140832 20542
L140916 20570
" />
<path d="M141169 21133
L141169 20542
L141310 20542
L141394 20570
L141451 20627
L141479 20683
L141507 20795
L141507 20880
L141479 20992
L141451 21048
L141394 21105
L141310 21133
L141169 21133
" />
<path d="M135672 20823
L135756 20852
L135784 20880
L135812 20936
L135812 21020
L135784 21077
L135756 21105
L135700 21133
L135475 21133
L135475 20542
L135672 20542
L135728 20570
L135756 20598
L135784 20655
L135784 20711
L135756 20767
L135728 20795
L135672 20823
L135475 20823
" />
<path d="M136065 21133
L136065 20542
L136206 20542
L136290 20570
L136347 20627
L136375 20683
L136403 20795
L136403 20880
L136375 20992
L136347 21048
L136290 21105
L136206 21133
L136065 21133
" />
<path d="M135883 26251
L135601 26251
L135601 25660
" />
<path d="M135995 25660
L136332 25660
" />
<path d="M136164 26251
L136164 25660
" />
<path d="M140621 26251
L140621 25660
L140818 26082
L141015 25660
L141015 26251
" />
<path d="M141212 25660
L141549 25660
" />
<path d="M141380 26251
L141380 25660
" />
<path d="M135531 31369
L135531 30778
" />
<path d="M135531 31060
L135868 31060
" />
<path d="M135868 31369
L135868 30778
" />
<path d="M136065 30778
L136403 30778
" />
<path d="M136234 31369
L136234 30778
" />
<path d="M140944 31369
L140748 31088
" />
<path d="M140607 31369
L140607 30778
L140832 30778
L140888 30807
L140916 30835
L140944 30891
L140944 30975
L140916 31032
L140888 31060
L140832 31088
L140607 31088
" />
<path d="M141169 31341
L141254 31369
L141394 31369
L141451 31341
L141479 31313
L141507 31257
L141507 31200
L141479 31144
L141451 31116
L141394 31088
L141282 31060
L141226 31032
L141197 31003
L141169 30947
L141169 30891
L141197 30835
L141226 30807
L141282 30778
L141422 30778
L141507 30807
" />
<path d="M140930 36431
L140902 36459
L140818 36487
L140762 36487
L140677 36459
L140621 36403
L140593 36347
L140565 36234
L140565 36150
L140593 36037
L140621 35981
L140677 35925
L140762 35897
L140818 35897
L140902 35925
L140930 35953
" />
<path d="M141380 36178
L141465 36206
L141493 36234
L141521 36290
L141521 36375
L141493 36431
L141465 36459
L141408 36487
L141183 36487
L141183 35897
L141380 35897
L141437 35925
L141465 35953
L141493 36009
L141493 36065
L141465 36122
L141437 36150
L141380 36178
L141183 36178
" />
<path d="M135812 36431
L135784 36459
L135700 36487
L135643 36487
L135559 36459
L135503 36403
L135475 36347
L135447 36234
L135447 36150
L135475 36037
L135503 35981
L135559 35925
L135643 35897
L135700 35897
L135784 35925
L135812 35953
" />
<path d="M136065 36487
L136065 35897
L136290 35897
L136347 35925
L136375 35953
L136403 36009
L136403 36093
L136375 36150
L136347 36178
L136290 36206
L136065 36206
" />
<path d="M136642 41549
L136614 41577
L136529 41605
L136473 41605
L136389 41577
L136332 41521
L136304 41465
L136276 41352
L136276 41268
L136304 41155
L136332 41099
L136389 41043
L136473 41015
L136529 41015
L136614 41043
L136642 41071
" />
<path d="M137007 41324
L137007 41605
" />
<path d="M136811 41015
L137007 41324
L137204 41015
" />
<path d="M140677 41015
L140790 41015
L140846 41043
L140902 41099
L140930 41212
L140930 41408
L140902 41521
L140846 41577
L140790 41605
L140677 41605
L140621 41577
L140565 41521
L140537 41408
L140537 41212
L140565 41099
L140621 41043
L140677 41015
" />
<path d="M141183 41605
L141183 41015
" />
<path d="M141183 41296
L141521 41296
" />
<path d="M141521 41605
L141521 41015
" />
<path d="M140537 46723
L140537 46133
L140733 46555
L140930 46133
L140930 46723
" />
<path d="M141324 46133
L141437 46133
L141493 46161
L141549 46217
L141577 46330
L141577 46526
L141549 46639
L141493 46695
L141437 46723
L141324 46723
L141268 46695
L141212 46639
L141183 46526
L141183 46330
L141212 46217
L141268 46161
L141324 46133
" />
<path d="M135897 46667
L135868 46695
L135784 46723
L135728 46723
L135643 46695
L135587 46639
L135559 46583
L135531 46470
L135531 46386
L135559 46273
L135587 46217
L135643 46161
L135728 46133
L135784 46133
L135868 46161
L135897 46189
" />
<path d="M136150 46723
L136150 46133
" />
<path d="M136150 46414
L136487 46414
" />
<path d="M136487 46723
L136487 46133
" />
<path d="M33070 44755
L33408 44755
" />
<path d="M33239 45345
L33239 44755
" />
<path d="M33605 45036
L33802 45036
" />
<path d="M33886 45345
L33605 45345
L33605 44755
L33886 44755
" />
<path d="M34139 45345
L34139 44755
L34336 45177
L34533 44755
L34533 45345
" />
<path d="M34814 45345
L34814 44755
L35039 44755
L35095 44783
L35123 44811
L35151 44867
L35151 44952
L35123 45008
L35095 45036
L35039 45064
L34814 45064
" />
<path d="M35517 44755
L35629 44755
L35686 44783
L35742 44839
L35770 44952
L35770 45149
L35742 45261
L35686 45317
L35629 45345
L35517 45345
L35461 45317
L35404 45261
L35376 45149
L35376 44952
L35404 44839
L35461 44783
L35517 44755
" />
<path d="M131144 53810
L131341 54401
L131538 53810
" />
<path d="M131847 53810
L131960 53810
L132016 53838
L132072 53894
L132100 54007
L132100 54204
L132072 54316
L132016 54372
L131960 54401
L131847 54401
L131791 54372
L131735 54316
L131706 54204
L131706 54007
L131735 53894
L131791 53838
L131847 53810
" />
<path d="M132634 54401
L132353 54401
L132353 53810
" />
<path d="M66535 35179
L66619 35208
L66760 35208
L66816 35179
L66844 35151
L66872 35095
L66872 35039
L66844 34983
L66816 34955
L66760 34926
L66647 34898
L66591 34870
L66563 34842
L66535 34786
L66535 34730
L66563 34673
L66591 34645
L66647 34617
L66788 34617
L66872 34645
" />
<path d="M67125 35208
L67125 34617
L67463 35208
L67463 34617
" />
<path d="M67716 35039
L67997 35039
" />
<path d="M67660 35208
L67857 34617
L68053 35208
" />
<path d="M68250 35208
L68250 34617
L68475 34617
L68532 34645
L68560 34673
L68588 34730
L68588 34814
L68560 34870
L68532 34898
L68475 34926
L68250 34926
" />
<path d="M68841 35208
L68841 34617
L69066 34617
L69122 34645
L69150 34673
L69178 34730
L69178 34814
L69150 34870
L69122 34898
L69066 34926
L68841 34926
" />
<path d="M69544 34926
L69544 35208
" />
<path d="M69347 34617
L69544 34926
L69741 34617
" />
<path d="M59800 35208
L59800 34617
L59940 34617
L60025 34645
L60081 34701
L60109 34758
L60137 34870
L60137 34955
L60109 35067
L60081 35123
L60025 35179
L59940 35208
L59800 35208
" />
<path d="M60390 34898
L60587 34898
" />
<path d="M60672 35208
L60390 35208
L60390 34617
L60672 34617
" />
<path d="M61262 35151
L61234 35179
L61150 35208
L61093 35208
L61009 35179
L60953 35123
L60925 35067
L60897 34955
L60897 34870
L60925 34758
L60953 34701
L61009 34645
L61093 34617
L61150 34617
L61234 34645
L61262 34673
" />
<path d="M61487 35039
L61768 35039
" />
<path d="M61431 35208
L61628 34617
L61825 35208
" />
<path d="M62134 34926
L62134 35208
" />
<path d="M61937 34617
L62134 34926
L62331 34617
" />
<path d="M116493 35208
L116493 34617
L116633 34617
L116718 34645
L116774 34701
L116802 34758
L116830 34870
L116830 34955
L116802 35067
L116774 35123
L116718 35179
L116633 35208
L116493 35208
" />
<path d="M117083 34898
L117280 34898
" />
<path d="M117365 35208
L117083 35208
L117083 34617
L117365 34617
" />
<path d="M117955 35151
L117927 35179
L117843 35208
L117786 35208
L117702 35179
L117646 35123
L117618 35067
L117589 34955
L117589 34870
L117618 34758
L117646 34701
L117702 34645
L117786 34617
L117843 34617
L117927 34645
L117955 34673
" />
<path d="M118180 35039
L118461 35039
" />
<path d="M118124 35208
L118321 34617
L118517 35208
" />
<path d="M118827 34926
L118827 35208
" />
<path d="M118630 34617
L118827 34926
L119024 34617
" />
<path d="M123579 35208
L123579 34617
L123720 34617
L123804 34645
L123861 34701
L123889 34758
L123917 34870
L123917 34955
L123889 35067
L123861 35123
L123804 35179
L123720 35208
L123579 35208
" />
<path d="M124170 34898
L124367 34898
" />
<path d="M124451 35208
L124170 35208
L124170 34617
L124451 34617
" />
<path d="M125042 35151
L125014 35179
L124929 35208
L124873 35208
L124789 35179
L124732 35123
L124704 35067
L124676 34955
L124676 34870
L124704 34758
L124732 34701
L124789 34645
L124873 34617
L124929 34617
L125014 34645
L125042 34673
" />
<path d="M125267 35039
L125548 35039
" />
<path d="M125210 35208
L125407 34617
L125604 35208
" />
<path d="M125913 34926
L125913 35208
" />
<path d="M125717 34617
L125913 34926
L126110 34617
" />
<path d="M116563 33830
L116901 33830
" />
<path d="M116732 34420
L116732 33830
" />
<path d="M117210 33830
L117322 33830
L117379 33858
L117435 33914
L117463 34026
L117463 34223
L117435 34336
L117379 34392
L117322 34420
L117210 34420
L117154 34392
L117097 34336
L117069 34223
L117069 34026
L117097 33914
L117154 33858
L117210 33830
" />
<path d="M117716 34420
L117716 33830
L118053 34420
L118053 33830
" />
<path d="M118335 34111
L118532 34111
" />
<path d="M118616 34420
L118335 34420
L118335 33830
L118616 33830
" />
<path d="M87935 35109
L88273 35109
" />
<path d="M88104 35700
L88104 35109
" />
<path d="M88470 35109
L88470 35587
L88498 35643
L88526 35672
L88582 35700
L88695 35700
L88751 35672
L88779 35643
L88807 35587
L88807 35109
" />
<path d="M89088 35700
L89088 35109
L89426 35700
L89426 35109
" />
<path d="M89707 35700
L89707 35109
" />
<path d="M89988 35700
L89988 35109
L90326 35700
L90326 35109
" />
<path d="M90916 35137
L90860 35109
L90776 35109
L90691 35137
L90635 35194
L90607 35250
L90579 35362
L90579 35447
L90607 35559
L90635 35615
L90691 35672
L90776 35700
L90832 35700
L90916 35672
L90944 35643
L90944 35447
L90832 35447
" />
<path d="M80750 35109
L81088 35109
" />
<path d="M80919 35700
L80919 35109
" />
<path d="M81285 35109
L81285 35587
L81313 35643
L81341 35672
L81397 35700
L81510 35700
L81566 35672
L81594 35643
L81622 35587
L81622 35109
" />
<path d="M81903 35700
L81903 35109
L82241 35700
L82241 35109
" />
<path d="M82522 35700
L82522 35109
" />
<path d="M82803 35700
L82803 35109
L83141 35700
L83141 35109
" />
<path d="M83731 35137
L83675 35109
L83591 35109
L83506 35137
L83450 35194
L83422 35250
L83394 35362
L83394 35447
L83422 35559
L83450 35615
L83506 35672
L83591 35700
L83647 35700
L83731 35672
L83759 35643
L83759 35447
L83647 35447
" />
<path d="M73664 35109
L74001 35109
" />
<path d="M73832 35700
L73832 35109
" />
<path d="M74198 35109
L74198 35587
L74226 35643
L74254 35672
L74311 35700
L74423 35700
L74479 35672
L74507 35643
L74535 35587
L74535 35109
" />
<path d="M74817 35700
L74817 35109
L75154 35700
L75154 35109
" />
<path d="M75435 35700
L75435 35109
" />
<path d="M75717 35700
L75717 35109
L76054 35700
L76054 35109
" />
<path d="M76645 35137
L76588 35109
L76504 35109
L76420 35137
L76363 35194
L76335 35250
L76307 35362
L76307 35447
L76335 35559
L76363 35615
L76420 35672
L76504 35700
L76560 35700
L76645 35672
L76673 35643
L76673 35447
L76560 35447
" />
<path d="M67055 33830
L67393 33830
" />
<path d="M67224 34420
L67224 33830
" />
<path d="M67702 33830
L67814 33830
L67871 33858
L67927 33914
L67955 34026
L67955 34223
L67927 34336
L67871 34392
L67814 34420
L67702 34420
L67646 34392
L67589 34336
L67561 34223
L67561 34026
L67589 33914
L67646 33858
L67702 33830
" />
<path d="M68208 34420
L68208 33830
L68546 34420
L68546 33830
" />
<path d="M68827 34111
L69024 34111
" />
<path d="M69108 34420
L68827 34420
L68827 33830
L69108 33830
" />
<path d="M59969 33830
L60306 33830
" />
<path d="M60137 34420
L60137 33830
" />
<path d="M60615 33830
L60728 33830
L60784 33858
L60840 33914
L60868 34026
L60868 34223
L60840 34336
L60784 34392
L60728 34420
L60615 34420
L60559 34392
L60503 34336
L60475 34223
L60475 34026
L60503 33914
L60559 33858
L60615 33830
" />
<path d="M61122 34420
L61122 33830
L61459 34420
L61459 33830
" />
<path d="M61740 34111
L61937 34111
" />
<path d="M62021 34420
L61740 34420
L61740 33830
L62021 33830
" />
<path d="M131861 20978
L131833 21006
L131749 21034
L131692 21034
L131608 21006
L131552 20950
L131524 20894
L131496 20781
L131496 20697
L131524 20584
L131552 20528
L131608 20472
L131692 20444
L131749 20444
L131833 20472
L131861 20500
" />
<path d="M132114 21034
L132114 20444
" />
<path d="M132114 20725
L132452 20725
" />
<path d="M132452 21034
L132452 20444
" />
<path d="M124437 20444
L124550 20444
L124606 20472
L124662 20528
L124690 20641
L124690 20838
L124662 20950
L124606 21006
L124550 21034
L124437 21034
L124381 21006
L124325 20950
L124296 20838
L124296 20641
L124325 20528
L124381 20472
L124437 20444
" />
<path d="M124943 21034
L124943 20444
" />
<path d="M124943 20725
L125281 20725
" />
<path d="M125281 21034
L125281 20444
" />
<path d="M117547 20978
L117519 21006
L117435 21034
L117379 21034
L117294 21006
L117238 20950
L117210 20894
L117182 20781
L117182 20697
L117210 20584
L117238 20528
L117294 20472
L117379 20444
L117435 20444
L117519 20472
L117547 20500
" />
<path d="M117913 20753
L117913 21034
" />
<path d="M117716 20444
L117913 20753
L118110 20444
" />
<path d="M110517 20978
L110489 21006
L110404 21034
L110348 21034
L110264 21006
L110208 20950
L110179 20894
L110151 20781
L110151 20697
L110179 20584
L110208 20528
L110264 20472
L110348 20444
L110404 20444
L110489 20472
L110517 20500
" />
<path d="M110967 20725
L111051 20753
L111079 20781
L111107 20838
L111107 20922
L111079 20978
L111051 21006
L110995 21034
L110770 21034
L110770 20444
L110967 20444
L111023 20472
L111051 20500
L111079 20556
L111079 20613
L111051 20669
L111023 20697
L110967 20725
L110770 20725
" />
<path d="M102530 20978
L102502 21006
L102418 21034
L102362 21034
L102277 21006
L102221 20950
L102193 20894
L102165 20781
L102165 20697
L102193 20584
L102221 20528
L102277 20472
L102362 20444
L102418 20444
L102502 20472
L102530 20500
" />
<path d="M102784 21034
L102784 20444
L103008 20444
L103065 20472
L103093 20500
L103121 20556
L103121 20641
L103093 20697
L103065 20725
L103008 20753
L102784 20753
" />
<path d="M103796 20416
L103290 21175
" />
<path d="M103993 21034
L103993 20444
L104190 20866
L104386 20444
L104386 21034
" />
<path d="M104640 20866
L104921 20866
" />
<path d="M104583 21034
L104780 20444
L104977 21034
" />
<path d="M95514 21034
L95317 20753
" />
<path d="M95177 21034
L95177 20444
L95402 20444
L95458 20472
L95486 20500
L95514 20556
L95514 20641
L95486 20697
L95458 20725
L95402 20753
L95177 20753
" />
<path d="M95739 21006
L95823 21034
L95964 21034
L96020 21006
L96048 20978
L96077 20922
L96077 20866
L96048 20809
L96020 20781
L95964 20753
L95852 20725
L95795 20697
L95767 20669
L95739 20613
L95739 20556
L95767 20500
L95795 20472
L95852 20444
L95992 20444
L96077 20472
" />
<path d="M96751 20416
L96245 21175
" />
<path d="M97286 20978
L97258 21006
L97173 21034
L97117 21034
L97033 21006
L96976 20950
L96948 20894
L96920 20781
L96920 20697
L96948 20584
L96976 20528
L97033 20472
L97117 20444
L97173 20444
L97258 20472
L97286 20500
" />
<path d="M97820 21034
L97539 21034
L97539 20444
" />
<path d="M88062 21034
L88062 20444
" />
<path d="M88062 20725
L88399 20725
" />
<path d="M88399 21034
L88399 20444
" />
<path d="M88596 20444
L88934 20444
" />
<path d="M88765 21034
L88765 20444
" />
<path d="M89552 20416
L89046 21175
" />
<path d="M89749 21034
L89749 20444
" />
<path d="M89749 20725
L90087 20725
" />
<path d="M90087 21034
L90087 20444
" />
<path d="M90705 20978
L90677 21006
L90593 21034
L90537 21034
L90452 21006
L90396 20950
L90368 20894
L90340 20781
L90340 20697
L90368 20584
L90396 20528
L90452 20472
L90537 20444
L90593 20444
L90677 20472
L90705 20500
" />
<path d="M80821 21034
L80821 20444
L81017 20866
L81214 20444
L81214 21034
" />
<path d="M81411 20444
L81749 20444
" />
<path d="M81580 21034
L81580 20444
" />
<path d="M82367 20416
L81861 21175
" />
<path d="M82564 21034
L82564 20444
L82761 20866
L82958 20444
L82958 21034
" />
<path d="M83577 20978
L83548 21006
L83464 21034
L83408 21034
L83323 21006
L83267 20950
L83239 20894
L83211 20781
L83211 20697
L83239 20584
L83267 20528
L83323 20472
L83408 20444
L83464 20444
L83548 20472
L83577 20500
" />
<path d="M74311 21034
L74029 21034
L74029 20444
" />
<path d="M74423 20444
L74760 20444
" />
<path d="M74592 21034
L74592 20444
" />
<path d="M75379 20416
L74873 21175
" />
<path d="M75857 21034
L75576 21034
L75576 20444
" />
<path d="M76392 20978
L76363 21006
L76279 21034
L76223 21034
L76138 21006
L76082 20950
L76054 20894
L76026 20781
L76026 20697
L76054 20584
L76082 20528
L76138 20472
L76223 20444
L76279 20444
L76363 20472
L76392 20500
" />
<path d="M67646 21006
L67730 21034
L67871 21034
L67927 21006
L67955 20978
L67983 20922
L67983 20866
L67955 20809
L67927 20781
L67871 20753
L67758 20725
L67702 20697
L67674 20669
L67646 20613
L67646 20556
L67674 20500
L67702 20472
L67758 20444
L67899 20444
L67983 20472
" />
<path d="M68236 21034
L68236 20444
L68377 20444
L68461 20472
L68517 20528
L68546 20584
L68574 20697
L68574 20781
L68546 20894
L68517 20950
L68461 21006
L68377 21034
L68236 21034
" />
<path d="M60770 20725
L60854 20753
L60883 20781
L60911 20838
L60911 20922
L60883 20978
L60854 21006
L60798 21034
L60573 21034
L60573 20444
L60770 20444
L60826 20472
L60854 20500
L60883 20556
L60883 20613
L60854 20669
L60826 20697
L60770 20725
L60573 20725
" />
<path d="M61164 21034
L61164 20444
L61304 20444
L61389 20472
L61445 20528
L61473 20584
L61501 20697
L61501 20781
L61473 20894
L61445 20950
L61389 21006
L61304 21034
L61164 21034
" />
<path d="M52404 20866
L52685 20866
" />
<path d="M52348 21034
L52544 20444
L52741 21034
" />
<path d="M53276 20978
L53248 21006
L53163 21034
L53107 21034
L53023 21006
L52966 20950
L52938 20894
L52910 20781
L52910 20697
L52938 20584
L52966 20528
L53023 20472
L53107 20444
L53163 20444
L53248 20472
L53276 20500
" />
<path d="M53866 20978
L53838 21006
L53754 21034
L53697 21034
L53613 21006
L53557 20950
L53529 20894
L53501 20781
L53501 20697
L53529 20584
L53557 20528
L53613 20472
L53697 20444
L53754 20444
L53838 20472
L53866 20500
" />
<path d="M54119 20725
L54316 20725
" />
<path d="M54401 21034
L54119 21034
L54119 20444
L54401 20444
" />
<path d="M54654 21034
L54654 20444
L54991 21034
L54991 20444
" />
<path d="M55188 20444
L55525 20444
" />
<path d="M55357 21034
L55357 20444
" />
</g>
<g style="fill:#000000; fill-opacity:0.0; 
stroke:#000000; stroke-width:59.0551; stroke-opacity:1; 
stroke-linecap:round; stroke-linejoin:round;">
<path d="M26771 61417
L144881 61417
" />
<path d="M26771 20078
L144881 20078
" />
<path d="M26771 61417
L26771 20078
" />
<path d="M144881 20078
L144881 61417
" />
<path d="M134639 55124
L134639 60624
" />
<path d="M134639 60624
L129139 60624
" />
<path d="M129139 60624
L129139 55124
" />
<path d="M129139 55124
L134639 55124
" />
<path d="M37198 55124
L37198 60624
" />
<path d="M37198 60624
L31698 60624
" />
<path d="M31698 60624
L31698 55124
" />
<path d="M31698 55124
L37198 55124
" />
<circle cx="137795" cy="23228.3" r="1147.83" /> 
<path d="M139763 21259
L139763 25196
" />
<path d="M139763 25196
L135433 25196
" />
<path d="M135433 25196
L135433 21259
" />
<path d="M135433 21259
L139763 21259
" />
<circle cx="137795" cy="23228.3" r="787.402" /> 
<circle cx="142913" cy="23228.3" r="1147.83" /> 
<path d="M144881 21259
L144881 25196
" />
<path d="M144881 25196
L140551 25196
" />
<path d="M140551 25196
L140551 21259
" />
<path d="M140551 21259
L144881 21259
" />
<circle cx="142913" cy="23228.3" r="787.402" /> 
<circle cx="137795" cy="28346.5" r="1147.83" /> 
<path d="M139763 26377
L139763 30314
" />
<path d="M139763 30314
L135433 30314
" />
<path d="M135433 30314
L135433 26377
" />
<path d="M135433 26377
L139763 26377
" />
<circle cx="137795" cy="28346.5" r="787.402" /> 
<circle cx="142913" cy="28346.5" r="1147.83" /> 
<path d="M144881 26377
L144881 30314
" />
<path d="M144881 30314
L140551 30314
" />
<path d="M140551 30314
L140551 26377
" />
<path d="M140551 26377
L144881 26377
" />
<circle cx="142913" cy="28346.5" r="787.402" /> 
<circle cx="137795" cy="33464.6" r="1147.83" /> 
<path d="M139763 31496
L139763 35433
" />
<path d="M139763 35433
L135433 35433
" />
<path d="M135433 35433
L135433 31496
" />
<path d="M135433 31496
L139763 31496
" />
<circle cx="137795" cy="33464.6" r="787.402" /> 
<circle cx="142913" cy="33464.6" r="1147.83" /> 
<path d="M144881 31496
L144881 35433
" />
<path d="M144881 35433
L140551 35433
" />
<path d="M140551 35433
L140551 31496
" />
<path d="M140551 31496
L144881 31496
" />
<circle cx="142913" cy="33464.6" r="787.402" /> 
<circle cx="137795" cy="38582.7" r="1147.83" /> 
<path d="M139763 36614
L139763 40551
" />
<path d="M139763 40551
L135433 40551
" />
<path d="M135433 40551
L135433 36614
" />
<path d="M135433 36614
L139763 36614
" />
<circle cx="137795" cy="38582.7" r="787.402" /> 
<circle cx="142913" cy="43700.8" r="1147.83" /> 
<path d="M144881 41732
L144881 45669
" />
<path d="M144881 45669
L140551 45669
" />
<path d="M140551 45669
L140551 41732
" />
<path d="M140551 41732
L144881 41732
" />
<circle cx="142913" cy="43700.8" r="787.402" /> 
<circle cx="137795" cy="48818.9" r="1147.83" /> 
<path d="M139763 46850
L139763 50787
" />
<path d="M139763 50787
L135433 50787
" />
<path d="M135433 50787
L135433 46850
" />
<path d="M135433 46850
L139763 46850
" />
<circle cx="137795" cy="48818.9" r="787.402" /> 
<circle cx="142913" cy="38582.7" r="1147.83" /> 
<path d="M144881 36614
L144881 40551
" />
<path d="M144881 40551
L140551 40551
" />
<path d="M140551 40551
L140551 36614
" />
<path d="M140551 36614
L144881 36614
" />
<circle cx="142913" cy="38582.7" r="787.402" /> 
<circle cx="137795" cy="43700.8" r="1147.83" /> 
<path d="M139763 41732
L139763 45669
" />
<path d="M139763 45669
L135433 45669
" />
<path d="M135433 45669
L135433 41732
" />
<path d="M135433 41732
L139763 41732
" />
<circle cx="137795" cy="43700.8" r="787.402" /> 
<circle cx="142913" cy="48818.9" r="1147.83" /> 
<path d="M144881 46850
L144881 50787
" />
<path d="M144881 50787
L140551 50787
" />
<path d="M140551 50787
L140551 46850
" />
<path d="M140551 46850
L144881 46850
" />
<circle cx="142913" cy="48818.9" r="787.402" /> 
<path d="M44685 26968
L44685 28149
" />
<path d="M44291 26968
L44291 28149
" />
<path d="M43897 26968
L43897 28149
" />
<path d="M43503 26968
L43503 28149
" />
<path d="M45078 26968
L43110 26968
" />
<path d="M43110 26968
L43110 28149
" />
<path d="M43110 28149
L45078 28149
" />
<path d="M45078 28149
L45078 26968
" />
<path d="M48149 26377
L48149 28740
" />
<path d="M42007 26377
L42007 28740
" />
<path d="M48149 28740
L42007 28740
" />
<path d="M48149 26377
L42007 26377
" />
<circle cx="45078.7" cy="23228.3" r="2165.35" /> 
<circle cx="45078.7" cy="23228.3" r="2952.76" /> 
<path d="M50925 43897
L50925 45570
" />
<path d="M50925 45570
L45728 45570
" />
<path d="M45728 45570
L45728 43897
" />
<path d="M45728 43897
L50925 43897
" />
</g>
<g style="fill:#000000; fill-opacity:0.0; 
stroke:#000000; stroke-width:150; stroke-opacity:1; 
stroke-linecap:round; stroke-linejoin:round;">
<circle cx="117717" cy="30315" r="880.342" /> 
<path d="M115748 30314
L115748 28346
" />
<path d="M115748 28346
L119685 28346
" />
<path d="M119685 28346
L119685 32677
" />
<path d="M119685 32677
L115748 32677
" />
<path d="M115748 32677
L115748 30314
" />
<circle cx="131890" cy="50196.9" r="880.342" /> 
<path d="M129921 50196
L129921 48228
" />
<path d="M129921 48228
L133858 48228
" />
<path d="M133858 48228
L133858 52559
" />
<path d="M133858 52559
L129921 52559
" />
<path d="M129921 52559
L129921 50196
" />
<circle cx="117717" cy="37401.6" r="880.342" /> 
<path d="M115748 37401
L115748 35433
" />
<path d="M115748 35433
L119685 35433
" />
<path d="M119685 35433
L119685 39763
" />
<path d="M119685 39763
L115748 39763
" />
<path d="M115748 39763
L115748 37401
" />
<circle cx="53937" cy="23228.3" r="880.342" /> 
<path d="M51968 23228
L51968 21259
" />
<path d="M51968 21259
L55905 21259
" />
<path d="M55905 21259
L55905 25590
" />
<path d="M55905 25590
L51968 25590
" />
<path d="M51968 25590
L51968 23228
" />
<circle cx="124803" cy="37401.6" r="880.342" /> 
<path d="M122834 37401
L122834 35433
" />
<path d="M122834 35433
L126771 35433
" />
<path d="M126771 35433
L126771 39763
" />
<path d="M126771 39763
L122834 39763
" />
<path d="M122834 39763
L122834 37401
" />
<circle cx="61023.6" cy="23228.3" r="880.342" /> 
<path d="M59055 23228
L59055 21259
" />
<path d="M59055 21259
L62992 21259
" />
<path d="M62992 21259
L62992 25590
" />
<path d="M62992 25590
L59055 25590
" />
<path d="M59055 25590
L59055 23228
" />
<circle cx="61023.6" cy="30315" r="880.342" /> 
<path d="M59055 30314
L59055 28346
" />
<path d="M59055 28346
L62992 28346
" />
<path d="M62992 28346
L62992 32677
" />
<path d="M62992 32677
L59055 32677
" />
<path d="M59055 32677
L59055 30314
" />
<circle cx="110630" cy="23228.3" r="880.342" /> 
<path d="M108661 23228
L108661 21259
" />
<path d="M108661 21259
L112598 21259
" />
<path d="M112598 21259
L112598 25590
" />
<path d="M112598 25590
L108661 25590
" />
<path d="M108661 25590
L108661 23228
" />
<circle cx="61023.6" cy="37401.6" r="880.342" /> 
<path d="M59055 37401
L59055 35433
" />
<path d="M59055 35433
L62992 35433
" />
<path d="M62992 35433
L62992 39763
" />
<path d="M62992 39763
L59055 39763
" />
<path d="M59055 39763
L59055 37401
" />
<circle cx="117717" cy="23228.3" r="880.342" /> 
<path d="M115748 23228
L115748 21259
" />
<path d="M115748 21259
L119685 21259
" />
<path d="M119685 21259
L119685 25590
" />
<path d="M119685 25590
L115748 25590
" />
<path d="M115748 25590
L115748 23228
" />
<circle cx="68110.2" cy="23228.3" r="880.342" /> 
<path d="M66141 23228
L66141 21259
" />
<path d="M66141 21259
L70078 21259
" />
<path d="M70078 21259
L70078 25590
" />
<path d="M70078 25590
L66141 25590
" />
<path d="M66141 25590
L66141 23228
" />
<circle cx="124803" cy="23228.3" r="880.342" /> 
<path d="M122834 23228
L122834 21259
" />
<path d="M122834 21259
L126771 21259
" />
<path d="M126771 21259
L126771 25590
" />
<path d="M126771 25590
L122834 25590
" />
<path d="M122834 25590
L122834 23228
" />
<circle cx="68110.2" cy="30315" r="880.342" /> 
<path d="M66141 30314
L66141 28346
" />
<path d="M66141 28346
L70078 28346
" />
<path d="M70078 28346
L70078 32677
" />
<path d="M70078 32677
L66141 32677
" />
<path d="M66141 32677
L66141 30314
" />
<circle cx="131890" cy="23228.3" r="880.342" /> 
<path d="M129921 23228
L129921 21259
" />
<path d="M129921 21259
L133858 21259
" />
<path d="M133858 21259
L133858 25590
" />
<path d="M133858 25590
L129921 25590
" />
<path d="M129921 25590
L129921 23228
" />
<circle cx="68110.2" cy="37401.6" r="880.342" /> 
<path d="M66141 37401
L66141 35433
" />
<path d="M66141 35433
L70078 35433
" />
<path d="M70078 35433
L70078 39763
" />
<path d="M70078 39763
L66141 39763
" />
<path d="M66141 39763
L66141 37401
" />
<circle cx="75196.9" cy="23228.3" r="880.342" /> 
<path d="M73228 23228
L73228 21259
" />
<path d="M73228 21259
L77165 21259
" />
<path d="M77165 21259
L77165 25590
" />
<path d="M77165 25590
L73228 25590
" />
<path d="M73228 25590
L73228 23228
" />
<circle cx="75196.9" cy="30315" r="880.342" /> 
<path d="M73228 30314
L73228 28346
" />
<path d="M73228 28346
L77165 28346
" />
<path d="M77165 28346
L77165 32677
" />
<path d="M77165 32677
L73228 32677
" />
<path d="M73228 32677
L73228 30314
" />
<circle cx="82283.5" cy="23228.3" r="880.342" /> 
<path d="M80314 23228
L80314 21259
" />
<path d="M80314 21259
L84251 21259
" />
<path d="M84251 21259
L84251 25590
" />
<path d="M84251 25590
L80314 25590
" />
<path d="M80314 25590
L80314 23228
" />
<circle cx="82283.5" cy="30315" r="880.342" /> 
<path d="M80314 30314
L80314 28346
" />
<path d="M80314 28346
L84251 28346
" />
<path d="M84251 28346
L84251 32677
" />
<path d="M84251 32677
L80314 32677
" />
<path d="M80314 32677
L80314 30314
" />
<circle cx="89370.1" cy="23228.3" r="880.342" /> 
<path d="M87401 23228
L87401 21259
" />
<path d="M87401 21259
L91338 21259
" />
<path d="M91338 21259
L91338 25590
" />
<path d="M91338 25590
L87401 25590
" />
<path d="M87401 25590
L87401 23228
" />
<circle cx="89370.1" cy="30315" r="880.342" /> 
<path d="M87401 30314
L87401 28346
" />
<path d="M87401 28346
L91338 28346
" />
<path d="M91338 28346
L91338 32677
" />
<path d="M91338 32677
L87401 32677
" />
<path d="M87401 32677
L87401 30314
" />
<circle cx="96456.7" cy="23228.3" r="880.342" /> 
<path d="M94488 23228
L94488 21259
" />
<path d="M94488 21259
L98425 21259
" />
<path d="M98425 21259
L98425 25590
" />
<path d="M98425 25590
L94488 25590
" />
<path d="M94488 25590
L94488 23228
" />
<circle cx="103543" cy="23228.3" r="880.342" /> 
<path d="M101574 23228
L101574 21259
" />
<path d="M101574 21259
L105511 21259
" />
<path d="M105511 21259
L105511 25590
" />
<path d="M105511 25590
L101574 25590
" />
<path d="M101574 25590
L101574 23228
" />
<circle cx="34448.8" cy="41141.7" r="880.342" /> 
<path d="M32480 41141
L32480 39173
" />
<path d="M32480 39173
L36417 39173
" />
<path d="M36417 39173
L36417 43503
" />
<path d="M36417 43503
L32480 43503
" />
<path d="M32480 43503
L32480 41141
" />
</g>
<g style="fill:#000000; fill-opacity:0.0; 
stroke:#000000; stroke-width:59.0551; stroke-opacity:1; 
stroke-linecap:round; stroke-linejoin:round;">
<path d="M51771.7 43700.8 A2378.55 2378.55 0.0 0 0 52952.8 46850.4 " />
<path d="M52952.8 42519.7 A2378.55 2378.55 0.0 0 0 51771.7 45669.3 " />
<path d="M56102.4 43700.8 A2378.55 2378.55 0.0 0 0 52952.8 42519.7 " />
<path d="M52952.8 46850.4 A2378.55 2378.55 0.0 0 0 56102.4 45669.3 " />
<path d="M56102 43700
L56102 45669
" />
<circle cx="53937" cy="44685" r="1771.65" /> 
<path d="M122638 43700.8 A2378.55 2378.55 0.0 0 0 123819 46850.4 " />
<path d="M123819 42519.7 A2378.55 2378.55 0.0 0 0 122638 45669.3 " />
<path d="M126969 43700.8 A2378.55 2378.55 0.0 0 0 123819 42519.7 " />
<path d="M123819 46850.4 A2378.55 2378.55 0.0 0 0 126969 45669.3 " />
<path d="M126968 43700
L126968 45669
" />
<circle cx="124803" cy="44685" r="1771.65" /> 
<path d="M115551 43700.8 A2378.55 2378.55 0.0 0 0 116732 46850.4 " />
<path d="M116732 42519.7 A2378.55 2378.55 0.0 0 0 115551 45669.3 " />
<path d="M119882 43700.8 A2378.55 2378.55 0.0 0 0 116732 42519.7 " />
<path d="M116732 46850.4 A2378.55 2378.55 0.0 0 0 119882 45669.3 " />
<path d="M119881 43700
L119881 45669
" />
<circle cx="117717" cy="44685" r="1771.65" /> 
<path d="M108465 43700.8 A2378.55 2378.55 0.0 0 0 109646 46850.4 " />
<path d="M109646 42519.7 A2378.55 2378.55 0.0 0 0 108465 45669.3 " />
<path d="M112795 43700.8 A2378.55 2378.55 0.0 0 0 109646 42519.7 " />
<path d="M109646 46850.4 A2378.55 2378.55 0.0 0 0 112795 45669.3 " />
<path d="M112795 43700
L112795 45669
" />
<circle cx="110630" cy="44685" r="1771.65" /> 
<path d="M101378 43700.8 A2378.55 2378.55 0.0 0 0 102559 46850.4 " />
<path d="M102559 42519.7 A2378.55 2378.55 0.0 0 0 101378 45669.3 " />
<path d="M105709 43700.8 A2378.55 2378.55 0.0 0 0 102559 42519.7 " />
<path d="M102559 46850.4 A2378.55 2378.55 0.0 0 0 105709 45669.3 " />
<path d="M105708 43700
L105708 45669
" />
<circle cx="103543" cy="44685" r="1771.65" /> 
<path d="M94291.3 43700.8 A2378.55 2378.55 0.0 0 0 95472.4 46850.4 " />
<path d="M95472.4 42519.7 A2378.55 2378.55 0.0 0 0 94291.3 45669.3 " />
<path d="M98622 43700.8 A2378.55 2378.55 0.0 0 0 95472.4 42519.7 " />
<path d="M95472.4 46850.4 A2378.55 2378.55 0.0 0 0 98622 45669.3 " />
<path d="M98622 43700
L98622 45669
" />
<circle cx="96456.7" cy="44685" r="1771.65" /> 
<path d="M87204.7 43700.8 A2378.55 2378.55 0.0 0 0 88385.8 46850.4 " />
<path d="M88385.8 42519.7 A2378.55 2378.55 0.0 0 0 87204.7 45669.3 " />
<path d="M91535.4 43700.8 A2378.55 2378.55 0.0 0 0 88385.8 42519.7 " />
<path d="M88385.8 46850.4 A2378.55 2378.55 0.0 0 0 91535.4 45669.3 " />
<path d="M91535 43700
L91535 45669
" />
<circle cx="89370.1" cy="44685" r="1771.65" /> 
<path d="M80118.1 43700.8 A2378.55 2378.55 0.0 0 0 81299.2 46850.4 " />
<path d="M81299.2 42519.7 A2378.55 2378.55 0.0 0 0 80118.1 45669.3 " />
<path d="M84448.8 43700.8 A2378.55 2378.55 0.0 0 0 81299.2 42519.7 " />
<path d="M81299.2 46850.4 A2378.55 2378.55 0.0 0 0 84448.8 45669.3 " />
<path d="M84448 43700
L84448 45669
" />
<circle cx="82283.5" cy="44685" r="1771.65" /> 
<path d="M73031.5 43700.8 A2378.55 2378.55 0.0 0 0 74212.6 46850.4 " />
<path d="M74212.6 42519.7 A2378.55 2378.55 0.0 0 0 73031.5 45669.3 " />
<path d="M77362.2 43700.8 A2378.55 2378.55 0.0 0 0 74212.6 42519.7 " />
<path d="M74212.6 46850.4 A2378.55 2378.55 0.0 0 0 77362.2 45669.3 " />
<path d="M77362 43700
L77362 45669
" />
<circle cx="75196.9" cy="44685" r="1771.65" /> 
<path d="M139370 59842.5 A2378.55 2378.55 0.0 0 0 142520 58661.4 " />
<path d="M138189 58661.4 A2378.55 2378.55 0.0 0 0 141339 59842.5 " />
<path d="M139370 55511.8 A2378.55 2378.55 0.0 0 0 138189 58661.4 " />
<path d="M142520 58661.4 A2378.55 2378.55 0.0 0 0 141339 55511.8 " />
<path d="M139370 55511
L141338 55511
" />
<circle cx="140354" cy="57677.2" r="1771.65" /> 
<path d="M129724 43700.8 A2378.55 2378.55 0.0 0 0 130906 46850.4 " />
<path d="M130906 42519.7 A2378.55 2378.55 0.0 0 0 129724 45669.3 " />
<path d="M134055 43700.8 A2378.55 2378.55 0.0 0 0 130906 42519.7 " />
<path d="M130906 46850.4 A2378.55 2378.55 0.0 0 0 134055 45669.3 " />
<path d="M134055 43700
L134055 45669
" />
<circle cx="131890" cy="44685" r="1771.65" /> 
<path d="M65944.9 43700.8 A2378.55 2378.55 0.0 0 0 67126 46850.4 " />
<path d="M67126 42519.7 A2378.55 2378.55 0.0 0 0 65944.9 45669.3 " />
<path d="M70275.6 43700.8 A2378.55 2378.55 0.0 0 0 67126 42519.7 " />
<path d="M67126 46850.4 A2378.55 2378.55 0.0 0 0 70275.6 45669.3 " />
<path d="M70275 43700
L70275 45669
" />
<circle cx="68110.2" cy="44685" r="1771.65" /> 
<path d="M58858.3 43700.8 A2378.55 2378.55 0.0 0 0 60039.4 46850.4 " />
<path d="M60039.4 42519.7 A2378.55 2378.55 0.0 0 0 58858.3 45669.3 " />
<path d="M63189 43700.8 A2378.55 2378.55 0.0 0 0 60039.4 42519.7 " />
<path d="M60039.4 46850.4 A2378.55 2378.55 0.0 0 0 63189 45669.3 " />
<path d="M63188 43700
L63188 45669
" />
<circle cx="61023.6" cy="44685" r="1771.65" /> 
<path d="M45866.1 39566.9 A2378.55 2378.55 0.0 0 0 49015.7 38385.8 " />
<path d="M44685 38385.8 A2378.55 2378.55 0.0 0 0 47834.6 39566.9 " />
<path d="M45866.1 35236.2 A2378.55 2378.55 0.0 0 0 44685 38385.8 " />
<path d="M49015.7 38385.8 A2378.55 2378.55 0.0 0 0 47834.6 35236.2 " />
<path d="M45866 35236
L47834 35236
" />
<circle cx="46850.4" cy="37401.6" r="1771.65" /> 
<path d="M33464.6 28740.2 A2378.55 2378.55 0.0 0 0 36614.2 27559.1 " />
<path d="M32283.5 27559.1 A2378.55 2378.55 0.0 0 0 35433.1 28740.2 " />
<path d="M33464.6 24409.4 A2378.55 2378.55 0.0 0 0 32283.5 27559.1 " />
<path d="M36614.2 27559.1 A2378.55 2378.55 0.0 0 0 35433.1 24409.4 " />
<path d="M33464 24409
L35433 24409
" />
<circle cx="34448.8" cy="26574.8" r="1771.65" /> 
<path d="M43361 35744
L43439 35744
" />
<path d="M42376 35744
L42258 35744
" />
<path d="M43006 35744
L43361 35744
" />
<path d="M42376 35744
L42731 35744
" />
<path d="M43006 35547
L43006 35941
" />
<path d="M42731 35547
L42731 35941
" />
<path d="M42731 35941
L43006 35744
" />
<path d="M43006 35744
L42731 35547
" />
<circle cx="42849.3" cy="35744.3" r="590.551" /> 
<path d="M32148 23281
L32226 23281
" />
<path d="M31163 23281
L31045 23281
" />
<path d="M31793 23281
L32148 23281
" />
<path d="M31163 23281
L31518 23281
" />
<path d="M31793 23084
L31793 23478
" />
<path d="M31518 23084
L31518 23478
" />
<path d="M31518 23478
L31793 23281
" />
<path d="M31793 23281
L31518 23084
" />
<circle cx="31636.2" cy="23281.7" r="590.551" /> 
<path d="M33949 22363
L34028 22363
" />
<path d="M32965 22363
L32847 22363
" />
<path d="M33595 22363
L33949 22363
" />
<path d="M32965 22363
L33319 22363
" />
<path d="M33595 22166
L33595 22560
" />
<path d="M33319 22166
L33319 22560
" />
<path d="M33319 22560
L33595 22363
" />
<path d="M33595 22363
L33319 22166
" />
<circle cx="33437.8" cy="22363.8" r="590.551" /> 
<path d="M35971 22363
L36050 22363
" />
<path d="M34987 22363
L34869 22363
" />
<path d="M35617 22363
L35971 22363
" />
<path d="M34987 22363
L35341 22363
" />
<path d="M35617 22166
L35617 22560
" />
<path d="M35341 22166
L35341 22560
" />
<path d="M35341 22560
L35617 22363
" />
<path d="M35617 22363
L35341 22166
" />
<circle cx="35459.8" cy="22363.8" r="590.551" /> 
<path d="M37773 23281
L37851 23281
" />
<path d="M36788 23281
L36670 23281
" />
<path d="M37418 23281
L37773 23281
" />
<path d="M36788 23281
L37143 23281
" />
<path d="M37418 23084
L37418 23478
" />
<path d="M37143 23084
L37143 23478
" />
<path d="M37143 23478
L37418 23281
" />
<path d="M37418 23281
L37143 23084
" />
<circle cx="37261.4" cy="23281.7" r="590.551" /> 
<path d="M38961 24917
L39040 24917
" />
<path d="M37977 24917
L37859 24917
" />
<path d="M38607 24917
L38961 24917
" />
<path d="M37977 24917
L38331 24917
" />
<path d="M38607 24720
L38607 25114
" />
<path d="M38331 24720
L38331 25114
" />
<path d="M38331 25114
L38607 24917
" />
<path d="M38607 24917
L38331 24720
" />
<circle cx="38449.9" cy="24917.5" r="590.551" /> 
<path d="M44549 34108
L44628 34108
" />
<path d="M43565 34108
L43447 34108
" />
<path d="M44195 34108
L44549 34108
" />
<path d="M43565 34108
L43919 34108
" />
<path d="M44195 33911
L44195 34305
" />
<path d="M43919 33911
L43919 34305
" />
<path d="M43919 34305
L44195 34108
" />
<path d="M44195 34108
L43919 33911
" />
<circle cx="44037.8" cy="34108.5" r="590.551" /> 
<path d="M46351 33190
L46429 33190
" />
<path d="M45366 33190
L45248 33190
" />
<path d="M45996 33190
L46351 33190
" />
<path d="M45366 33190
L45721 33190
" />
<path d="M45996 32993
L45996 33387
" />
<path d="M45721 32993
L45721 33387
" />
<path d="M45721 33387
L45996 33190
" />
<path d="M45996 33190
L45721 32993
" />
<circle cx="45839.4" cy="33190.5" r="590.551" /> 
<path d="M48373 33190
L48451 33190
" />
<path d="M47388 33190
L47270 33190
" />
<path d="M48018 33190
L48373 33190
" />
<path d="M47388 33190
L47743 33190
" />
<path d="M48018 32993
L48018 33387
" />
<path d="M47743 32993
L47743 33387
" />
<path d="M47743 33387
L48018 33190
" />
<path d="M48018 33190
L47743 32993
" />
<circle cx="47861.4" cy="33190.5" r="590.551" /> 
<path d="M50174 34108
L50253 34108
" />
<path d="M49190 34108
L49072 34108
" />
<path d="M49820 34108
L50174 34108
" />
<path d="M49190 34108
L49544 34108
" />
<path d="M49820 33911
L49820 34305
" />
<path d="M49544 33911
L49544 34305
" />
<path d="M49544 34305
L49820 34108
" />
<path d="M49820 34108
L49544 33911
" />
<circle cx="49663" cy="34108.5" r="590.551" /> 
<path d="M51363 35744
L51441 35744
" />
<path d="M50379 35744
L50260 35744
" />
<path d="M51008 35744
L51363 35744
" />
<path d="M50379 35744
L50733 35744
" />
<path d="M51008 35547
L51008 35941
" />
<path d="M50733 35547
L50733 35941
" />
<path d="M50733 35941
L51008 35744
" />
<path d="M51008 35744
L50733 35547
" />
<circle cx="50851.4" cy="35744.3" r="590.551" /> 
<path d="M42440 55905
L42519 55905
" />
<path d="M41456 55905
L41338 55905
" />
<path d="M42086 55905
L42440 55905
" />
<path d="M41456 55905
L41811 55905
" />
<path d="M42086 55708
L42086 56102
" />
<path d="M41811 55708
L41811 56102
" />
<path d="M41811 56102
L42086 55905
" />
<path d="M42086 55905
L41811 55708
" />
<circle cx="41929.1" cy="55905.5" r="590.551" /> 
<path d="M42440 59842
L42519 59842
" />
<path d="M41456 59842
L41338 59842
" />
<path d="M42086 59842
L42440 59842
" />
<path d="M41456 59842
L41811 59842
" />
<path d="M42086 59645
L42086 60039
" />
<path d="M41811 59645
L41811 60039
" />
<path d="M41811 60039
L42086 59842
" />
<path d="M42086 59842
L41811 59645
" />
<circle cx="41929.1" cy="59842.5" r="590.551" /> 
<path d="M104055 34251
L104133 34251
" />
<path d="M103070 34251
L102952 34251
" />
<path d="M103700 34251
L104055 34251
" />
<path d="M103070 34251
L103425 34251
" />
<path d="M103700 34055
L103700 34448
" />
<path d="M103425 34055
L103425 34448
" />
<path d="M103425 34448
L103700 34251
" />
<path d="M103700 34251
L103425 34055
" />
<circle cx="103543" cy="34252" r="590.551" /> 
<path d="M111141 41338
L111220 41338
" />
<path d="M110157 41338
L110039 41338
" />
<path d="M110787 41338
L111141 41338
" />
<path d="M110157 41338
L110511 41338
" />
<path d="M110787 41141
L110787 41535
" />
<path d="M110511 41141
L110511 41535
" />
<path d="M110511 41535
L110787 41338
" />
<path d="M110787 41338
L110511 41141
" />
<circle cx="110630" cy="41338.6" r="590.551" /> 
<path d="M118228 41338
L118307 41338
" />
<path d="M117244 41338
L117125 41338
" />
<path d="M117874 41338
L118228 41338
" />
<path d="M117244 41338
L117598 41338
" />
<path d="M117874 41141
L117874 41535
" />
<path d="M117598 41141
L117598 41535
" />
<path d="M117598 41535
L117874 41338
" />
<path d="M117874 41338
L117598 41141
" />
<circle cx="117717" cy="41338.6" r="590.551" /> 
<path d="M125314 41338
L125393 41338
" />
<path d="M124330 41338
L124212 41338
" />
<path d="M124960 41338
L125314 41338
" />
<path d="M124330 41338
L124685 41338
" />
<path d="M124960 41141
L124960 41535
" />
<path d="M124685 41141
L124685 41535
" />
<path d="M124685 41535
L124960 41338
" />
<path d="M124960 41338
L124685 41141
" />
<circle cx="124803" cy="41338.6" r="590.551" /> 
<path d="M131791 41850
L131791 41929
" />
<path d="M131791 40866
L131791 40748
" />
<path d="M131791 41496
L131791 41850
" />
<path d="M131791 40866
L131791 41220
" />
<path d="M131988 41496
L131594 41496
" />
<path d="M131988 41220
L131594 41220
" />
<path d="M131594 41220
L131791 41496
" />
<path d="M131791 41496
L131988 41220
" />
<circle cx="131791" cy="41338.6" r="590.551" /> 
<path d="M138307 53543
L138385 53543
" />
<path d="M137322 53543
L137204 53543
" />
<path d="M137952 53543
L138307 53543
" />
<path d="M137322 53543
L137677 53543
" />
<path d="M137952 53346
L137952 53740
" />
<path d="M137677 53346
L137677 53740
" />
<path d="M137677 53740
L137952 53543
" />
<path d="M137952 53543
L137677 53346
" />
<circle cx="137795" cy="53543.3" r="590.551" /> 
<path d="M143425 53543
L143503 53543
" />
<path d="M142440 53543
L142322 53543
" />
<path d="M143070 53543
L143425 53543
" />
<path d="M142440 53543
L142795 53543
" />
<path d="M143070 53346
L143070 53740
" />
<path d="M142795 53346
L142795 53740
" />
<path d="M142795 53740
L143070 53543
" />
<path d="M143070 53543
L142795 53346
" />
<circle cx="142913" cy="53543.3" r="590.551" /> 
<path d="M30959 24917
L31038 24917
" />
<path d="M29975 24917
L29857 24917
" />
<path d="M30605 24917
L30959 24917
" />
<path d="M29975 24917
L30329 24917
" />
<path d="M30605 24720
L30605 25114
" />
<path d="M30329 24720
L30329 25114
" />
<path d="M30329 25114
L30605 24917
" />
<path d="M30605 24917
L30329 24720
" />
<circle cx="30447.8" cy="24917.5" r="590.551" /> 
<path d="M42440 53149
L42519 53149
" />
<path d="M41456 53149
L41338 53149
" />
<path d="M42086 53149
L42440 53149
" />
<path d="M41456 53149
L41811 53149
" />
<path d="M42086 52952
L42086 53346
" />
<path d="M41811 52952
L41811 53346
" />
<path d="M41811 53346
L42086 53149
" />
<path d="M42086 53149
L41811 52952
" />
<circle cx="41929.1" cy="53149.6" r="590.551" /> 
<path d="M42440 51377
L42519 51377
" />
<path d="M41456 51377
L41338 51377
" />
<path d="M42086 51377
L42440 51377
" />
<path d="M41456 51377
L41811 51377
" />
<path d="M42086 51181
L42086 51574
" />
<path d="M41811 51181
L41811 51574
" />
<path d="M41811 51574
L42086 51377
" />
<path d="M42086 51377
L41811 51181
" />
<circle cx="41929.1" cy="51378" r="590.551" /> 
<path d="M42440 49606
L42519 49606
" />
<path d="M41456 49606
L41338 49606
" />
<path d="M42086 49606
L42440 49606
" />
<path d="M41456 49606
L41811 49606
" />
<path d="M42086 49409
L42086 49803
" />
<path d="M41811 49409
L41811 49803
" />
<path d="M41811 49803
L42086 49606
" />
<path d="M42086 49606
L41811 49409
" />
<circle cx="41929.1" cy="49606.3" r="590.551" /> 
<path d="M42440 47834
L42519 47834
" />
<path d="M41456 47834
L41338 47834
" />
<path d="M42086 47834
L42440 47834
" />
<path d="M41456 47834
L41811 47834
" />
<path d="M42086 47637
L42086 48031
" />
<path d="M41811 47637
L41811 48031
" />
<path d="M41811 48031
L42086 47834
" />
<path d="M42086 47834
L41811 47637
" />
<circle cx="41929.1" cy="47834.6" r="590.551" /> 
<path d="M61535 41338
L61614 41338
" />
<path d="M60551 41338
L60433 41338
" />
<path d="M61181 41338
L61535 41338
" />
<path d="M60551 41338
L60905 41338
" />
<path d="M61181 41141
L61181 41535
" />
<path d="M60905 41141
L60905 41535
" />
<path d="M60905 41535
L61181 41338
" />
<path d="M61181 41338
L60905 41141
" />
<circle cx="61023.6" cy="41338.6" r="590.551" /> 
<path d="M68622 41338
L68700 41338
" />
<path d="M67637 41338
L67519 41338
" />
<path d="M68267 41338
L68622 41338
" />
<path d="M67637 41338
L67992 41338
" />
<path d="M68267 41141
L68267 41535
" />
<path d="M67992 41141
L67992 41535
" />
<path d="M67992 41535
L68267 41338
" />
<path d="M68267 41338
L67992 41141
" />
<circle cx="68110.2" cy="41338.6" r="590.551" /> 
<path d="M75708 41338
L75787 41338
" />
<path d="M74724 41338
L74606 41338
" />
<path d="M75354 41338
L75708 41338
" />
<path d="M74724 41338
L75078 41338
" />
<path d="M75354 41141
L75354 41535
" />
<path d="M75078 41141
L75078 41535
" />
<path d="M75078 41535
L75354 41338
" />
<path d="M75354 41338
L75078 41141
" />
<circle cx="75196.9" cy="41338.6" r="590.551" /> 
<path d="M75708 34251
L75787 34251
" />
<path d="M74724 34251
L74606 34251
" />
<path d="M75354 34251
L75708 34251
" />
<path d="M74724 34251
L75078 34251
" />
<path d="M75354 34055
L75354 34448
" />
<path d="M75078 34055
L75078 34448
" />
<path d="M75078 34448
L75354 34251
" />
<path d="M75354 34251
L75078 34055
" />
<circle cx="75196.9" cy="34252" r="590.551" /> 
<path d="M82795 41338
L82874 41338
" />
<path d="M81811 41338
L81692 41338
" />
<path d="M82440 41338
L82795 41338
" />
<path d="M81811 41338
L82165 41338
" />
<path d="M82440 41141
L82440 41535
" />
<path d="M82165 41141
L82165 41535
" />
<path d="M82165 41535
L82440 41338
" />
<path d="M82440 41338
L82165 41141
" />
<circle cx="82283.5" cy="41338.6" r="590.551" /> 
<path d="M82795 34251
L82874 34251
" />
<path d="M81811 34251
L81692 34251
" />
<path d="M82440 34251
L82795 34251
" />
<path d="M81811 34251
L82165 34251
" />
<path d="M82440 34055
L82440 34448
" />
<path d="M82165 34055
L82165 34448
" />
<path d="M82165 34448
L82440 34251
" />
<path d="M82440 34251
L82165 34055
" />
<circle cx="82283.5" cy="34252" r="590.551" /> 
<path d="M89881 41338
L89960 41338
" />
<path d="M88897 41338
L88779 41338
" />
<path d="M89527 41338
L89881 41338
" />
<path d="M88897 41338
L89251 41338
" />
<path d="M89527 41141
L89527 41535
" />
<path d="M89251 41141
L89251 41535
" />
<path d="M89251 41535
L89527 41338
" />
<path d="M89527 41338
L89251 41141
" />
<circle cx="89370.1" cy="41338.6" r="590.551" /> 
<path d="M89881 34251
L89960 34251
" />
<path d="M88897 34251
L88779 34251
" />
<path d="M89527 34251
L89881 34251
" />
<path d="M88897 34251
L89251 34251
" />
<path d="M89527 34055
L89527 34448
" />
<path d="M89251 34055
L89251 34448
" />
<path d="M89251 34448
L89527 34251
" />
<path d="M89527 34251
L89251 34055
" />
<circle cx="89370.1" cy="34252" r="590.551" /> 
<path d="M96968 41338
L97047 41338
" />
<path d="M95984 41338
L95866 41338
" />
<path d="M96614 41338
L96968 41338
" />
<path d="M95984 41338
L96338 41338
" />
<path d="M96614 41141
L96614 41535
" />
<path d="M96338 41141
L96338 41535
" />
<path d="M96338 41535
L96614 41338
" />
<path d="M96614 41338
L96338 41141
" />
<circle cx="96456.7" cy="41338.6" r="590.551" /> 
<path d="M96968 34251
L97047 34251
" />
<path d="M95984 34251
L95866 34251
" />
<path d="M96614 34251
L96968 34251
" />
<path d="M95984 34251
L96338 34251
" />
<path d="M96614 34055
L96614 34448
" />
<path d="M96338 34055
L96338 34448
" />
<path d="M96338 34448
L96614 34251
" />
<path d="M96614 34251
L96338 34055
" />
<circle cx="96456.7" cy="34252" r="590.551" /> 
<path d="M104055 41338
L104133 41338
" />
<path d="M103070 41338
L102952 41338
" />
<path d="M103700 41338
L104055 41338
" />
<path d="M103070 41338
L103425 41338
" />
<path d="M103700 41141
L103700 41535
" />
<path d="M103425 41141
L103425 41535
" />
<path d="M103425 41535
L103700 41338
" />
<path d="M103700 41338
L103425 41141
" />
<circle cx="103543" cy="41338.6" r="590.551" /> 
<path d="M54448 41338
L54527 41338
" />
<path d="M53464 41338
L53346 41338
" />
<path d="M54094 41338
L54448 41338
" />
<path d="M53464 41338
L53818 41338
" />
<path d="M54094 41141
L54094 41535
" />
<path d="M53818 41141
L53818 41535
" />
<path d="M53818 41535
L54094 41338
" />
<path d="M54094 41338
L53818 41141
" />
<circle cx="53937" cy="41338.6" r="590.551" /> 
<path d="M36614 49527
L36614 49606
" />
<path d="M36614 48543
L36614 48425
" />
<path d="M36614 49173
L36614 49527
" />
<path d="M36614 48543
L36614 48897
" />
<path d="M36811 49173
L36417 49173
" />
<path d="M36811 48897
L36417 48897
" />
<path d="M36417 48897
L36614 49173
" />
<path d="M36614 49173
L36811 48897
" />
<circle cx="36614.2" cy="49015.7" r="590.551" /> 
<path d="M32283 49527
L32283 49606
" />
<path d="M32283 48543
L32283 48425
" />
<path d="M32283 49173
L32283 49527
" />
<path d="M32283 48543
L32283 48897
" />
<path d="M32480 49173
L32086 49173
" />
<path d="M32480 48897
L32086 48897
" />
<path d="M32086 48897
L32283 49173
" />
<path d="M32283 49173
L32480 48897
" />
<circle cx="32283.5" cy="49015.7" r="590.551" /> 
<path d="M140846 54035
L139862 54035
" />
<path d="M139862 54035
L139862 53051
" />
<path d="M139862 53051
L140846 53051
" />
<path d="M140846 53051
L140846 54035
" />
<circle cx="140354" cy="53543.3" r="716.546" /> 
<path d="M141535 54724
L139173 54724
" />
<path d="M139173 54724
L139173 52362
" />
<path d="M139173 52362
L141535 52362
" />
<path d="M141535 52362
L141535 54724
" />
<path d="M33956 29822
L34940 29822
" />
<path d="M34940 29822
L34940 30807
" />
<path d="M34940 30807
L33956 30807
" />
<path d="M33956 30807
L33956 29822
" />
<circle cx="34448.8" cy="30315" r="716.546" /> 
<path d="M33267 29133
L35629 29133
" />
<path d="M35629 29133
L35629 31496
" />
<path d="M35629 31496
L33267 31496
" />
<path d="M33267 31496
L33267 29133
" />
<path d="M36122 52066
L36122 51082
" />
<path d="M36122 51082
L37106 51082
" />
<path d="M37106 51082
L37106 52066
" />
<path d="M37106 52066
L36122 52066
" />
<circle cx="36614.2" cy="51574.8" r="716.546" /> 
<path d="M35433 52755
L35433 50393
" />
<path d="M35433 50393
L37795 50393
" />
<path d="M37795 50393
L37795 52755
" />
<path d="M37795 52755
L35433 52755
" />
<path d="M31791 52066
L31791 51082
" />
<path d="M31791 51082
L32775 51082
" />
<path d="M32775 51082
L32775 52066
" />
<path d="M32775 52066
L31791 52066
" />
<circle cx="32283.5" cy="51574.8" r="716.546" /> 
<path d="M31102 52755
L31102 50393
" />
<path d="M31102 50393
L33464 50393
" />
<path d="M33464 50393
L33464 52755
" />
<path d="M33464 52755
L31102 52755
" />
</g>
<g style="fill:#000000; fill-opacity:0.0; 
stroke:#000000; stroke-width:78.7402; stroke-opacity:1; 
stroke-linecap:round; stroke-linejoin:round;">
<path d="M32913 48208
L33267 48208
" />
<path d="M34015 48838
L34015 48208
" />
<path d="M32913 48208
L32913 48838
" />
<path d="M32913 48838
L33267 48838
" />
<path d="M33661 48208
L34015 48208
" />
<path d="M33661 48838
L34015 48838
" />
<path d="M37244 48208
L37598 48208
" />
<path d="M38346 48838
L38346 48208
" />
<path d="M37244 48208
L37244 48838
" />
<path d="M37244 48838
L37598 48838
" />
<path d="M37992 48208
L38346 48208
" />
<path d="M37992 48838
L38346 48838
" />
<path d="M102578 41082
L102578 41437
" />
<path d="M101948 42185
L102578 42185
" />
<path d="M102578 41082
L101948 41082
" />
<path d="M101948 41082
L101948 41437
" />
<path d="M102578 41830
L102578 42185
" />
<path d="M101948 41830
L101948 42185
" />
<path d="M95531 34566
L95177 34566
" />
<path d="M94429 33937
L94429 34566
" />
<path d="M95531 34566
L95531 33937
" />
<path d="M95531 33937
L95177 33937
" />
<path d="M94783 34566
L94429 34566
" />
<path d="M94783 33937
L94429 33937
" />
<path d="M81358 34566
L81003 34566
" />
<path d="M80255 33937
L80255 34566
" />
<path d="M81358 34566
L81358 33937
" />
<path d="M81358 33937
L81003 33937
" />
<path d="M80610 34566
L80255 34566
" />
<path d="M80610 33937
L80255 33937
" />
<path d="M81318 41082
L81318 41437
" />
<path d="M80688 42185
L81318 42185
" />
<path d="M81318 41082
L80688 41082
" />
<path d="M80688 41082
L80688 41437
" />
<path d="M81318 41830
L81318 42185
" />
<path d="M80688 41830
L80688 42185
" />
<path d="M74271 34566
L73917 34566
" />
<path d="M73169 33937
L73169 34566
" />
<path d="M74271 34566
L74271 33937
" />
<path d="M74271 33937
L73917 33937
" />
<path d="M73523 34566
L73169 34566
" />
<path d="M73523 33937
L73169 33937
" />
<path d="M66299 42933
L65944 42933
" />
<path d="M65196 42303
L65196 42933
" />
<path d="M66299 42933
L66299 42303
" />
<path d="M66299 42303
L65944 42303
" />
<path d="M65551 42933
L65196 42933
" />
<path d="M65551 42303
L65196 42303
" />
<path d="M60098 41653
L59744 41653
" />
<path d="M58996 41023
L58996 41653
" />
<path d="M60098 41653
L60098 41023
" />
<path d="M60098 41023
L59744 41023
" />
<path d="M59350 41653
L58996 41653
" />
<path d="M59350 41023
L58996 41023
" />
<path d="M41102 48149
L40748 48149
" />
<path d="M40000 47519
L40000 48149
" />
<path d="M41102 48149
L41102 47519
" />
<path d="M41102 47519
L40748 47519
" />
<path d="M40354 48149
L40000 48149
" />
<path d="M40354 47519
L40000 47519
" />
<path d="M41102 49921
L40748 49921
" />
<path d="M40000 49291
L40000 49921
" />
<path d="M41102 49921
L41102 49291
" />
<path d="M41102 49291
L40748 49291
" />
<path d="M40354 49921
L40000 49921
" />
<path d="M40354 49291
L40000 49291
" />
<path d="M36850 29606
L37204 29606
" />
<path d="M37952 30236
L37952 29606
" />
<path d="M36850 29606
L36850 30236
" />
<path d="M36850 30236
L37204 30236
" />
<path d="M37598 29606
L37952 29606
" />
<path d="M37598 30236
L37952 30236
" />
<path d="M142834 54173
L142834 54527
" />
<path d="M142204 55275
L142834 55275
" />
<path d="M142834 54173
L142204 54173
" />
<path d="M142204 54173
L142204 54527
" />
<path d="M142834 54921
L142834 55275
" />
<path d="M142204 54921
L142204 55275
" />
<path d="M139606 51456
L139960 51456
" />
<path d="M140708 52086
L140708 51456
" />
<path d="M139606 51456
L139606 52086
" />
<path d="M139606 52086
L139960 52086
" />
<path d="M140354 51456
L140708 51456
" />
<path d="M140354 52086
L140708 52086
" />
<path d="M131417 39409
L131417 39763
" />
<path d="M130787 40511
L131417 40511
" />
<path d="M131417 39409
L130787 39409
" />
<path d="M130787 39409
L130787 39763
" />
<path d="M131417 40157
L131417 40511
" />
<path d="M130787 40157
L130787 40511
" />
<path d="M125728 41023
L126082 41023
" />
<path d="M126830 41653
L126830 41023
" />
<path d="M125728 41023
L125728 41653
" />
<path d="M125728 41653
L126082 41653
" />
<path d="M126476 41023
L126830 41023
" />
<path d="M126476 41653
L126830 41653
" />
<path d="M116791 41653
L116437 41653
" />
<path d="M115688 41023
L115688 41653
" />
<path d="M116791 41653
L116791 41023
" />
<path d="M116791 41023
L116437 41023
" />
<path d="M116043 41653
L115688 41653
" />
<path d="M116043 41023
L115688 41023
" />
<path d="M109665 41082
L109665 41437
" />
<path d="M109035 42185
L109665 42185
" />
<path d="M109665 41082
L109035 41082
" />
<path d="M109035 41082
L109035 41437
" />
<path d="M109665 41830
L109665 42185
" />
<path d="M109035 41830
L109035 42185
" />
<path d="M103366 34980
L103366 35334
" />
<path d="M102736 36082
L103366 36082
" />
<path d="M103366 34980
L102736 34980
" />
<path d="M102736 34980
L102736 35334
" />
<path d="M103366 35728
L103366 36082
" />
<path d="M102736 35728
L102736 36082
" />
<path d="M118366 53858
L118011 53858
" />
<path d="M117263 53228
L117263 53858
" />
<path d="M118366 53858
L118366 53228
" />
<path d="M118366 53228
L118011 53228
" />
<path d="M117618 53858
L117263 53858
" />
<path d="M117618 53228
L117263 53228
" />
<path d="M98011 50846
L98011 50492
" />
<path d="M98641 49744
L98011 49744
" />
<path d="M98011 50846
L98641 50846
" />
<path d="M98641 50846
L98641 50492
" />
<path d="M98011 50098
L98011 49744
" />
<path d="M98641 50098
L98641 49744
" />
<path d="M48877 40275
L48523 40275
" />
<path d="M47775 39645
L47775 40275
" />
<path d="M48877 40275
L48877 39645
" />
<path d="M48877 39645
L48523 39645
" />
<path d="M48129 40275
L47775 40275
" />
<path d="M48129 39645
L47775 39645
" />
<path d="M36988 26633
L36988 26279
" />
<path d="M37618 25531
L36988 25531
" />
<path d="M36988 26633
L37618 26633
" />
<path d="M37618 26633
L37618 26279
" />
<path d="M36988 25885
L36988 25531
" />
<path d="M37618 25885
L37618 25531
" />
<path d="M39133 53169
L38779 53169
" />
<path d="M38031 52539
L38031 53169
" />
<path d="M39133 53169
L39133 52539
" />
<path d="M39133 52539
L38779 52539
" />
<path d="M38385 53169
L38031 53169
" />
<path d="M38385 52539
L38031 52539
" />
<path d="M34803 53169
L34448 53169
" />
<path d="M33700 52539
L33700 53169
" />
<path d="M34803 53169
L34803 52539
" />
<path d="M34803 52539
L34448 52539
" />
<path d="M34055 53169
L33700 53169
" />
<path d="M34055 52539
L33700 52539
" />
<path d="M134192 40826
L134547 40826
" />
<path d="M135295 41456
L135295 40826
" />
<path d="M134192 40826
L134192 41456
" />
<path d="M134192 41456
L134547 41456
" />
<path d="M134940 40826
L135295 40826
" />
<path d="M134940 41456
L135295 41456
" />
<path d="M125511 31338
L125511 31692
" />
<path d="M124881 32440
L125511 32440
" />
<path d="M125511 31338
L124881 31338
" />
<path d="M124881 31338
L124881 31692
" />
<path d="M125511 32086
L125511 32440
" />
<path d="M124881 32086
L124881 32440
" />
<path d="M104940 37539
L104940 37893
" />
<path d="M104311 38641
L104940 38641
" />
<path d="M104940 37539
L104311 37539
" />
<path d="M104311 37539
L104311 37893
" />
<path d="M104940 38287
L104940 38641
" />
<path d="M104311 38287
L104311 38641
" />
<path d="M120236 27716
L120236 27362
" />
<path d="M120866 26614
L120236 26614
" />
<path d="M120236 27716
L120866 27716
" />
<path d="M120866 27716
L120866 27362
" />
<path d="M120236 26968
L120236 26614
" />
<path d="M120866 26968
L120866 26614
" />
<path d="M115570 34685
L115570 35039
" />
<path d="M114940 35787
L115570 35787
" />
<path d="M115570 34685
L114940 34685
" />
<path d="M114940 34685
L114940 35039
" />
<path d="M115570 35433
L115570 35787
" />
<path d="M114940 35433
L114940 35787
" />
<path d="M116161 26515
L116161 26870
" />
<path d="M115531 27618
L116161 27618
" />
<path d="M116161 26515
L115531 26515
" />
<path d="M115531 26515
L115531 26870
" />
<path d="M116161 27263
L116161 27618
" />
<path d="M115531 27263
L115531 27618
" />
<path d="M95098 37539
L95098 37893
" />
<path d="M94468 38641
L95098 38641
" />
<path d="M95098 37539
L94468 37539
" />
<path d="M94468 37539
L94468 37893
" />
<path d="M95098 38287
L95098 38641
" />
<path d="M94468 38287
L94468 38641
" />
<path d="M93090 29586
L93090 29232
" />
<path d="M93720 28484
L93090 28484
" />
<path d="M93090 29586
L93720 29586
" />
<path d="M93720 29586
L93720 29232
" />
<path d="M93090 28838
L93090 28484
" />
<path d="M93720 28838
L93720 28484
" />
<path d="M84960 35177
L84960 35531
" />
<path d="M84330 36279
L84960 36279
" />
<path d="M84960 35177
L84330 35177
" />
<path d="M84330 35177
L84330 35531
" />
<path d="M84960 35925
L84960 36279
" />
<path d="M84330 35925
L84330 36279
" />
<path d="M78523 29094
L78523 28740
" />
<path d="M79153 27992
L78523 27992
" />
<path d="M78523 29094
L79153 29094
" />
<path d="M79153 29094
L79153 28740
" />
<path d="M78523 28346
L78523 27992
" />
<path d="M79153 28346
L79153 27992
" />
<path d="M78464 35275
L78464 35629
" />
<path d="M77834 36377
L78464 36377
" />
<path d="M78464 35275
L77834 35275
" />
<path d="M77834 35275
L77834 35629
" />
<path d="M78464 36023
L78464 36377
" />
<path d="M77834 36023
L77834 36377
" />
<path d="M64980 28287
L64980 28641
" />
<path d="M64350 29389
L64980 29389
" />
<path d="M64980 28287
L64350 28287
" />
<path d="M64350 28287
L64350 28641
" />
<path d="M64980 29035
L64980 29389
" />
<path d="M64350 29035
L64350 29389
" />
<path d="M63897 35275
L63897 35629
" />
<path d="M63267 36377
L63897 36377
" />
<path d="M63897 35275
L63267 35275
" />
<path d="M63267 35275
L63267 35629
" />
<path d="M63897 36023
L63897 36377
" />
<path d="M63267 36023
L63267 36377
" />
<path d="M52381 32519
L52381 32874
" />
<path d="M51751 33622
L52381 33622
" />
<path d="M52381 32519
L51751 32519
" />
<path d="M51751 32519
L51751 32874
" />
<path d="M52381 33267
L52381 33622
" />
<path d="M51751 33267
L51751 33622
" />
<path d="M52381 38031
L52381 38385
" />
<path d="M51751 39133
L52381 39133
" />
<path d="M52381 38031
L51751 38031
" />
<path d="M51751 38031
L51751 38385
" />
<path d="M52381 38779
L52381 39133
" />
<path d="M51751 38779
L51751 39133
" />
<path d="M140472 46889
L140472 47244
" />
<path d="M139842 47992
L140472 47992
" />
<path d="M140472 46889
L139842 46889
" />
<path d="M139842 46889
L139842 47244
" />
<path d="M140472 47637
L140472 47992
" />
<path d="M139842 47637
L139842 47992
" />
<path d="M143543 46043
L143897 46043
" />
<path d="M144645 46673
L144645 46043
" />
<path d="M143543 46043
L143543 46673
" />
<path d="M143543 46673
L143897 46673
" />
<path d="M144291 46043
L144645 46043
" />
<path d="M144291 46673
L144645 46673
" />
<path d="M139921 46476
L139566 46476
" />
<path d="M138818 45846
L138818 46476
" />
<path d="M139921 46476
L139921 45846
" />
<path d="M139921 45846
L139566 45846
" />
<path d="M139173 46476
L138818 46476
" />
<path d="M139173 45846
L138818 45846
" />
<path d="M143543 40925
L143897 40925
" />
<path d="M144645 41555
L144645 40925
" />
<path d="M143543 40925
L143543 41555
" />
<path d="M143543 41555
L143897 41555
" />
<path d="M144291 40925
L144645 40925
" />
<path d="M144291 41555
L144645 41555
" />
<path d="M139822 41358
L139468 41358
" />
<path d="M138720 40728
L138720 41358
" />
<path d="M139822 41358
L139822 40728
" />
<path d="M139822 40728
L139468 40728
" />
<path d="M139074 41358
L138720 41358
" />
<path d="M139074 40728
L138720 40728
" />
<path d="M143641 35807
L143996 35807
" />
<path d="M144744 36437
L144744 35807
" />
<path d="M143641 35807
L143641 36437
" />
<path d="M143641 36437
L143996 36437
" />
<path d="M144389 35807
L144744 35807
" />
<path d="M144389 36437
L144744 36437
" />
<path d="M139822 26003
L139468 26003
" />
<path d="M138720 25374
L138720 26003
" />
<path d="M139822 26003
L139822 25374
" />
<path d="M139822 25374
L139468 25374
" />
<path d="M139074 26003
L138720 26003
" />
<path d="M139074 25374
L138720 25374
" />
<path d="M143641 25570
L143996 25570
" />
<path d="M144744 26200
L144744 25570
" />
<path d="M143641 25570
L143641 26200
" />
<path d="M143641 26200
L143996 26200
" />
<path d="M144389 25570
L144744 25570
" />
<path d="M144389 26200
L144744 26200
" />
<path d="M139822 36240
L139468 36240
" />
<path d="M138720 35610
L138720 36240
" />
<path d="M139822 36240
L139822 35610
" />
<path d="M139822 35610
L139468 35610
" />
<path d="M139074 36240
L138720 36240
" />
<path d="M139074 35610
L138720 35610
" />
<path d="M139822 31122
L139468 31122
" />
<path d="M138720 30492
L138720 31122
" />
<path d="M139822 31122
L139822 30492
" />
<path d="M139822 30492
L139468 30492
" />
<path d="M139074 31122
L138720 31122
" />
<path d="M139074 30492
L138720 30492
" />
<path d="M143641 30688
L143996 30688
" />
<path d="M144744 31318
L144744 30688
" />
<path d="M143641 30688
L143641 31318
" />
<path d="M143641 31318
L143996 31318
" />
<path d="M144389 30688
L144744 30688
" />
<path d="M144389 31318
L144744 31318
" />
<path d="M96437 51830
L96437 51437
" />
<path d="M97066 50728
L96437 50728
" />
<path d="M96437 51830
L97066 51830
" />
<path d="M97066 51830
L97066 51437
" />
<path d="M96437 51122
L96437 50728
" />
<path d="M97066 51122
L97066 50728
" />
<path d="M51397 42066
L51397 42460
" />
<path d="M50767 43169
L51397 43169
" />
<path d="M51397 42066
L50767 42066
" />
<path d="M50767 42066
L50767 42460
" />
<path d="M51397 42775
L51397 43169
" />
<path d="M50767 42775
L50767 43169
" />
<path d="M37381 28799
L37381 28405
" />
<path d="M38011 27696
L37381 27696
" />
<path d="M37381 28799
L38011 28799
" />
<path d="M38011 28799
L38011 28405
" />
<path d="M37381 28090
L37381 27696
" />
<path d="M38011 28090
L38011 27696
" />
<path d="M64488 24350
L64488 24744
" />
<path d="M63858 25452
L64488 25452
" />
<path d="M64488 24350
L63858 24350
" />
<path d="M63858 24350
L63858 24744
" />
<path d="M64488 25059
L64488 25452
" />
<path d="M63858 25059
L63858 25452
" />
<path d="M49842 47125
L50236 47125
" />
<path d="M50944 47755
L50944 47125
" />
<path d="M49842 47125
L49842 47755
" />
<path d="M49842 47755
L50236 47755
" />
<path d="M50551 47125
L50944 47125
" />
<path d="M50551 47755
L50944 47755
" />
<path d="M34921 34212
L34921 33818
" />
<path d="M35551 33110
L34921 33110
" />
<path d="M34921 34212
L35551 34212
" />
<path d="M35551 34212
L35551 33818
" />
<path d="M34921 33503
L34921 33110
" />
<path d="M35551 33503
L35551 33110
" />
<path d="M34921 37559
L34921 37165
" />
<path d="M35551 36456
L34921 36456
" />
<path d="M34921 37559
L35551 37559
" />
<path d="M35551 37559
L35551 37165
" />
<path d="M34921 36850
L34921 36456
" />
<path d="M35551 36850
L35551 36456
" />
</g>
<g style="fill:#000000; fill-opacity:0.0; 
stroke:#000000; stroke-width:26; stroke-opacity:1; 
stroke-linecap:round; stroke-linejoin:round;">
<path d="M34059 36972
L34059 37830
" />
<path d="M32279 36972
L32279 37830
" />
<path d="M33700 36653
L33483 36653
" />
<path d="M33700 38149
L33483 38149
" />
</g>
<g style="fill:#000000; fill-opacity:0.0; 
stroke:#000000; stroke-width:40; stroke-opacity:1; 
stroke-linecap:round; stroke-linejoin:round;">
<path d="M34059 38151
L32279 38151
" />
<path d="M34059 36651
L32279 36651
" />
<path d="M34059 36651
L34059 38151
" />
<path d="M32279 36651
L32279 38151
" />
</g>
<g style="fill:#000000; fill-opacity:0.0; 
stroke:#000000; stroke-width:80; stroke-opacity:1; 
stroke-linecap:round; stroke-linejoin:round;">
<path d="M33015 37794
L33416 37401
" />
<path d="M33416 37401
L33015 37008
" />
<path d="M33015 37008
L33015 37794
" />
</g>
<g style="fill:#000000; fill-opacity:0.0; 
stroke:#000000; stroke-width:26; stroke-opacity:1; 
stroke-linecap:round; stroke-linejoin:round;">
<path d="M32279 33795
L32279 32937
" />
<path d="M34059 33795
L34059 32937
" />
<path d="M32638 34114
L32855 34114
" />
<path d="M32638 32618
L32855 32618
" />
</g>
<g style="fill:#000000; fill-opacity:0.0; 
stroke:#000000; stroke-width:40; stroke-opacity:1; 
stroke-linecap:round; stroke-linejoin:round;">
<path d="M32279 32616
L34059 32616
" />
<path d="M32279 34116
L34059 34116
" />
<path d="M32279 34116
L32279 32616
" />
<path d="M34059 34116
L34059 32616
" />
</g>
<g style="fill:#000000; fill-opacity:0.0; 
stroke:#000000; stroke-width:80; stroke-opacity:1; 
stroke-linecap:round; stroke-linejoin:round;">
<path d="M33323 32973
L32922 33366
" />
<path d="M32922 33366
L33323 33759
" />
<path d="M33323 33759
L33323 32973
" />
</g> 
</svg>
